{"glyphs":{"0":{"ha":711,"x_min":121,"x_max":736,"o":"m 524 935 q 620 909 578 935 q 688 840 661 884 q 736 610 736 755 q 681 331 736 477 q 431 10 589 93 q 321 -18 377 -18 q 228 11 265 -18 q 167 88 191 40 q 121 328 121 182 q 180 595 121 451 q 328 833 239 738 q 524 935 425 935 m 207 213 q 340 22 207 22 q 571 279 479 22 q 645 704 645 488 q 631 833 645 801 q 593 880 616 865 q 527 895 569 895 q 450 875 486 895 q 384 820 414 855 q 329 739 353 785 q 284 638 304 692 q 250 527 264 585 q 226 414 235 470 q 207 213 207 302 z "},"1":{"ha":711,"x_min":152,"x_max":613,"o":"m 571 5 q 565 0 571 0 l 157 0 q 152 4 152 0 l 155 22 q 202 30 157 28 q 266 33 247 31 q 316 42 302 36 q 333 61 329 49 q 342 93 338 73 l 492 815 q 475 804 492 817 q 429 774 458 792 q 292 699 351 724 l 287 698 q 280 706 283 698 q 277 716 277 715 q 293 726 277 717 q 344 760 309 736 q 416 812 378 783 q 564 935 505 878 l 602 935 q 613 928 613 935 q 612 922 613 924 l 444 109 q 437 61 437 75 q 570 27 437 27 q 574 24 574 27 l 571 5 z "},"2":{"ha":711,"x_min":-12,"x_max":711,"o":"m -9 0 q -12 9 -12 0 q 134 163 -12 43 q 260 265 197 214 q 381 367 323 316 q 486 471 440 418 q 586 680 586 585 q 543 800 586 750 q 433 852 498 852 q 321 825 380 852 q 193 705 241 786 q 176 672 182 685 q 167 656 171 659 q 146 650 157 650 q 136 655 136 650 q 163 715 139 672 q 247 834 211 804 q 314 883 283 864 q 374 913 345 902 q 486 935 429 935 q 584 920 543 935 q 654 878 625 905 q 711 728 711 821 q 621 515 711 615 q 376 314 556 443 q 227 196 309 265 q 110 92 111 98 l 492 92 q 567 119 541 92 q 616 205 585 138 l 642 205 l 574 22 q 555 0 568 7 l -9 0 z "},"3":{"ha":711,"x_min":62,"x_max":712,"o":"m 360 455 q 351 467 351 455 q 393 505 351 479 q 526 607 489 570 q 604 755 604 685 q 570 830 604 799 q 491 861 537 861 q 408 844 445 861 q 343 806 372 828 q 263 720 306 776 q 258 720 262 720 q 246 723 254 720 q 238 730 237 727 q 361 867 275 803 q 537 935 454 935 q 666 902 620 935 q 712 809 712 868 q 597 618 712 710 q 514 565 560 589 q 669 503 618 565 q 708 390 708 453 q 688 277 708 328 q 635 181 669 226 q 559 100 602 137 q 469 37 516 63 q 287 -18 370 -18 q 162 -5 203 -18 q 103 19 121 7 q 62 89 62 45 q 81 122 62 111 q 117 134 99 134 q 147 126 134 134 q 173 106 159 118 q 202 79 186 94 q 235 52 217 64 q 320 24 278 24 q 397 38 363 24 q 461 78 432 53 q 515 136 491 103 q 556 205 539 169 q 592 335 592 280 q 581 416 592 389 q 552 459 570 442 q 462 492 517 492 q 404 478 433 492 q 368 459 374 464 q 360 455 361 455 z "},"4":{"ha":711,"x_min":90,"x_max":728,"o":"m 410 -15 q 467 258 467 250 q 461 268 467 267 q 441 269 456 269 l 104 269 q 90 275 90 269 q 97 298 90 289 l 649 920 q 675 935 663 935 q 695 934 688 935 q 703 923 703 932 q 698 901 701 917 q 688 851 695 885 q 668 754 681 817 q 617 511 650 669 q 584 348 584 352 q 595 343 584 343 l 709 343 q 728 334 728 343 l 718 285 q 701 269 713 269 l 577 269 q 568 267 570 269 q 564 256 566 265 l 509 -10 q 494 -25 506 -25 l 421 -25 q 410 -15 410 -25 m 196 363 q 190 355 194 360 q 186 347 186 351 q 206 343 186 343 l 469 343 q 487 357 481 343 q 520 517 507 452 q 543 626 534 583 q 556 692 551 669 q 564 728 562 716 q 567 746 567 743 q 554 759 567 759 q 532 745 548 759 l 196 363 z "},"5":{"ha":711,"x_min":64,"x_max":740,"o":"m 314 488 q 301 484 314 488 q 267 470 288 480 q 228 450 245 460 q 205 439 210 439 q 200 444 200 439 q 317 907 200 449 l 662 907 q 705 924 694 907 l 712 935 l 740 935 l 700 821 l 344 821 q 329 816 330 821 l 265 564 q 264 556 264 560 q 342 585 287 576 q 432 593 397 593 q 508 582 466 593 q 586 541 551 570 q 665 334 665 475 q 593 145 665 231 q 429 24 530 69 q 248 -18 334 -18 q 102 14 159 -18 q 64 66 64 35 q 88 105 69 90 q 127 119 106 119 q 167 103 148 119 q 205 68 186 87 q 244 33 224 49 q 298 17 264 17 q 370 32 332 17 q 438 73 408 47 q 491 132 468 99 q 528 199 513 164 q 558 316 558 268 q 548 392 558 365 q 522 437 538 418 q 486 467 506 456 q 444 486 465 479 q 374 496 408 496 q 314 488 340 496 z "},"6":{"ha":711,"x_min":109,"x_max":806,"o":"m 795 934 q 806 927 806 934 q 790 909 806 920 q 751 887 774 899 q 705 865 728 876 q 665 845 682 854 q 622 818 649 835 q 564 779 594 800 q 502 733 533 758 q 445 684 471 709 q 376 588 386 628 q 390 591 382 588 q 408 599 397 595 q 481 610 437 610 q 571 591 526 610 q 650 540 617 572 q 716 365 716 471 q 661 176 716 267 q 433 -5 580 41 q 333 -20 387 -20 q 236 2 279 -20 q 165 61 193 24 q 109 233 109 134 q 131 402 109 332 q 192 532 153 472 q 285 642 231 591 q 404 736 340 692 q 692 898 507 806 q 795 934 764 934 m 246 74 q 254 61 246 74 q 290 32 262 47 q 358 16 317 16 q 435 34 400 16 q 496 81 469 52 q 543 150 524 111 q 576 229 563 188 q 602 368 602 309 q 593 460 602 427 q 567 517 585 493 q 444 570 527 570 q 319 509 374 570 q 222 283 245 427 q 216 203 216 241 q 223 133 216 166 q 246 74 230 100 z "},"7":{"ha":711,"x_min":100,"x_max":759,"o":"m 744 907 q 759 895 759 907 q 736 825 759 879 l 378 -18 l 302 -18 l 306 -3 l 635 787 q 625 798 635 798 l 235 798 q 208 787 222 798 q 187 764 194 776 l 129 659 q 115 647 123 647 q 100 654 100 647 q 103 664 100 657 q 111 685 106 671 q 127 726 117 699 q 152 793 137 752 l 190 893 q 204 907 199 907 l 744 907 z "},"8":{"ha":711,"x_min":140,"x_max":723,"o":"m 594 410 q 604 394 594 410 q 626 348 614 378 q 638 271 637 317 q 615 170 639 224 q 551 75 591 116 q 347 -18 461 -18 q 156 107 203 -18 q 140 191 140 150 q 149 255 140 232 q 172 300 157 279 q 273 399 210 359 q 345 448 330 436 q 360 464 360 459 q 350 480 360 468 q 323 515 340 492 q 293 560 306 537 q 264 668 264 612 q 287 772 264 723 q 346 857 309 821 q 537 935 426 935 q 669 889 616 935 q 723 768 723 843 q 647 606 723 693 q 513 501 579 527 q 594 410 574 441 m 504 104 q 512 116 504 104 q 530 156 520 127 q 541 209 541 185 q 534 255 541 233 q 515 301 527 277 q 489 350 504 326 q 456 394 473 374 q 384 439 416 439 q 356 425 370 439 q 329 399 342 412 q 293 364 315 387 q 256 312 272 341 q 220 157 220 246 q 297 23 220 58 q 344 12 321 12 q 386 18 367 12 q 426 35 405 24 q 467 64 447 47 q 504 104 488 81 m 582 897 q 527 907 560 907 q 463 892 494 907 q 409 853 432 878 q 359 730 359 800 q 430 583 359 659 q 482 533 474 536 q 498 531 490 531 q 534 550 511 531 q 578 596 557 569 q 614 652 599 623 q 646 777 646 718 q 582 897 646 867 z "},"9":{"ha":711,"x_min":26,"x_max":751,"o":"m 31 -20 q 26 -14 26 -20 q 50 8 26 0 q 115 36 73 17 q 205 79 157 54 q 300 134 252 104 q 389 197 349 164 q 496 332 480 269 q 491 334 496 334 q 418 317 454 326 q 336 309 382 309 q 250 328 290 309 q 182 380 210 347 q 129 545 129 444 q 179 728 129 637 q 310 875 228 817 q 490 935 395 935 q 684 857 613 935 q 751 664 751 782 q 593 290 751 473 q 255 37 450 125 q 31 -20 131 -20 m 633 718 q 490 899 633 899 q 313 793 380 899 q 249 538 249 694 q 333 363 249 410 q 406 347 361 347 q 487 365 450 347 q 550 412 524 382 q 592 479 576 441 q 617 559 608 517 q 633 718 633 631 z "}," ":{"ha":390,"x_min":0,"x_max":0,"o":""},"!":{"ha":429,"x_min":149,"x_max":456,"o":"m 276 72 q 256 12 267 27 q 193 -18 235 -18 q 151 33 159 -18 q 149 58 149 45 q 156 85 149 71 q 174 110 163 99 q 225 134 196 134 q 276 72 276 134 m 338 963 q 359 985 342 984 l 432 981 q 448 979 439 981 q 456 970 456 977 q 456 961 456 964 l 269 256 l 229 256 l 338 963 z "},"\"":{"ha":553,"x_min":153,"x_max":553,"o":"m 153 581 l 185 916 q 204 962 188 948 q 256 985 232 985 q 293 971 280 985 q 307 948 307 958 q 304 926 307 930 l 193 581 l 153 581 m 399 581 l 432 916 q 451 962 435 948 q 503 985 479 985 q 540 971 527 985 q 553 948 553 958 q 551 926 553 930 l 440 581 l 399 581 z "},"#":{"ha":931,"x_min":146,"x_max":945,"o":"m 232 722 l 416 722 l 485 1043 l 571 1043 l 503 722 l 673 722 l 742 1043 l 828 1043 l 760 722 l 945 722 l 925 640 l 742 640 l 693 403 l 880 403 l 861 321 l 675 321 l 603 -24 l 513 -24 l 586 321 l 418 321 l 346 -24 l 256 -24 l 329 321 l 146 321 l 167 403 l 347 403 l 399 640 l 210 640 l 232 722 m 436 403 l 604 403 l 654 640 l 485 640 l 436 403 z "},"$":{"ha":711,"x_min":33,"x_max":680,"o":"m 407 865 q 502 842 464 857 l 531 979 l 570 979 l 538 827 q 680 677 680 762 q 666 646 680 659 q 634 633 653 633 q 602 650 616 633 q 576 692 588 668 q 553 742 564 717 q 528 783 541 770 l 458 452 q 484 429 466 444 q 526 388 501 415 q 571 331 551 361 q 613 209 613 264 q 592 113 613 153 q 537 45 572 73 q 359 -15 467 -12 l 332 -142 l 293 -142 l 320 -14 q 224 4 253 -7 l 193 -142 l 155 -142 l 189 18 q 46 145 84 66 q 33 193 33 172 q 38 224 33 214 q 50 240 43 233 q 85 254 66 254 q 114 245 104 254 q 129 220 124 235 q 137 184 134 204 q 146 142 140 163 q 198 59 161 87 l 284 464 q 163 673 163 582 q 225 806 163 752 q 369 865 283 857 l 393 979 l 431 979 l 407 865 m 399 359 q 358 396 379 378 q 315 435 336 415 l 231 38 q 274 22 254 26 q 326 13 302 14 l 399 359 m 495 809 q 434 830 460 827 q 401 835 408 833 l 343 564 q 425 481 370 533 l 495 809 m 365 15 q 468 65 425 24 q 517 161 517 111 q 493 250 517 212 q 431 327 469 289 l 365 15 m 363 834 q 284 796 315 829 q 253 713 253 762 q 264 666 253 686 q 313 598 279 642 l 363 834 z "},"%":{"ha":1183,"x_min":178,"x_max":1246,"o":"m 1158 1016 l 1246 1016 l 291 -37 l 203 -37 l 1158 1016 m 1062 554 q 1123 538 1097 554 q 1165 496 1149 523 q 1196 359 1196 446 q 1120 112 1196 233 q 1004 -1 1071 33 q 935 -18 970 -18 q 876 0 899 -18 q 838 46 852 17 q 808 190 808 103 q 888 427 808 304 q 1062 554 969 554 m 863 121 q 947 6 863 6 q 1055 83 1007 6 q 1134 339 1115 178 q 1139 411 1139 382 q 1137 460 1139 439 q 1128 496 1135 481 q 1071 530 1112 530 q 1001 509 1030 530 q 950 454 972 488 q 911 376 928 420 q 884 286 895 332 q 863 121 863 193 m 431 935 q 492 920 466 935 q 534 878 518 904 q 566 740 566 827 q 490 493 566 614 q 373 380 440 414 q 304 363 339 363 q 245 381 269 363 q 207 427 222 398 q 178 571 178 484 q 257 808 178 685 q 431 935 338 935 m 232 502 q 316 387 232 387 q 425 464 376 387 q 503 720 484 559 q 508 792 508 763 q 506 841 508 821 q 497 878 505 862 q 440 911 481 911 q 371 890 399 911 q 319 835 342 869 q 280 757 297 801 q 254 667 264 713 q 232 502 232 574 z "},"&":{"ha":1050,"x_min":14,"x_max":1032,"o":"m 874 444 q 861 442 874 444 q 828 438 848 439 q 794 436 808 436 q 781 428 781 436 q 786 418 781 425 q 799 400 791 412 q 814 372 806 388 q 830 290 830 335 q 812 205 830 245 q 763 132 793 165 q 692 75 732 100 q 606 33 651 50 q 429 -2 516 -2 q 165 58 286 -2 q 34 189 75 104 q 14 282 14 233 q 27 373 14 332 q 65 447 41 413 q 200 545 117 518 q 237 554 222 553 q 255 557 252 555 q 258 565 258 559 q 255 573 258 570 q 249 579 253 576 q 238 586 244 582 q 219 601 232 589 q 193 628 207 612 q 168 662 178 644 q 146 743 146 700 q 163 821 146 786 q 208 882 180 855 q 273 928 236 909 q 349 960 309 948 q 500 985 426 985 q 661 954 584 985 q 760 836 760 912 q 747 801 760 816 q 714 785 734 785 q 683 793 694 785 q 663 812 671 800 q 645 861 652 829 q 622 908 638 893 q 586 933 606 924 q 499 949 549 949 q 407 930 450 949 q 334 876 363 911 q 272 696 272 806 q 319 605 272 625 q 368 594 340 595 q 420 590 396 592 q 450 582 444 588 q 456 566 456 576 q 450 549 456 555 q 435 541 444 544 q 388 534 420 534 q 242 511 288 534 q 171 433 197 487 q 145 312 145 380 q 168 197 145 245 q 229 113 190 149 q 429 34 312 34 q 665 104 546 34 q 779 218 745 153 q 796 292 796 253 q 784 359 796 331 q 749 404 771 387 q 628 439 705 439 q 536 416 570 439 q 524 395 524 407 q 529 375 524 382 q 540 361 534 368 q 555 327 555 340 q 546 302 555 314 q 522 291 536 291 q 497 296 507 291 q 480 311 487 302 q 465 363 465 330 q 489 426 465 397 q 548 475 513 456 q 694 513 617 513 l 868 506 q 968 545 968 506 q 960 567 968 558 q 947 597 947 583 q 960 621 947 611 q 987 631 973 631 q 1008 626 1000 631 q 1021 612 1016 621 q 1032 569 1032 595 q 1017 520 1032 542 q 979 483 1002 498 q 928 458 956 467 q 874 444 900 449 z "},"'":{"ha":307,"x_min":153,"x_max":307,"o":"m 153 581 l 185 916 q 204 962 188 948 q 256 985 232 985 q 293 971 280 985 q 307 948 307 958 q 304 926 307 930 l 193 581 l 153 581 z "},"(":{"ha":462,"x_min":136,"x_max":621,"o":"m 588 1168 q 599 1175 595 1175 q 607 1170 603 1175 q 614 1158 611 1165 q 621 1137 621 1143 q 614 1120 621 1130 q 250 417 332 784 q 220 159 220 288 q 313 -301 220 -93 q 314 -309 314 -304 q 310 -321 314 -314 q 300 -336 306 -329 q 276 -355 285 -355 q 264 -349 268 -355 q 136 161 136 -91 q 258 701 136 436 q 588 1168 374 955 z "},")":{"ha":458,"x_min":-58,"x_max":434,"o":"m 279 1170 q 289 1175 286 1175 q 298 1168 292 1175 q 434 656 434 949 q 310 115 434 383 q -24 -349 191 -143 q -30 -354 -28 -353 q -35 -355 -31 -355 q -43 -351 -39 -355 q -50 -339 -47 -346 q -58 -318 -58 -323 q -50 -301 -58 -309 q 349 668 349 165 q 252 1120 349 901 q 250 1128 250 1123 q 279 1170 250 1149 z "},"*":{"ha":543,"x_min":149,"x_max":590,"o":"m 585 893 l 590 863 l 425 810 l 474 644 l 448 631 l 347 772 l 203 675 l 182 695 l 287 834 l 149 940 l 161 968 l 326 913 l 384 1077 l 414 1072 l 412 899 l 585 893 z "},"+":{"ha":788,"x_min":180,"x_max":771,"o":"m 180 467 l 434 467 l 434 731 l 520 731 l 520 467 l 771 467 l 771 381 l 520 381 l 520 120 l 434 120 l 434 381 l 180 381 l 180 467 z "},",":{"ha":256,"x_min":-14,"x_max":222,"o":"m 5 -259 q -14 -237 -14 -259 q 5 -215 -14 -227 q 47 -188 24 -203 q 89 -152 71 -172 q 130 -51 130 -106 q 117 0 130 -26 q 90 73 90 49 q 99 102 90 86 q 175 127 129 153 q 213 88 203 112 q 222 31 222 64 q 207 -48 222 -2 q 163 -133 191 -94 q 12 -257 107 -210 q 5 -259 7 -259 z "},"-":{"ha":628,"x_min":85,"x_max":584,"o":"m 584 393 l 562 290 l 85 290 l 106 393 l 584 393 z "},".":{"ha":242,"x_min":81,"x_max":208,"o":"m 193 116 q 197 112 193 116 q 204 96 201 107 q 208 72 208 85 q 203 41 208 58 q 187 11 197 24 q 142 -18 165 -18 q 109 -11 119 -18 q 92 8 98 -3 q 81 50 81 28 q 87 85 81 71 q 103 110 94 99 q 144 135 125 135 q 174 130 162 135 q 193 116 185 125 z "},"/":{"ha":690,"x_min":122,"x_max":697,"o":"m 609 985 l 697 985 l 210 -18 l 122 -18 l 609 985 z "},":":{"ha":414,"x_min":122,"x_max":356,"o":"m 234 116 q 238 112 234 116 q 245 96 241 107 q 249 72 249 85 q 243 41 249 58 q 228 11 238 24 q 183 -18 206 -18 q 149 -11 159 -18 q 133 8 139 -3 q 122 50 122 28 q 128 85 122 71 q 144 110 134 99 q 184 135 166 135 q 214 130 203 135 q 234 116 226 125 m 341 611 q 345 607 341 611 q 352 591 349 602 q 356 567 356 581 q 351 536 356 553 q 335 506 345 519 q 290 477 313 477 q 256 485 267 477 q 240 503 246 492 q 229 545 229 524 q 235 580 229 566 q 251 605 241 594 q 292 630 273 630 q 321 625 310 630 q 341 611 333 620 z "},";":{"ha":402,"x_min":14,"x_max":345,"o":"m 329 611 q 333 607 329 611 q 341 591 337 602 q 345 567 345 581 q 339 536 345 553 q 324 506 334 519 q 278 477 302 477 q 245 485 255 477 q 229 503 235 492 q 218 545 218 524 q 224 580 218 566 q 240 605 230 594 q 280 630 262 630 q 310 625 298 630 q 329 611 321 620 m 32 -259 q 14 -237 14 -259 q 33 -215 14 -227 q 75 -188 52 -203 q 116 -152 98 -172 q 157 -51 157 -106 q 144 0 157 -26 q 117 73 117 49 q 126 102 117 86 q 167 136 146 136 q 202 128 188 136 q 227 107 216 120 q 250 39 250 81 q 234 -48 250 -2 q 190 -133 218 -94 q 39 -257 134 -210 q 32 -259 35 -259 z "},"<":{"ha":667,"x_min":170,"x_max":646,"o":"m 302 425 l 646 219 l 646 115 l 170 398 l 170 447 l 646 726 l 646 625 l 302 425 z "},"=":{"ha":787,"x_min":180,"x_max":770,"o":"m 770 583 l 770 496 l 180 496 l 180 583 l 770 583 m 770 352 l 770 266 l 180 266 l 180 352 l 770 352 z "},">":{"ha":665,"x_min":170,"x_max":644,"o":"m 170 625 l 170 726 l 644 445 l 644 397 l 170 115 l 170 219 l 512 425 l 170 625 z "},"?":{"ha":588,"x_min":142,"x_max":588,"o":"m 292 836 q 263 886 263 836 q 339 962 263 954 q 395 964 361 964 q 467 945 429 964 q 532 896 505 927 q 588 749 588 831 q 569 624 588 668 q 515 547 549 579 q 436 489 481 515 q 338 427 391 462 q 266 281 292 395 q 254 236 260 254 l 227 236 q 281 492 227 422 q 395 589 323 549 q 512 672 488 640 q 536 741 536 705 q 523 799 536 777 q 488 835 509 821 q 392 863 447 863 q 350 853 372 863 q 292 836 309 836 m 269 72 q 250 12 260 27 q 186 -18 228 -18 q 144 33 153 -18 q 142 58 142 45 q 149 85 142 71 q 167 110 156 99 q 218 134 189 134 q 269 72 269 134 z "},"@":{"ha":1272,"x_min":142,"x_max":1323,"o":"m 755 164 q 757 170 755 164 q 761 188 758 176 q 764 210 764 199 q 760 222 765 222 q 745 215 754 222 q 718 192 735 208 q 679 157 701 176 q 633 118 657 138 q 586 81 609 98 q 509 43 534 43 q 470 63 485 43 q 446 111 454 83 q 433 203 433 159 q 540 473 433 344 q 791 646 642 595 q 942 671 865 671 q 954 652 954 671 l 851 183 q 850 172 850 178 q 848 155 848 163 q 871 93 848 115 q 932 71 895 71 q 1007 89 970 71 q 1075 138 1043 107 q 1133 211 1107 170 q 1177 298 1159 252 q 1217 480 1217 393 q 1188 646 1217 568 q 1103 785 1160 724 q 760 924 978 916 q 469 831 602 920 q 269 606 343 747 q 193 302 193 465 q 236 79 193 181 q 355 -96 279 -22 q 535 -210 431 -169 q 746 -251 639 -251 q 933 -225 854 -251 q 1076 -151 1012 -199 q 1271 117 1202 -56 l 1323 117 q 951 -262 1214 -165 q 760 -302 863 -295 q 444 -224 586 -302 q 224 -11 304 -147 q 142 302 142 130 q 224 633 142 477 q 444 879 306 788 q 760 975 589 975 q 1137 827 997 975 q 1267 499 1267 692 q 1208 245 1267 361 q 1067 77 1156 140 q 891 17 982 17 q 764 52 796 17 q 749 94 749 68 q 751 136 749 120 q 755 164 753 151 m 844 583 q 819 594 844 594 q 758 585 793 594 q 692 559 724 576 q 541 350 574 497 q 525 248 527 286 q 525 191 524 209 q 532 156 526 172 q 582 118 545 118 q 687 194 631 143 q 777 275 744 245 l 844 583 z "},"A":{"ha":1057,"x_min":-14,"x_max":1006,"o":"m -14 8 q 1 27 -14 27 l 16 27 q 55 37 41 27 q 102 91 68 47 q 197 214 136 136 q 319 373 258 293 q 441 532 380 453 q 558 685 502 612 q 663 822 614 758 q 734 915 712 886 q 767 952 757 944 q 793 961 778 961 l 811 961 q 836 950 831 961 q 842 924 842 940 l 862 102 q 932 31 864 45 q 967 27 950 27 l 997 27 q 1006 17 1006 27 l 1006 9 q 996 0 1006 0 l 575 0 q 566 7 566 0 l 566 20 q 583 27 566 27 q 618 28 600 27 q 650 33 637 30 q 713 60 699 41 q 734 98 728 80 q 742 171 742 123 l 737 366 l 737 378 q 701 408 737 408 l 429 408 q 385 385 401 408 q 314 293 350 338 q 257 219 279 248 q 227 178 235 190 q 210 153 218 165 q 193 94 193 123 q 219 46 193 65 q 286 27 244 27 l 319 27 q 328 20 328 27 q 321 1 325 3 q 311 0 317 0 l -1 0 q -14 8 -14 0 m 734 493 l 727 797 q 720 815 727 815 q 700 797 713 814 q 660 743 687 779 q 600 666 633 707 q 498 533 528 574 q 464 489 467 493 q 457 479 460 484 q 448 463 448 467 q 452 459 448 459 l 702 459 q 726 468 717 459 q 734 493 734 477 z "},"B":{"ha":886,"x_min":14,"x_max":885,"o":"m 444 -1 l 321 0 q 93 0 170 0 q 14 2 15 0 q 14 5 14 4 l 18 28 q 33 34 21 34 q 66 36 44 34 q 108 47 88 39 q 164 119 153 68 l 316 835 q 319 868 319 850 q 312 898 319 886 q 290 914 304 909 q 219 921 271 921 l 173 921 q 168 927 168 921 l 174 949 q 180 956 174 956 l 570 956 q 857 841 781 956 q 885 751 885 800 q 871 674 885 703 q 834 622 857 645 q 787 583 812 600 q 739 556 762 566 q 701 540 717 545 q 684 534 686 534 q 858 301 858 426 q 785 96 858 172 q 475 -1 691 -1 q 444 -1 459 -1 m 384 522 q 363 497 368 522 q 331 348 344 409 q 310 248 318 288 q 296 186 301 208 q 289 153 292 163 q 286 125 286 138 q 300 93 286 112 q 338 60 315 74 q 446 31 385 31 q 558 52 507 31 q 647 108 610 72 q 727 304 727 184 q 665 460 727 399 q 505 522 602 522 l 384 522 m 382 593 q 382 583 382 590 q 401 564 382 567 q 498 560 444 560 q 604 576 552 560 q 692 616 656 591 q 762 735 762 666 q 670 906 762 863 q 594 921 637 921 q 524 921 550 921 q 481 917 498 920 q 446 890 452 911 l 382 593 z "},"C":{"ha":1038,"x_min":75,"x_max":1072,"o":"m 881 14 l 825 22 q 728 7 779 22 q 585 -20 633 -20 q 478 -12 537 -20 q 361 17 418 -3 q 251 70 303 37 q 160 153 199 103 q 75 427 75 260 q 174 720 75 586 q 417 914 265 842 q 719 985 564 985 q 882 970 805 985 q 993 945 958 956 q 1072 880 1072 918 q 1052 767 1072 831 q 1024 688 1031 703 q 1010 673 1017 673 q 994 685 996 673 q 990 754 992 720 q 972 817 987 788 q 933 869 958 846 q 879 908 909 892 q 748 943 815 943 q 612 923 680 943 q 482 869 543 904 q 370 785 421 833 q 281 677 318 736 q 201 410 201 551 q 301 134 201 244 q 573 21 406 21 q 777 92 681 21 q 893 238 861 155 q 904 259 898 251 q 921 268 909 268 q 945 256 945 268 q 944 252 944 255 q 942 241 943 249 q 938 217 941 233 q 929 176 935 202 q 915 112 923 151 q 900 45 906 74 q 889 15 893 16 q 881 14 886 14 z "},"D":{"ha":1098,"x_min":0,"x_max":1098,"o":"m 159 949 q 166 956 159 956 l 558 956 q 917 867 766 956 q 1074 689 1029 800 q 1098 560 1098 632 q 1082 419 1098 488 q 1033 288 1067 351 q 946 173 999 226 q 818 82 893 121 q 422 0 658 0 l 5 0 q 0 5 0 0 l 5 28 q 19 34 7 34 q 53 36 31 34 q 94 47 75 39 q 151 119 140 68 l 303 835 q 307 869 307 850 q 298 898 307 887 q 276 914 290 909 q 202 922 256 922 l 159 922 q 155 927 155 922 l 159 949 m 277 150 q 276 128 276 143 q 290 94 276 113 q 327 62 304 75 q 436 35 375 35 q 596 60 519 35 q 720 111 672 85 q 812 175 767 136 q 891 269 857 214 q 968 564 968 390 q 724 894 968 814 q 501 926 627 926 q 455 919 471 926 q 435 890 439 911 l 277 150 z "},"E":{"ha":922,"x_min":0,"x_max":909,"o":"m 852 211 q 836 164 852 203 q 807 90 819 125 q 788 34 795 54 q 772 7 781 14 q 744 0 763 0 l 5 0 q 0 5 0 0 l 3 22 q 20 27 6 27 q 54 30 34 27 q 90 43 74 33 q 135 124 123 65 q 186 364 164 260 q 225 543 208 467 q 253 671 241 619 q 271 756 264 722 q 283 809 279 790 q 289 838 287 827 q 291 866 291 852 q 278 894 291 881 q 244 916 264 907 q 159 929 209 929 q 155 935 155 929 l 159 951 q 165 956 160 956 l 875 956 q 900 953 890 956 q 909 942 909 950 q 908 930 909 935 q 905 909 908 926 q 883 748 903 891 q 872 739 882 739 q 850 754 853 739 q 848 778 848 764 q 846 808 848 791 q 834 847 844 825 q 809 885 825 869 q 723 919 775 919 l 474 919 q 430 913 437 919 q 414 875 421 907 l 343 536 q 342 528 342 530 q 370 511 342 511 l 619 511 q 705 543 663 511 q 759 608 737 568 q 770 616 764 616 l 782 616 q 788 612 788 616 q 788 607 788 607 q 787 606 787 607 l 733 353 q 720 338 730 338 q 710 341 712 338 q 706 352 707 343 q 704 372 705 361 q 700 400 704 384 q 687 429 696 417 q 665 448 677 441 q 598 460 642 460 l 353 460 q 338 455 348 460 q 323 437 328 450 q 317 412 319 425 q 307 364 315 399 q 288 277 298 329 q 271 193 278 226 q 260 118 260 146 q 272 75 260 90 q 302 52 283 60 q 398 41 331 41 q 510 44 465 41 q 587 53 554 47 q 645 68 621 58 q 691 92 670 78 q 752 146 720 113 q 792 188 785 179 q 807 205 800 197 q 839 224 825 224 q 852 211 852 224 z "},"F":{"ha":916,"x_min":0,"x_max":909,"o":"m 341 528 q 369 511 341 511 l 620 511 q 738 574 687 511 q 758 604 751 591 q 771 616 764 616 l 779 616 q 789 610 789 616 q 788 608 789 609 q 787 599 788 606 q 782 576 785 591 q 773 532 779 560 q 731 344 735 349 q 720 338 728 338 q 710 342 712 338 q 705 366 706 348 q 701 400 705 384 q 687 429 696 417 q 665 448 678 441 q 599 460 642 460 l 351 460 q 321 439 327 460 q 314 413 319 434 q 303 361 310 391 q 290 295 297 331 q 275 224 282 259 q 248 81 248 97 q 259 53 248 65 q 290 35 271 41 q 374 27 315 27 q 378 22 378 27 l 374 5 q 368 0 372 0 l 5 0 q 0 5 0 0 l 3 22 q 20 27 6 27 q 54 30 34 27 q 90 43 74 33 q 135 124 123 65 q 186 365 164 260 q 225 546 208 469 q 253 675 241 623 q 271 763 264 728 q 282 817 278 798 q 288 846 286 836 q 290 862 290 859 q 160 929 290 929 q 156 935 156 929 l 159 951 q 166 956 161 956 l 876 956 q 901 954 892 956 q 909 944 909 952 q 909 934 909 937 l 871 755 q 857 739 867 739 q 837 754 840 739 q 835 778 835 764 q 832 808 835 791 q 821 847 830 825 q 795 885 811 869 q 708 919 762 919 l 478 919 q 430 913 438 919 q 412 868 420 905 l 342 536 q 341 528 341 533 z "},"G":{"ha":1102,"x_min":68,"x_max":1095,"o":"m 1002 83 q 1014 75 1014 83 q 970 38 1014 52 q 690 -11 892 12 q 596 -18 621 -18 q 220 103 364 -18 q 68 457 68 231 q 164 725 68 598 q 393 913 254 842 q 659 985 531 985 q 843 978 798 985 q 914 964 889 970 q 1017 934 985 947 q 1053 917 1049 921 q 1067 836 1063 903 q 1072 736 1072 769 q 1061 703 1072 703 q 1045 706 1050 703 q 1036 714 1039 709 q 1031 728 1033 720 q 1017 763 1029 735 q 978 830 1004 791 q 916 897 951 869 q 717 953 842 953 q 469 880 590 953 q 279 692 353 808 q 204 439 204 572 q 294 144 204 256 q 568 24 391 24 q 797 72 724 24 q 833 122 827 91 l 867 272 q 869 291 869 280 q 861 313 869 302 q 841 331 853 324 q 789 346 816 346 q 762 358 762 346 q 782 370 762 370 q 863 370 823 370 l 996 370 q 1064 370 1034 370 q 1095 356 1095 370 q 1069 346 1095 346 q 1024 328 1044 346 q 999 289 1004 310 q 989 246 994 269 q 980 200 985 223 q 970 154 975 176 q 963 120 965 131 q 960 106 960 110 q 1002 83 960 83 z "},"H":{"ha":1103,"x_min":14,"x_max":1204,"o":"m 956 864 q 840 929 956 929 q 836 935 836 929 l 840 951 q 846 956 841 956 l 1200 956 q 1204 951 1204 956 l 1200 935 q 1184 929 1199 929 q 1149 926 1170 929 q 1114 913 1129 923 q 1067 832 1080 892 l 914 109 q 911 81 911 98 q 924 53 911 65 q 955 35 936 41 q 1038 27 981 27 q 1042 22 1042 27 l 1038 5 q 1032 0 1036 0 l 669 0 q 664 5 664 0 l 667 22 q 684 27 670 27 q 718 30 698 27 q 753 43 738 33 q 801 131 787 65 q 825 245 814 196 q 843 328 836 295 q 853 379 850 361 q 859 408 857 398 q 861 425 861 422 q 826 467 861 467 l 376 467 q 330 415 342 467 q 304 298 322 382 q 280 182 287 214 q 270 132 273 151 q 264 104 266 114 q 262 79 262 92 q 274 54 262 66 q 305 35 286 41 q 387 27 330 27 q 391 22 391 27 l 388 5 q 382 0 386 0 l 18 0 q 14 5 14 0 l 17 22 q 34 27 20 27 q 67 30 47 27 q 103 43 87 33 q 149 124 136 65 l 302 848 q 305 866 305 859 q 193 929 305 929 q 186 936 186 929 l 189 951 q 196 956 191 956 l 549 956 q 553 951 553 956 l 550 935 q 534 929 549 929 q 499 926 519 929 q 463 913 479 923 q 417 827 430 891 q 393 714 404 762 q 376 634 382 666 q 365 584 369 602 q 359 557 361 566 q 357 545 357 548 q 355 533 355 537 q 376 518 355 518 l 859 518 q 898 589 883 518 q 923 705 913 660 q 939 779 932 749 q 948 825 945 808 q 954 849 951 841 q 956 864 956 861 z "},"I":{"ha":452,"x_min":14,"x_max":553,"o":"m 305 865 q 190 929 305 929 q 186 935 186 929 l 189 951 q 196 956 191 956 l 549 956 q 553 951 553 956 l 550 935 q 534 929 549 929 q 499 926 519 929 q 464 913 479 923 q 418 832 430 892 l 264 109 q 261 81 261 98 q 273 53 261 65 q 304 35 286 41 q 387 27 330 27 q 391 22 391 27 l 388 5 q 382 0 386 0 l 18 0 q 14 5 14 0 l 17 22 q 34 27 20 27 q 67 30 47 27 q 103 43 87 33 q 149 124 137 64 q 200 365 178 261 q 239 546 222 469 q 267 675 256 623 q 286 762 278 728 q 297 816 293 797 q 302 845 301 835 q 305 865 305 859 z "},"J":{"ha":460,"x_min":-288,"x_max":561,"o":"m -288 -412 q -241 -353 -288 -366 q -213 -350 -229 -350 q -175 -355 -197 -350 q -133 -366 -154 -360 q -54 -383 -77 -383 q -12 -377 -31 -383 q 22 -350 6 -370 q 53 -291 38 -329 q 85 -191 68 -254 q 123 -38 102 -129 q 170 179 143 53 q 231 471 197 305 q 289 750 265 636 q 313 879 313 865 q 305 903 313 892 q 282 920 297 914 q 197 929 258 929 q 193 935 193 929 l 197 951 q 203 956 198 956 l 557 956 q 561 951 561 956 l 557 935 q 542 929 556 929 q 507 926 527 929 q 471 913 487 923 q 425 832 437 892 q 353 491 383 633 q 302 250 323 349 q 268 89 281 151 q 247 -12 255 26 q 234 -72 239 -50 q 221 -124 229 -94 q 198 -196 214 -154 q 158 -276 182 -238 q 102 -348 134 -315 q 28 -404 71 -380 q -175 -456 -62 -456 q -288 -412 -288 -456 z "},"K":{"ha":1055,"x_min":14,"x_max":1123,"o":"m 1015 27 q 1021 19 1021 27 l 1021 7 q 1012 0 1021 0 l 779 0 q 747 39 770 11 q 691 106 723 68 q 622 190 659 145 q 547 279 584 235 q 476 364 510 323 q 429 421 443 404 q 410 444 415 437 q 399 455 405 450 q 377 468 387 468 q 352 456 367 468 q 330 418 337 444 l 264 109 q 261 81 261 98 q 273 53 261 65 q 304 35 286 41 q 387 27 330 27 q 391 22 391 27 l 388 5 q 382 0 386 0 l 18 0 q 14 5 14 0 l 17 22 q 34 27 20 27 q 67 30 47 27 q 103 43 87 33 q 149 124 136 65 l 306 862 q 307 879 307 869 q 294 900 307 889 q 262 918 281 911 q 190 929 230 929 q 186 935 186 929 l 189 951 q 196 956 191 956 l 549 956 q 553 951 553 956 l 550 935 q 534 929 549 929 q 499 926 519 929 q 464 913 479 923 q 416 824 430 892 q 390 705 401 757 q 372 619 379 652 q 361 567 365 585 l 355 540 q 357 522 352 522 q 375 531 361 522 q 406 551 389 540 q 438 574 422 563 q 466 593 453 585 q 489 610 478 602 q 525 637 499 618 q 581 677 550 655 q 647 724 612 700 q 712 771 681 749 q 768 810 743 793 q 804 836 793 828 q 823 850 816 844 q 833 861 829 855 q 841 894 841 872 q 832 923 841 916 q 802 929 823 929 l 779 929 q 766 938 766 929 l 766 949 q 778 956 766 956 l 1115 956 q 1123 949 1123 956 l 1123 937 q 1105 929 1123 929 q 1072 926 1087 929 q 1043 918 1057 923 q 1015 906 1029 913 q 982 892 1000 899 q 947 876 965 886 q 903 850 929 867 q 805 782 859 821 q 734 729 751 742 q 692 699 716 716 q 639 661 667 682 q 584 622 611 641 q 534 586 557 602 q 497 560 511 570 q 484 547 484 550 q 491 530 484 539 q 524 490 499 520 q 586 416 549 460 q 663 324 623 371 q 799 162 775 189 q 840 113 823 134 q 879 73 858 92 q 970 27 928 27 l 1015 27 z "},"L":{"ha":872,"x_min":14,"x_max":865,"o":"m 14 8 q 33 27 14 27 q 71 30 52 27 q 105 43 90 33 q 148 124 136 64 q 213 431 186 306 q 257 638 239 557 q 283 764 274 720 q 297 830 293 809 q 303 871 303 859 q 290 896 303 883 q 257 916 277 909 q 172 929 223 929 q 168 935 168 929 l 172 951 q 178 956 173 956 l 576 956 q 581 951 581 956 l 577 935 q 561 929 576 929 q 522 926 547 929 q 477 913 498 923 q 418 832 431 890 q 371 609 391 705 q 335 440 351 512 q 310 317 320 368 q 292 233 299 267 q 282 181 286 200 q 277 151 278 161 q 274 132 274 137 q 400 41 274 41 q 655 68 587 41 q 734 116 703 86 q 782 162 766 146 q 805 188 798 179 q 820 205 812 197 q 851 224 838 224 q 865 211 865 224 q 848 164 865 203 q 820 90 831 125 q 801 34 808 54 q 785 7 793 14 q 757 0 776 0 l 21 0 q 14 8 14 0 z "},"M":{"ha":1276,"x_min":14,"x_max":1378,"o":"m 1088 774 l 1088 783 q 1084 787 1088 787 q 1068 772 1078 787 l 604 46 q 577 12 591 24 q 549 0 564 0 q 531 4 535 0 q 524 14 526 8 q 513 72 521 20 q 490 216 505 123 q 459 406 475 310 q 429 599 444 503 q 406 744 413 696 q 397 800 398 792 q 395 814 396 807 q 388 831 391 831 q 382 825 385 831 q 377 812 379 819 q 356 736 371 793 q 310 562 340 678 q 260 375 279 446 q 233 277 241 304 q 220 225 225 249 q 209 148 209 179 q 250 39 209 75 q 290 27 265 27 q 314 18 314 27 l 314 9 q 287 0 314 0 l 26 0 q 14 14 14 0 q 18 25 14 23 q 38 33 22 27 q 117 95 73 47 q 161 199 145 125 q 189 303 168 224 q 223 428 211 383 q 267 592 251 530 q 311 756 302 728 q 323 800 319 785 q 332 856 332 838 q 325 888 332 874 q 307 911 318 902 q 252 929 285 929 l 224 929 q 210 933 212 929 q 208 943 208 937 q 224 957 208 956 l 477 957 q 504 924 499 957 q 515 849 507 900 q 538 710 524 798 q 566 533 552 621 q 593 358 580 444 q 613 230 606 272 q 622 184 621 189 q 627 180 624 180 q 637 187 632 180 q 751 366 690 272 q 873 557 811 460 q 1063 855 1008 769 q 1125 949 1118 941 q 1146 956 1133 956 l 1361 956 q 1375 953 1373 956 q 1378 943 1378 950 q 1336 928 1378 928 q 1271 903 1293 928 q 1228 789 1246 878 q 1219 744 1223 766 q 1207 688 1207 690 l 1090 136 q 1088 113 1088 126 q 1094 84 1088 100 q 1109 56 1099 68 q 1162 27 1131 30 l 1194 27 q 1214 16 1214 27 q 1206 2 1214 4 q 1186 0 1199 0 l 821 0 q 807 9 807 0 l 808 16 q 827 27 808 27 q 867 37 847 27 q 905 62 887 46 q 955 149 943 96 q 980 267 966 202 q 1008 401 994 331 q 1074 707 1046 578 l 1086 766 q 1088 774 1088 772 z "},"N":{"ha":1164,"x_min":12,"x_max":1265,"o":"m 993 276 q 987 249 993 276 q 971 176 981 222 q 957 105 962 130 q 947 55 951 79 q 940 23 943 31 q 934 8 938 16 q 920 1 930 1 q 900 9 909 1 q 882 29 891 17 q 864 55 873 41 q 802 148 856 69 q 676 333 748 227 q 553 513 604 439 q 471 633 503 587 q 420 708 439 680 q 391 750 401 736 q 376 773 382 764 q 346 805 353 805 q 330 774 336 805 q 277 524 304 647 q 232 318 250 401 q 215 198 215 235 q 220 132 215 161 q 238 79 226 102 q 318 27 265 27 q 348 25 341 27 q 354 16 354 23 l 354 9 q 339 0 354 0 l 33 0 q 17 2 22 0 q 12 14 12 4 q 16 28 12 24 q 26 35 20 32 q 39 39 32 37 q 57 45 46 41 q 83 61 68 49 q 113 88 99 73 q 150 157 142 122 l 293 831 q 297 849 294 839 q 300 871 300 859 q 287 895 300 883 q 256 914 275 907 q 195 929 222 929 q 160 931 168 929 q 153 942 153 932 q 159 954 153 951 q 179 956 165 956 l 349 956 q 399 949 388 956 q 434 911 414 942 l 904 221 q 913 207 908 215 q 923 199 918 199 q 929 209 927 199 q 935 231 931 218 q 942 261 939 245 q 950 305 945 278 q 966 382 955 332 q 989 490 977 433 q 1032 688 1017 619 q 1054 788 1046 757 q 1061 844 1061 820 q 1027 917 1061 890 q 947 929 1011 929 q 934 935 937 929 q 931 945 931 940 q 951 956 931 956 l 1250 956 q 1265 943 1265 956 q 1250 929 1265 929 l 1223 929 q 1133 882 1168 929 q 1102 794 1116 860 q 1081 690 1089 728 q 1062 603 1073 652 q 1040 498 1052 553 q 1017 386 1029 443 q 993 276 1004 329 z "},"O":{"ha":1107,"x_min":85,"x_max":1120,"o":"m 706 20 q 560 0 633 0 q 427 16 488 0 q 315 60 367 32 q 220 129 262 89 q 148 218 178 170 q 85 441 85 321 q 159 712 85 585 q 353 909 231 835 q 611 985 477 985 q 839 952 745 985 q 996 863 933 920 q 1120 567 1120 750 q 1044 281 1120 414 q 706 20 930 83 m 548 28 q 683 53 622 28 q 792 120 743 77 q 879 221 842 163 q 941 343 916 278 q 993 612 993 473 q 909 860 993 766 q 649 962 818 962 q 328 791 448 962 q 220 424 220 636 q 308 142 220 252 q 548 28 399 28 z "},"P":{"ha":824,"x_min":14,"x_max":858,"o":"m 385 386 q 407 407 385 407 q 644 486 559 407 q 733 718 733 568 q 494 924 733 924 q 443 913 454 924 q 430 890 432 901 l 264 109 q 262 82 262 97 q 274 54 262 66 q 305 35 286 41 q 387 27 330 27 q 391 22 391 27 l 388 5 q 382 0 386 0 l 18 0 q 14 5 14 0 l 17 22 q 34 27 20 27 q 67 30 47 27 q 103 43 87 33 q 149 124 136 64 q 153 144 151 135 q 157 168 155 154 q 164 202 160 181 q 176 256 169 223 q 194 338 183 290 q 219 457 204 387 q 254 620 233 526 q 303 869 303 852 q 295 898 303 887 q 273 914 287 909 q 199 922 253 922 l 156 922 q 151 927 151 922 l 157 949 q 163 956 157 956 l 370 956 q 510 956 452 956 q 605 949 568 956 q 679 931 643 943 q 748 899 715 918 q 804 852 780 879 q 858 722 858 795 q 840 600 858 650 q 790 513 822 551 q 716 449 759 475 q 623 406 673 422 q 408 374 528 374 q 385 386 385 374 z "},"Q":{"ha":1110,"x_min":85,"x_max":1124,"o":"m 1027 -192 q 1058 -186 1041 -192 q 1089 -180 1074 -180 q 1105 -198 1105 -180 q 1035 -241 1105 -220 q 953 -255 989 -255 q 887 -248 917 -255 q 829 -229 857 -241 q 729 -178 779 -209 q 637 -122 678 -147 q 555 -66 596 -98 q 372 37 447 15 q 246 104 298 60 q 159 207 194 149 q 85 463 85 328 q 168 737 85 614 q 378 919 245 852 q 663 985 511 985 q 983 864 848 985 q 1106 675 1072 786 q 1124 558 1124 619 q 1108 438 1124 496 q 1066 326 1093 379 q 999 224 1038 272 q 913 137 960 176 q 690 22 815 56 q 659 2 659 13 q 683 -22 659 -5 q 741 -60 707 -39 q 821 -110 776 -81 q 900 -157 865 -138 q 1027 -192 966 -192 m 216 401 q 239 264 216 331 q 305 146 262 197 q 545 35 399 35 q 792 124 684 35 q 943 339 888 204 q 994 602 994 466 q 907 860 994 761 q 659 964 816 964 q 415 877 522 964 q 267 666 321 800 q 216 401 216 541 z "},"R":{"ha":1022,"x_min":14,"x_max":1008,"o":"m 431 435 l 342 431 q 330 421 332 431 l 264 109 q 261 81 261 98 q 273 53 261 64 q 304 35 286 41 q 387 27 330 27 q 391 22 391 27 l 388 5 q 382 0 386 0 l 18 0 q 14 5 14 0 l 17 22 q 34 27 20 27 q 67 30 47 27 q 103 43 87 33 q 149 124 136 64 q 153 144 151 135 q 157 168 153 144 q 165 204 161 182 q 177 260 170 226 q 195 343 184 294 q 220 462 205 392 q 255 626 235 532 q 304 869 304 856 q 277 912 304 902 q 191 922 249 922 l 156 922 q 152 928 152 922 l 156 945 q 165 956 159 956 l 502 956 q 764 901 681 956 q 852 715 852 843 q 786 578 852 639 q 603 463 736 533 q 584 444 584 453 q 591 421 584 434 q 613 386 599 409 q 646 335 627 363 q 689 273 665 306 q 738 208 712 240 q 792 145 764 175 q 848 92 820 115 q 955 42 909 42 l 972 42 q 1004 36 1000 42 q 1008 24 1008 30 l 1008 14 q 987 0 1008 0 l 936 0 q 618 179 753 0 q 552 275 578 233 q 508 343 525 318 q 477 389 490 368 q 462 415 465 410 q 455 425 459 420 q 431 435 446 435 m 528 924 l 494 924 q 443 912 454 924 q 430 890 432 901 l 347 500 q 345 477 345 489 q 379 465 345 465 q 457 474 414 465 q 539 499 500 483 q 612 540 578 516 q 670 594 646 564 q 724 734 724 659 q 670 873 724 823 q 528 924 618 924 z "},"S":{"ha":766,"x_min":34,"x_max":752,"o":"m 112 298 q 171 102 112 167 q 355 37 230 37 q 503 85 440 37 q 570 220 570 138 q 500 363 570 289 q 460 402 481 383 q 412 444 439 422 q 357 491 385 467 q 304 541 330 515 q 259 595 279 566 q 215 719 215 657 q 239 829 215 781 q 302 909 262 876 q 500 978 385 978 q 596 964 563 978 q 644 945 629 951 q 674 939 659 939 q 698 942 690 939 q 713 949 707 945 q 726 956 720 953 q 739 960 732 960 q 752 946 752 958 q 751 928 751 935 q 749 907 750 922 q 737 816 741 845 q 732 773 733 787 q 728 746 731 759 q 707 717 723 717 q 687 738 688 717 q 566 927 678 882 q 486 943 528 943 q 413 930 444 943 q 358 895 382 917 q 305 785 305 847 q 410 608 305 694 q 468 559 438 585 q 535 502 498 532 q 601 437 571 472 q 670 279 670 359 q 641 149 670 200 q 564 65 612 98 q 329 1 471 1 q 102 60 217 1 q 50 91 65 79 q 34 110 34 105 q 49 189 39 151 q 63 252 58 228 q 68 284 67 275 q 73 301 70 293 q 96 322 80 322 q 112 298 112 322 z "},"T":{"ha":965,"x_min":136,"x_max":1050,"o":"m 196 22 q 202 27 196 27 l 221 27 q 327 61 283 27 q 368 122 361 86 l 528 873 q 529 878 529 875 q 508 892 529 892 l 309 892 q 216 843 258 892 q 165 736 175 795 q 160 726 163 726 q 156 725 157 725 l 140 725 q 136 730 136 725 q 178 933 168 887 l 184 962 q 201 983 187 983 q 210 979 206 983 q 219 970 214 975 q 260 956 233 956 l 973 956 q 1010 965 1002 956 q 1022 979 1019 975 q 1032 983 1025 983 q 1050 967 1050 983 q 1044 941 1050 964 q 1005 750 1031 879 l 1001 732 q 994 725 1000 725 l 985 725 q 968 773 975 725 q 954 843 960 822 q 900 892 937 892 l 686 892 q 671 889 677 892 q 661 873 664 887 q 608 624 631 732 q 568 437 585 517 q 539 302 551 357 q 520 212 528 248 q 508 157 512 176 q 502 127 504 137 q 498 102 498 113 q 513 79 498 92 q 547 54 527 65 q 648 27 598 27 l 667 27 q 673 22 673 27 l 673 5 q 667 0 673 0 l 201 0 q 196 5 196 0 l 196 22 z "},"U":{"ha":1097,"x_min":170,"x_max":1206,"o":"m 1196 956 q 1206 947 1206 956 l 1206 940 q 1186 929 1206 932 q 1157 924 1166 926 q 1134 919 1147 922 q 1112 909 1122 916 q 1083 854 1092 894 l 1062 758 q 1047 686 1057 734 q 1024 578 1037 639 q 970 323 989 410 q 917 179 951 237 q 831 81 882 121 q 574 0 728 0 q 300 71 418 0 q 170 273 170 149 q 219 530 170 304 q 275 789 269 757 l 286 838 q 290 873 290 861 q 279 898 290 885 q 251 917 268 910 q 174 929 220 929 q 170 935 170 929 l 174 951 q 180 956 175 956 l 534 956 q 538 951 538 956 l 534 935 q 518 929 533 929 q 484 926 504 929 q 448 913 464 923 q 404 832 416 892 l 298 345 q 292 275 292 316 q 315 189 292 234 q 374 113 338 144 q 550 47 450 47 q 924 345 861 47 l 1007 733 q 1018 819 1018 781 q 911 929 1018 929 l 892 929 q 878 939 878 929 l 878 946 q 890 956 878 956 l 1196 956 z "},"V":{"ha":1046,"x_min":170,"x_max":1154,"o":"m 275 -18 q 260 -3 260 -18 l 288 850 q 227 924 288 908 q 189 929 208 929 q 170 943 170 929 q 188 956 170 956 l 545 956 q 559 943 559 956 q 535 930 559 931 q 493 929 512 929 q 460 920 474 929 q 437 898 447 911 q 417 834 418 870 q 412 677 414 753 q 407 526 410 602 q 396 212 399 326 l 395 191 q 403 181 395 181 q 425 199 411 181 q 472 256 439 216 q 542 343 504 296 q 622 442 580 390 q 706 547 663 494 q 887 769 869 747 q 916 806 905 790 q 941 864 941 842 q 934 899 941 886 q 916 918 928 912 q 852 929 897 929 q 835 943 835 929 q 852 956 835 956 l 1135 956 q 1150 954 1146 956 q 1154 945 1154 952 q 1133 929 1154 929 q 1094 921 1111 929 q 1061 899 1077 912 q 1029 869 1044 886 q 1000 837 1013 853 q 976 807 987 821 q 931 749 966 793 q 828 622 896 706 q 689 452 760 538 q 412 110 464 175 q 339 18 356 39 q 320 -6 323 -2 q 314 -12 317 -9 q 293 -18 307 -18 l 275 -18 z "},"W":{"ha":1466,"x_min":170,"x_max":1575,"o":"m 223 -18 q 210 -1 210 -18 l 275 836 l 278 875 l 278 880 q 184 929 278 929 q 170 941 170 929 q 174 954 170 952 q 186 956 178 956 l 509 956 q 521 951 519 956 q 523 944 523 945 q 498 929 523 929 q 453 922 473 929 q 419 902 432 914 q 393 828 397 880 q 383 706 389 777 q 372 562 377 635 q 353 320 359 385 q 347 239 347 256 q 345 202 346 223 q 353 180 344 180 q 363 187 357 180 q 556 444 479 342 q 800 767 680 606 q 825 827 825 800 q 816 871 825 854 q 793 902 807 889 q 726 929 763 929 q 711 943 711 929 q 720 956 711 956 l 1063 956 q 1074 943 1074 956 q 1059 929 1074 929 l 1046 929 q 943 875 953 929 q 927 514 939 749 q 913 195 916 278 q 918 186 913 186 q 937 205 925 186 l 958 235 q 1075 397 1015 316 q 1166 525 1135 477 q 1212 590 1198 572 q 1241 631 1225 609 q 1273 675 1257 652 q 1303 717 1289 698 q 1328 751 1318 736 q 1343 771 1339 766 q 1352 784 1347 776 q 1363 800 1357 791 q 1385 832 1376 819 q 1395 868 1395 846 q 1375 909 1395 890 q 1325 929 1355 929 q 1295 943 1295 929 q 1308 956 1295 956 l 1558 956 q 1575 943 1575 956 q 1558 929 1575 929 q 1497 911 1512 929 q 1230 539 1377 745 q 843 -2 981 189 q 814 -18 831 -18 l 799 -18 q 785 -1 785 -18 l 786 15 q 797 267 792 142 q 805 472 802 392 q 811 584 808 552 q 814 636 814 616 l 814 662 q 806 691 814 691 q 792 683 799 691 q 752 631 786 674 q 658 507 719 588 q 537 345 597 427 q 415 182 476 264 q 294 22 355 101 l 274 -5 q 239 -18 264 -18 l 223 -18 z "},"X":{"ha":1046,"x_min":14,"x_max":1131,"o":"m 365 27 q 377 21 377 27 l 377 9 q 366 0 377 0 l 22 0 q 14 8 14 0 l 14 18 q 23 27 14 27 l 47 27 q 197 117 113 27 l 543 487 q 549 498 549 494 q 547 507 549 502 l 358 864 q 319 909 340 899 q 210 929 279 929 l 197 929 q 188 930 191 929 q 186 939 186 932 l 186 947 q 196 957 186 957 l 600 956 q 615 949 615 956 l 615 939 q 612 930 615 931 q 601 929 610 929 l 538 929 q 506 916 521 929 q 492 890 492 903 q 505 843 492 869 q 540 777 517 817 q 573 714 562 736 q 589 682 584 692 q 600 661 593 673 q 622 620 617 628 q 631 605 627 612 q 637 597 635 598 q 643 600 641 597 q 660 618 645 603 q 702 662 675 633 q 755 718 730 691 q 801 765 781 744 q 837 802 822 787 q 880 878 880 849 q 865 918 880 906 q 829 929 850 929 l 785 929 q 772 938 772 929 l 772 949 q 784 956 772 956 l 1121 956 q 1131 948 1131 956 l 1131 939 q 1108 929 1131 929 q 1073 927 1086 929 q 1046 920 1059 924 q 990 889 1026 911 q 961 859 981 879 q 916 813 941 839 q 861 756 890 787 q 802 694 831 726 q 676 560 684 572 q 669 543 669 548 q 713 450 669 522 q 735 410 718 444 q 882 132 859 168 q 922 78 905 96 q 951 54 939 60 q 976 43 963 48 q 1002 35 989 39 q 1034 19 1034 27 l 1034 7 q 1025 0 1034 0 l 654 0 q 646 5 646 0 l 646 14 q 655 27 646 27 l 682 27 q 725 42 707 27 q 758 90 758 68 q 751 123 758 111 q 678 260 714 193 q 622 366 642 328 q 597 412 602 405 q 589 425 593 418 q 571 438 578 438 q 532 402 564 438 q 316 170 336 189 q 288 141 296 151 q 292 47 246 87 q 339 27 315 27 l 365 27 z "},"Y":{"ha":1006,"x_min":170,"x_max":1108,"o":"m 268 0 q 254 10 254 0 l 254 18 q 268 27 254 27 l 309 27 q 394 64 357 27 q 428 125 421 90 q 441 192 434 160 q 453 252 448 224 q 475 374 465 309 q 471 392 475 385 q 459 419 467 399 q 435 474 450 439 q 399 557 420 509 q 350 672 378 606 q 296 796 321 739 q 261 870 271 852 q 239 900 251 887 q 192 928 213 928 q 170 937 170 928 l 170 946 q 183 956 170 954 l 482 956 q 495 946 495 956 l 495 937 q 484 928 495 928 l 458 928 q 410 901 425 928 q 404 875 404 890 q 419 824 404 859 q 453 748 435 789 q 488 665 471 707 q 551 517 534 557 q 571 473 569 478 q 575 463 573 468 q 587 452 581 452 q 612 469 597 452 q 638 502 626 487 q 662 529 651 516 q 680 551 673 542 q 719 596 688 559 q 803 697 750 633 q 887 797 857 762 q 922 846 917 832 q 926 878 926 859 q 913 912 926 896 q 872 928 899 928 l 847 928 q 833 938 833 928 l 833 947 q 847 956 833 956 l 1098 956 q 1105 953 1103 956 q 1108 948 1108 950 l 1108 939 q 1104 930 1108 932 q 1093 926 1100 928 q 1058 914 1069 921 q 1034 893 1047 907 q 1006 865 1020 880 q 927 773 987 844 q 776 593 868 701 q 598 382 684 484 q 572 259 586 319 q 544 100 544 129 q 574 49 544 71 q 659 27 604 27 l 690 27 q 703 18 703 27 l 703 9 q 692 0 703 0 l 268 0 z "},"Z":{"ha":1003,"x_min":14,"x_max":1010,"o":"m 32 0 q 14 19 14 0 q 21 47 14 38 q 37 66 28 57 l 781 846 q 828 906 828 894 q 803 919 828 919 l 520 919 q 408 902 446 919 q 301 810 343 872 q 273 758 293 799 q 249 709 254 716 q 231 695 239 695 q 212 704 212 695 q 214 713 212 707 q 218 733 215 720 q 227 772 221 747 q 240 834 232 797 q 256 904 249 872 q 265 941 263 936 q 272 949 267 946 q 311 956 281 956 l 988 956 q 1010 935 1010 956 q 1000 907 1010 917 l 265 135 q 208 65 208 78 q 216 51 208 52 l 640 51 q 893 235 795 51 q 902 250 898 242 q 910 265 905 258 q 936 281 921 281 q 951 269 951 281 q 949 258 951 264 l 884 19 q 859 0 878 0 l 32 0 z "},"[":{"ha":547,"x_min":81,"x_max":716,"o":"m 716 1174 l 705 1116 l 521 1116 q 460 1066 471 1116 q 330 454 374 660 q 268 163 286 249 q 238 20 250 77 q 219 -67 226 -36 q 210 -114 212 -98 q 205 -140 205 -136 q 247 -174 205 -174 l 446 -174 l 434 -232 l 81 -232 l 379 1174 l 716 1174 z "},"\\":{"ha":473,"x_min":47,"x_max":406,"o":"m 406 -18 l 317 -18 l 47 985 l 136 985 l 406 -18 z "},"]":{"ha":532,"x_min":-85,"x_max":566,"o":"m 566 1174 l 267 -232 l -85 -232 l -73 -174 l 127 -174 q 186 -124 176 -174 l 440 1066 q 442 1084 442 1076 q 402 1116 442 1116 l 216 1116 l 228 1174 l 566 1174 z "},"^":{"ha":601,"x_min":78,"x_max":686,"o":"m 385 804 l 178 460 l 78 460 l 363 935 l 406 935 l 686 460 l 585 460 l 385 804 z "},"_":{"ha":688,"x_min":-11,"x_max":699,"o":"m -11 -139 l 699 -139 l 699 -217 l -11 -217 l -11 -139 z "},"`":{"ha":475,"x_min":95,"x_max":342,"o":"m 324 724 q 319 721 321 721 q 315 724 317 721 l 132 871 q 95 928 95 903 q 109 969 95 954 q 140 985 123 985 q 195 951 170 985 l 339 751 q 342 747 342 749 q 339 743 342 746 l 324 724 z "},"a":{"ha":623,"x_min":68,"x_max":589,"o":"m 391 103 q 392 109 391 103 q 396 126 393 115 q 399 149 399 138 q 395 161 400 161 q 361 138 387 161 q 314 96 336 115 q 268 57 292 77 q 221 20 244 37 q 144 -18 169 -18 q 105 2 120 -18 q 81 50 90 22 q 68 142 68 98 q 175 412 68 283 q 427 585 277 534 q 577 610 500 610 q 589 591 589 610 l 486 122 q 485 111 486 117 q 484 93 484 102 q 489 77 484 85 q 501 68 494 68 q 517 76 507 68 q 537 94 527 84 q 572 118 566 118 q 583 106 583 118 q 510 37 583 93 q 417 -21 436 -21 q 388 7 396 -21 q 384 40 384 22 q 386 75 384 59 q 391 103 388 90 m 479 522 q 454 533 479 533 q 393 524 428 533 q 327 498 359 515 q 176 289 210 436 q 160 186 162 225 q 160 130 159 148 q 167 95 161 111 q 217 57 180 57 q 322 133 266 82 q 412 214 379 184 l 479 522 z "},"b":{"ha":607,"x_min":85,"x_max":583,"o":"m 163 1012 q 369 1116 355 1116 q 384 1100 384 1116 q 373 1036 384 1084 q 348 913 363 989 q 319 766 334 838 q 269 534 287 601 q 252 465 252 468 q 262 454 252 454 q 295 477 271 454 q 340 517 319 499 q 384 555 361 536 q 429 591 407 574 q 503 627 477 627 q 544 607 528 627 q 568 559 559 587 q 583 454 583 511 q 573 341 583 397 q 544 232 564 284 q 496 134 525 179 q 431 54 468 88 q 248 -18 352 -18 q 168 0 202 -18 q 119 33 134 18 q 85 120 85 68 q 89 154 85 136 l 266 988 q 267 998 267 994 l 267 1006 q 252 1023 267 1023 q 218 1013 239 1023 q 172 991 197 1002 l 163 1012 m 483 380 q 488 438 488 416 q 488 479 489 461 q 480 514 486 498 q 431 552 467 552 q 326 476 381 527 q 237 395 271 425 l 177 114 q 174 91 174 103 q 178 64 174 79 q 191 38 182 50 q 257 9 212 9 q 326 36 296 9 q 427 172 382 85 q 483 380 466 250 z "},"c":{"ha":461,"x_min":52,"x_max":461,"o":"m 393 612 q 411 612 393 612 q 445 598 429 612 q 461 545 461 585 q 437 504 461 504 q 393 519 418 504 q 355 542 368 534 q 321 549 342 549 q 277 526 300 549 q 234 468 254 503 q 200 388 215 432 q 176 300 186 344 q 156 174 156 212 q 161 114 156 136 q 176 75 165 92 q 246 37 199 37 q 315 58 283 37 q 366 95 347 80 q 401 121 384 109 l 416 103 q 321 21 353 41 q 187 -18 256 -18 q 52 130 52 -18 q 168 476 52 330 q 317 595 235 562 q 393 612 357 612 z "},"d":{"ha":667,"x_min":88,"x_max":715,"o":"m 497 1012 q 702 1116 688 1116 q 715 1093 715 1116 q 713 1072 715 1086 l 507 122 q 505 111 506 117 q 504 93 504 102 q 509 77 504 85 q 521 68 515 68 q 537 76 528 68 q 557 94 547 84 q 593 118 586 118 q 604 106 604 118 q 530 37 604 93 q 437 -21 456 -21 q 408 7 416 -21 q 404 40 404 22 q 406 75 404 59 q 411 103 408 90 q 416 126 414 115 q 420 149 419 138 q 415 161 420 161 q 382 138 408 161 q 334 96 356 115 q 289 57 313 77 q 241 20 264 37 q 165 -18 189 -18 q 125 2 140 -18 q 102 50 110 22 q 88 146 88 98 q 101 244 88 195 q 136 343 113 293 q 190 442 159 394 q 260 527 222 490 q 435 610 346 610 q 471 600 458 610 q 504 581 495 581 q 514 589 513 581 l 598 988 q 601 1006 601 999 q 586 1023 601 1023 q 552 1013 573 1023 q 506 991 530 1002 l 497 1012 m 245 406 q 180 130 172 247 q 200 73 184 88 q 237 57 216 57 q 343 133 286 82 q 433 214 399 184 l 490 475 q 492 494 492 486 q 487 515 492 503 q 470 540 481 528 q 405 568 444 568 q 339 543 367 568 q 245 406 286 494 z "},"e":{"ha":535,"x_min":68,"x_max":542,"o":"m 293 37 q 450 94 357 37 l 460 77 q 298 -6 389 22 q 218 -18 259 -18 q 149 -1 177 -18 q 102 45 120 16 q 68 189 68 101 q 176 468 81 340 q 331 591 241 555 q 414 610 377 610 q 471 604 451 610 q 507 585 492 597 q 542 514 542 557 q 524 441 542 472 q 477 389 506 411 q 410 350 448 366 q 335 321 373 334 q 259 299 296 309 q 195 279 222 290 q 173 176 173 229 q 237 48 173 81 q 293 37 260 37 m 204 320 q 222 309 204 309 q 369 369 325 338 q 436 434 413 400 q 458 515 458 468 q 429 578 458 564 q 396 584 418 584 q 349 571 374 584 q 304 535 324 557 q 267 486 283 513 q 239 429 251 458 q 204 320 218 380 z "},"f":{"ha":416,"x_min":-261,"x_max":684,"o":"m 209 558 q 184 574 209 574 l 122 574 l 128 600 q 229 629 222 603 q 232 647 229 634 q 238 675 235 660 q 243 704 241 690 q 250 735 246 718 q 264 794 254 753 q 291 878 274 834 q 334 964 309 921 q 395 1040 359 1006 q 595 1116 477 1116 q 652 1100 633 1116 q 684 1056 684 1075 q 649 1011 684 1011 q 598 1031 625 1011 q 557 1060 572 1051 q 519 1069 543 1069 q 475 1062 495 1069 q 441 1042 455 1055 q 400 975 420 1023 q 354 805 371 891 q 334 706 337 719 q 329 678 332 693 q 321 633 321 638 q 342 610 321 610 l 429 610 l 421 574 l 324 574 q 309 563 313 574 q 302 538 305 551 l 180 -41 q 76 -281 153 -167 q -72 -412 14 -374 q -155 -433 -117 -433 q -209 -427 -192 -433 q -237 -412 -225 -421 q -261 -374 -261 -393 q -226 -329 -261 -329 q -171 -349 -201 -329 q -123 -378 -140 -369 q -87 -387 -106 -387 q -52 -378 -68 -387 q -22 -353 -35 -368 q 23 -281 5 -326 q 87 -42 63 -165 l 208 553 q 209 558 209 555 z "},"g":{"ha":620,"x_min":-112,"x_max":610,"o":"m 610 557 q 597 547 610 547 l 517 547 q 525 521 520 535 q 533 490 529 507 q 543 404 543 450 q 529 318 543 358 q 492 244 515 278 q 376 125 454 189 q 297 81 350 104 q 227 47 245 58 q 210 17 210 36 q 230 -26 210 -3 q 281 -73 250 -50 q 348 -120 312 -96 q 414 -170 383 -144 q 486 -286 486 -229 q 317 -420 486 -384 q 195 -434 257 -434 q 77 -429 132 -434 q -20 -411 21 -425 q -112 -311 -112 -382 q -26 -196 -112 -255 q 58 -143 20 -164 q 110 -114 97 -122 q 154 -85 148 -91 q 145 -59 151 -72 q 140 -31 140 -45 q 144 -6 140 -17 q 157 14 149 5 q 175 34 165 24 q 200 62 200 58 q 193 74 200 66 q 176 91 186 81 q 143 123 156 109 q 119 158 130 138 q 102 201 109 178 q 90 289 90 246 q 104 370 90 332 q 145 444 119 408 q 204 509 171 479 q 276 562 238 540 q 431 610 357 610 q 606 595 581 610 q 610 588 610 593 l 610 557 m 15 -212 q 5 -221 15 -212 q -16 -251 -4 -231 q -28 -302 -28 -272 q -11 -355 -28 -332 q 37 -392 5 -378 q 208 -414 90 -414 q 372 -375 307 -414 q 414 -310 414 -349 q 326 -205 414 -265 q 275 -171 301 -188 l 175 -103 q 145 -122 164 -111 q 103 -147 125 -133 q 57 -177 81 -161 q 15 -212 34 -193 m 454 437 q 363 577 454 577 q 269 522 313 577 q 191 321 211 448 q 185 257 185 284 q 190 204 185 229 q 205 157 194 178 q 279 107 230 107 q 346 143 311 107 q 400 212 381 178 q 431 281 418 245 q 454 437 454 353 z "},"h":{"ha":666,"x_min":68,"x_max":649,"o":"m 68 0 q 71 23 68 9 q 79 58 77 50 l 277 988 q 279 1006 279 999 q 264 1023 279 1023 q 232 1013 253 1023 q 186 991 210 1002 l 177 1012 q 381 1116 368 1116 q 395 1093 395 1116 q 391 1073 395 1091 l 237 346 q 243 339 237 339 q 266 357 250 339 q 305 401 281 375 q 357 455 329 427 q 416 511 385 484 q 476 562 446 539 q 585 610 544 610 q 620 594 605 610 q 635 561 635 578 q 633 534 635 543 l 513 65 l 513 62 q 530 47 513 47 q 625 119 557 47 q 636 130 633 127 l 649 117 q 594 58 636 92 q 533 10 553 23 q 466 -20 488 -20 q 428 -3 443 -20 q 412 30 412 13 q 414 57 412 47 l 535 526 l 535 529 q 529 539 535 535 q 514 544 524 544 q 483 527 505 543 q 433 486 460 511 q 374 431 405 461 q 316 370 344 400 q 233 276 250 299 q 213 233 217 253 l 165 7 q 93 -20 118 -20 q 68 0 68 -20 z "},"i":{"ha":378,"x_min":78,"x_max":388,"o":"m 315 551 l 214 62 q 230 47 214 47 q 326 119 257 47 q 336 130 333 127 l 349 117 q 295 58 337 93 q 233 11 253 24 q 164 -18 190 -18 q 126 0 139 -18 q 113 33 113 19 q 117 66 113 52 l 214 526 l 214 529 q 197 544 214 544 q 109 479 168 544 q 91 461 96 466 l 78 474 q 155 552 92 500 q 258 610 227 610 q 301 592 288 610 q 315 551 315 573 m 287 788 q 283 794 287 788 q 276 809 279 800 q 274 829 274 818 q 278 860 274 840 q 292 899 283 880 q 345 944 312 944 q 385 910 376 944 q 388 890 388 901 q 382 859 388 879 q 368 821 377 840 q 313 776 343 776 q 287 788 296 776 z "},"j":{"ha":391,"x_min":-197,"x_max":414,"o":"m 241 527 q 224 544 241 544 q 136 479 195 544 q 117 461 123 466 l 104 474 q 182 552 118 500 q 290 610 254 610 q 323 596 313 610 q 340 549 340 572 q 294 321 340 538 q 229 16 248 103 q 198 -111 211 -71 q 164 -195 184 -152 q 117 -281 144 -239 q 56 -358 90 -324 q -107 -433 -19 -433 q -165 -418 -145 -433 q -197 -374 -197 -393 q -161 -329 -197 -329 q -111 -349 -137 -329 q -70 -378 -85 -369 q -35 -387 -55 -387 q 2 -372 -16 -387 q 34 -332 20 -357 q 61 -274 49 -307 q 82 -208 73 -242 q 112 -89 111 -106 q 126 -14 113 -71 q 156 129 138 44 q 188 277 174 214 q 211 382 201 340 q 225 453 220 425 q 235 496 231 481 q 239 517 238 511 q 241 527 241 524 m 314 788 q 309 794 314 788 q 303 809 305 800 q 300 829 300 818 q 305 860 300 840 q 317 899 309 880 q 372 944 338 944 q 412 910 402 944 q 414 890 414 901 q 409 859 414 879 q 393 821 404 840 q 340 776 370 776 q 314 788 322 776 z "},"k":{"ha":687,"x_min":79,"x_max":677,"o":"m 256 404 q 265 395 256 395 q 307 425 269 395 q 375 480 345 456 q 439 530 406 505 q 501 574 471 554 q 592 618 568 618 q 632 606 617 618 q 656 575 646 593 q 677 504 677 540 q 659 433 677 467 q 604 372 641 399 q 367 309 519 309 q 358 305 362 309 q 353 297 353 301 q 359 285 353 293 q 379 255 364 277 q 412 208 394 233 q 452 157 431 183 q 495 111 473 132 q 579 64 545 64 q 617 84 600 64 q 643 115 635 105 q 659 124 650 124 q 667 113 667 124 q 618 58 667 109 q 561 2 568 7 q 545 -3 553 -3 q 470 26 509 -3 q 411 79 431 56 q 373 129 390 103 q 340 181 356 155 q 266 279 299 247 q 254 292 266 279 q 243 299 246 299 q 230 286 233 299 l 172 7 q 154 -1 163 4 q 136 -9 145 -5 q 98 -20 112 -20 q 79 3 79 -20 q 85 58 79 29 l 283 988 q 286 1006 286 995 q 271 1023 286 1023 q 230 1009 256 1023 q 193 991 203 995 l 184 1012 q 243 1044 214 1029 q 283 1064 272 1059 q 310 1079 294 1070 q 342 1097 326 1088 q 386 1116 377 1116 q 401 1094 401 1116 q 397 1073 401 1087 l 258 416 q 256 404 256 408 m 238 323 q 299 321 267 321 q 442 335 401 321 q 509 366 482 349 q 556 404 536 383 q 597 496 597 448 q 572 556 597 538 q 549 562 564 562 q 385 470 500 562 q 329 424 361 451 q 245 355 296 397 l 238 323 z "},"l":{"ha":379,"x_min":88,"x_max":406,"o":"m 189 63 q 205 48 189 48 q 301 120 233 48 q 312 131 309 127 l 325 118 q 248 40 311 92 q 139 -18 176 -18 q 103 -2 119 -18 q 88 31 88 14 q 90 58 88 48 l 290 988 q 292 1006 292 999 q 277 1023 292 1023 q 243 1013 264 1023 q 197 991 222 1002 l 189 1012 q 393 1116 380 1116 q 406 1100 406 1116 q 385 986 406 1084 q 333 746 363 888 q 280 499 303 604 q 242 321 258 394 q 216 199 227 248 q 200 124 206 151 q 192 85 195 98 q 189 66 190 72 l 189 63 z "},"m":{"ha":1053,"x_min":78,"x_max":1029,"o":"m 104 0 q 108 23 104 9 q 115 58 114 50 l 206 488 l 206 490 q 191 509 206 509 q 157 485 180 509 q 94 422 133 461 l 78 439 q 187 548 93 469 q 291 610 261 610 q 315 562 315 610 q 311 520 315 542 l 275 347 q 280 339 275 339 q 291 345 286 339 q 315 371 296 351 q 363 428 333 391 q 418 489 394 465 q 465 532 442 513 q 513 570 488 552 q 598 610 572 610 q 641 594 625 610 q 656 563 656 578 q 654 535 656 543 l 617 357 q 616 345 616 350 q 621 339 616 339 q 684 402 635 339 q 758 489 734 465 q 805 532 782 513 q 853 570 828 552 q 938 610 911 610 q 980 594 964 610 q 995 561 995 578 q 993 534 995 543 l 893 65 l 893 62 q 910 47 893 47 q 1006 119 937 47 q 1017 130 1013 127 l 1029 117 q 952 39 1016 91 q 844 -19 880 -19 q 808 -3 823 -19 q 793 30 793 13 q 795 57 793 47 l 895 526 l 895 529 q 878 544 895 544 q 809 499 852 544 q 673 349 722 409 q 659 332 667 342 q 640 311 650 321 q 615 280 623 290 q 601 261 608 269 q 590 233 594 253 l 541 7 q 469 -20 494 -20 q 444 0 444 -20 q 448 23 444 9 q 455 58 454 50 l 555 526 l 555 529 q 538 544 555 544 q 469 499 513 544 q 346 368 366 393 q 316 332 325 342 q 300 311 308 321 q 276 280 283 291 q 261 261 268 269 q 250 233 254 253 l 201 7 q 130 -20 155 -20 q 104 0 104 -20 z "},"n":{"ha":675,"x_min":75,"x_max":665,"o":"m 288 610 q 312 565 312 610 q 310 534 312 545 q 303 505 307 523 q 292 450 300 486 q 271 347 285 414 q 277 339 271 339 q 288 345 283 339 q 304 363 293 351 q 337 401 315 375 q 386 455 360 427 q 440 511 412 484 q 496 562 469 539 q 601 610 559 610 q 636 594 621 610 q 652 561 652 578 q 650 534 652 543 l 529 65 l 529 62 q 546 47 529 47 q 642 119 573 47 q 652 130 649 127 l 665 117 q 589 39 652 91 q 479 -19 516 -19 q 444 -3 459 -19 q 429 30 429 13 q 431 57 429 47 l 551 526 l 551 529 q 546 539 551 535 q 531 544 540 544 q 500 527 522 543 q 453 486 479 511 q 399 431 427 461 q 345 370 371 400 q 263 271 275 289 q 247 233 251 253 l 198 7 q 126 -20 151 -20 q 101 0 101 -20 q 104 23 101 9 q 112 58 111 50 l 203 488 l 203 490 q 187 509 203 509 q 153 485 177 509 q 91 422 130 461 l 75 439 q 183 548 90 469 q 288 610 258 610 z "},"o":{"ha":646,"x_min":105,"x_max":618,"o":"m 503 610 q 579 540 543 610 q 618 393 618 467 q 601 269 618 319 q 555 175 584 218 q 487 96 526 132 q 403 35 448 60 q 218 -18 310 -18 q 143 53 181 -18 q 105 188 105 125 q 122 305 105 250 q 167 406 138 359 q 235 490 196 452 q 317 555 273 528 q 503 610 410 610 m 232 359 q 226 339 232 359 q 213 276 220 319 q 207 204 207 234 q 212 146 207 174 q 230 92 218 118 q 310 32 259 32 q 463 150 402 32 q 516 380 516 255 q 479 522 516 463 q 420 560 454 560 q 358 544 387 560 q 306 500 329 528 q 263 436 282 473 q 232 359 245 399 z "},"p":{"ha":652,"x_min":-92,"x_max":629,"o":"m 476 50 q 458 34 476 50 q 393 0 439 18 q 297 -18 347 -18 q 199 7 247 -18 l 128 -330 q 125 -347 125 -340 q 156 -389 125 -378 q 245 -399 187 -399 l 240 -420 l -92 -420 l -87 -399 q 9 -361 -20 -399 q 49 -245 31 -331 l 205 488 l 205 490 q 189 509 205 509 q 155 485 179 509 q 93 422 132 461 l 77 439 q 188 548 92 468 q 293 610 263 610 q 311 605 301 610 q 320 588 320 599 q 309 522 320 569 l 290 435 q 289 429 289 433 q 296 417 289 417 q 315 425 307 417 q 341 449 324 432 q 380 487 359 466 q 425 529 401 507 q 472 570 449 551 q 548 610 524 610 q 589 590 573 610 q 614 541 605 570 q 629 437 629 494 q 619 325 629 380 q 590 219 609 269 q 542 125 570 168 q 476 50 513 81 m 495 229 q 504 252 495 229 q 524 327 513 275 q 534 411 534 378 q 533 463 534 444 q 526 497 532 481 q 476 535 513 535 q 400 476 440 517 q 333 407 361 436 q 271 345 304 377 l 222 114 q 220 91 220 103 q 223 64 220 79 q 236 38 227 50 q 292 9 258 9 q 353 26 326 9 q 405 72 379 43 q 454 142 431 102 q 495 229 477 182 z "},"q":{"ha":609,"x_min":64,"x_max":583,"o":"m 399 -357 q 473 -399 399 -400 q 499 -399 490 -398 l 494 -420 l 216 -420 l 220 -399 q 304 -349 297 -399 l 397 155 q 391 161 397 161 q 358 138 384 161 q 311 96 332 115 q 265 57 289 77 q 218 20 241 37 q 141 -18 165 -18 q 101 2 117 -18 q 78 50 86 22 q 64 142 64 98 q 172 412 64 282 q 422 585 273 534 q 572 610 495 610 q 583 591 583 610 l 399 -357 m 476 522 q 450 533 476 533 q 390 524 425 533 q 324 498 355 515 q 173 289 206 436 q 157 186 159 225 q 157 130 155 148 q 164 95 158 111 q 214 57 177 57 q 319 133 262 82 q 409 214 376 184 l 476 522 z "},"r":{"ha":454,"x_min":68,"x_max":488,"o":"m 443 501 l 410 507 q 324 464 368 507 q 250 338 266 406 q 236 277 243 308 l 178 7 q 159 -1 170 4 q 137 -9 149 -5 q 96 -20 109 -20 q 78 3 78 -20 q 92 81 78 14 q 123 227 106 147 q 152 358 140 307 q 169 438 163 410 q 178 479 174 466 q 181 498 181 495 q 173 509 181 509 q 146 496 159 509 l 89 440 q 83 437 85 437 q 68 451 68 437 q 99 493 68 465 q 150 539 130 522 q 179 565 169 556 q 198 581 189 574 q 217 595 207 589 q 257 611 242 611 q 279 564 279 608 l 271 472 q 281 458 271 458 q 307 486 286 458 q 339 528 328 514 q 364 557 351 542 q 392 583 377 572 q 460 611 427 611 q 486 579 479 611 q 488 562 488 570 q 443 501 488 503 z "},"s":{"ha":472,"x_min":21,"x_max":458,"o":"m 57 -1 q 49 3 57 -1 q 32 19 42 7 q 21 50 22 31 q 35 81 20 68 q 67 94 50 94 q 107 84 85 94 q 154 60 130 73 q 250 26 218 26 q 302 51 281 26 q 323 109 323 75 q 311 169 323 142 q 278 219 298 195 q 237 266 259 243 q 195 313 214 289 q 150 416 150 370 q 173 495 150 462 q 231 553 196 528 q 385 607 307 607 q 430 589 414 607 q 458 528 458 555 q 414 467 458 467 q 384 484 395 467 q 368 514 373 502 q 355 537 362 527 q 322 562 340 562 q 285 553 303 562 q 252 530 267 544 q 219 468 219 498 q 232 416 219 438 q 263 374 244 395 q 303 331 281 353 q 343 283 325 309 q 387 162 387 224 q 309 26 387 77 q 267 4 285 10 q 240 -5 249 -1 q 217 -11 231 -8 q 146 -18 184 -18 q 90 -14 109 -18 q 57 -1 71 -9 z "},"t":{"ha":393,"x_min":94,"x_max":427,"o":"m 154 -18 q 94 37 94 -18 q 96 60 94 48 l 201 553 q 202 564 202 559 q 192 574 202 574 l 161 574 q 144 586 144 574 q 154 602 144 599 q 170 607 163 606 q 187 612 177 608 q 213 628 197 616 q 246 657 229 641 q 279 692 262 674 q 309 728 295 711 q 355 781 346 772 q 378 770 370 778 q 364 737 373 756 q 347 699 355 718 q 323 628 326 650 l 323 625 q 339 610 323 610 l 427 610 l 420 574 l 321 574 q 298 550 303 574 l 204 109 q 199 86 201 95 q 197 73 198 78 q 196 66 196 68 l 196 64 q 211 48 196 48 q 269 80 237 48 l 344 155 l 353 145 q 277 54 344 116 q 154 -18 200 -18 z "},"u":{"ha":713,"x_min":81,"x_max":693,"o":"m 670 594 l 670 590 q 566 102 670 588 q 582 81 566 81 q 615 105 592 81 q 677 168 638 129 l 693 151 q 640 93 684 134 q 480 -18 520 -18 q 455 24 455 -18 q 460 70 455 45 l 510 298 q 504 305 510 305 q 493 299 498 305 q 478 282 488 294 q 449 251 467 270 q 413 211 431 231 q 349 139 361 154 q 322 108 336 123 q 294 76 309 93 q 261 42 278 59 q 227 12 243 25 q 165 -18 188 -18 q 130 0 142 -18 q 117 31 117 18 l 117 47 q 118 56 117 52 l 218 525 l 218 528 q 201 543 218 543 q 113 478 172 543 q 94 460 100 465 l 81 473 q 159 551 95 499 q 267 609 231 609 q 303 593 288 609 q 318 559 318 577 q 222 90 318 541 l 222 87 q 239 73 222 73 q 323 146 262 73 q 357 184 339 164 q 392 225 374 205 q 460 306 430 270 q 541 448 528 389 l 570 583 q 592 610 575 610 l 654 610 q 670 594 670 610 z "},"v":{"ha":608,"x_min":51,"x_max":622,"o":"m 213 77 q 233 50 213 50 q 349 144 267 50 q 459 303 427 234 q 511 450 492 359 q 517 488 517 477 q 512 504 517 499 q 500 514 507 508 q 484 544 484 530 q 490 571 484 559 q 505 591 496 583 q 545 610 526 610 q 576 602 564 610 q 598 581 588 594 q 622 524 622 548 q 618 483 622 499 q 609 450 614 467 q 546 334 590 393 q 464 229 503 275 q 381 139 425 184 q 298 59 338 94 q 165 -20 207 -20 q 117 65 117 -20 q 120 94 117 82 l 185 528 l 185 530 q 169 545 185 545 q 138 533 153 545 q 107 506 122 521 q 81 475 93 490 q 65 455 70 460 l 51 467 q 103 532 64 495 q 160 582 141 568 q 227 614 203 614 q 268 597 252 614 q 283 555 283 581 q 282 542 283 549 l 214 94 q 213 77 213 83 z "},"w":{"ha":960,"x_min":51,"x_max":974,"o":"m 561 77 q 581 51 561 51 q 694 145 609 51 q 811 304 781 240 q 864 451 844 360 q 869 489 869 478 q 864 504 869 500 q 853 515 859 509 q 836 545 836 530 q 842 572 836 559 q 857 593 848 584 q 897 611 878 611 q 928 603 916 611 q 950 581 940 595 q 974 524 974 549 q 970 484 974 500 q 961 450 966 467 q 898 334 942 392 q 813 230 853 275 q 728 140 772 184 q 642 60 684 95 q 507 -19 549 -19 q 458 66 458 -19 q 461 95 458 83 l 484 244 q 478 252 484 252 q 467 246 472 252 q 451 228 462 240 q 418 190 440 216 q 372 135 397 163 q 320 79 347 107 q 266 30 293 52 q 165 -20 206 -20 q 130 -4 145 -20 q 115 30 115 12 q 117 56 115 47 l 187 526 q 170 544 187 544 q 81 479 141 544 q 64 461 69 466 l 51 474 q 127 552 64 500 q 237 610 200 610 q 272 594 257 610 q 288 561 288 578 q 286 534 288 543 l 215 64 l 215 62 q 221 51 215 56 q 236 47 227 47 q 265 63 245 47 q 309 104 285 79 q 358 160 332 130 q 408 220 384 191 q 487 323 477 308 q 501 357 497 338 l 534 583 q 541 604 534 597 q 554 610 549 610 l 622 610 q 637 591 637 608 l 562 95 q 561 85 561 90 l 561 77 z "},"x":{"ha":747,"x_min":34,"x_max":747,"o":"m 60 -18 q 34 29 34 -11 q 65 140 34 81 q 82 157 74 157 q 93 150 90 157 q 97 134 96 144 q 101 114 99 125 q 109 93 104 102 q 144 71 119 71 q 227 118 189 71 l 350 275 l 262 505 q 216 532 252 532 q 153 483 186 532 q 137 460 144 471 q 111 435 121 435 q 100 443 100 435 q 108 466 100 450 q 129 499 116 481 q 159 538 142 518 q 196 574 176 557 q 277 610 241 610 q 315 600 298 610 q 339 574 333 589 l 420 363 q 436 381 423 363 q 468 425 448 399 q 512 483 487 452 q 566 541 538 514 q 682 602 631 602 q 747 530 747 602 q 740 479 747 494 q 725 465 732 465 q 710 475 717 465 q 696 498 704 486 q 638 530 673 530 q 533 452 600 530 q 472 377 498 410 q 433 329 446 343 l 526 89 q 561 61 536 61 q 596 79 583 61 q 617 110 610 97 q 631 133 625 122 q 659 158 647 158 q 663 138 663 151 q 649 98 663 125 q 614 45 635 71 q 515 -18 561 -18 q 450 13 462 -18 q 369 224 372 216 q 363 232 366 232 q 356 229 359 232 q 349 222 353 226 q 329 196 345 218 q 282 136 313 175 q 216 64 252 98 q 60 -18 132 -17 z "},"y":{"ha":673,"x_min":-14,"x_max":656,"o":"m 57 -392 q 65 -389 57 -392 q 91 -368 74 -385 q 140 -282 108 -351 q 186 -183 172 -214 q 212 -122 199 -153 q 269 96 269 22 q 259 292 269 236 q 217 483 228 458 q 197 519 205 509 q 178 531 189 530 q 141 496 165 529 q 85 434 94 434 q 77 437 81 434 q 73 450 73 441 q 87 480 73 460 q 120 521 102 500 q 157 559 139 542 q 178 582 174 576 q 188 591 182 587 q 201 600 194 595 q 231 610 219 610 q 262 597 255 610 q 360 126 360 429 q 373 93 360 102 l 426 186 q 540 421 505 321 q 553 476 553 458 q 549 503 553 494 q 541 518 546 511 q 530 548 530 536 q 534 570 530 559 q 547 590 538 581 q 587 610 564 610 q 623 604 610 610 q 643 586 635 597 q 656 532 656 565 q 640 462 656 498 q 597 381 623 425 q 538 287 571 336 q 474 190 506 238 q 370 22 393 68 q 317 -105 346 -31 q 245 -273 288 -180 l 220 -330 q 217 -337 218 -332 q 214 -347 216 -342 q 210 -369 210 -358 q 215 -387 210 -379 q 262 -399 224 -399 q 279 -398 268 -398 q 309 -399 290 -398 l 304 -420 l -14 -420 l -9 -399 q 57 -392 39 -399 z "},"z":{"ha":775,"x_min":42,"x_max":768,"o":"m 225 138 l 264 142 q 433 89 352 142 q 532 54 487 54 q 618 84 593 54 q 647 116 639 109 q 664 123 655 123 q 684 104 684 123 q 659 72 684 94 q 613 35 634 50 q 570 8 593 20 q 485 -20 516 -20 q 436 -15 454 -20 q 400 -1 418 -9 q 367 17 383 7 q 334 36 350 26 q 297 54 317 45 q 254 72 276 64 q 182 90 203 90 q 151 86 161 90 q 132 77 141 83 q 108 52 111 64 q 104 28 105 39 q 100 7 104 18 q 69 -20 94 -18 q 42 12 42 -20 q 166 165 42 68 q 517 385 311 279 q 587 428 560 407 q 614 454 614 449 q 595 465 614 465 l 553 462 q 387 500 471 462 q 254 539 302 539 q 212 514 235 539 q 178 478 189 489 q 162 467 168 467 q 150 473 157 467 q 143 488 143 480 q 154 510 143 496 q 181 537 164 524 q 218 563 197 551 q 258 586 238 576 q 330 608 303 608 q 387 601 357 608 q 443 583 416 593 q 492 559 469 572 q 540 535 516 546 q 627 510 593 510 q 675 522 661 510 q 697 546 690 534 q 706 569 705 558 q 709 589 707 579 q 737 610 714 610 q 758 603 748 610 q 768 587 768 595 q 764 570 768 579 q 754 551 760 560 q 667 448 720 492 q 572 375 614 404 q 495 325 531 345 q 422 286 458 305 q 301 216 326 235 q 264 189 275 196 q 243 174 254 182 q 214 146 214 153 q 225 138 214 138 z "},"{":{"ha":542,"x_min":81,"x_max":691,"o":"m 130 450 q 114 467 114 450 q 122 494 114 484 q 140 505 131 505 q 269 623 243 505 q 275 694 275 657 l 270 843 q 280 937 270 890 q 323 1025 290 983 q 401 1096 357 1067 q 669 1164 505 1164 q 691 1149 691 1164 q 684 1125 691 1135 q 667 1116 677 1116 q 608 1112 637 1116 q 542 1095 578 1108 q 477 1059 506 1081 q 399 936 415 1010 q 380 798 384 857 q 368 663 374 693 q 354 614 362 633 q 337 581 347 596 q 298 536 318 552 q 273 515 285 524 q 254 499 262 506 q 236 476 236 486 q 251 446 236 466 q 274 413 266 426 q 296 347 296 380 q 293 296 296 313 q 285 261 290 279 q 271 221 279 243 q 253 171 262 199 q 234 118 243 143 q 219 68 226 93 q 203 -32 203 9 q 218 -99 203 -72 q 254 -143 233 -125 q 348 -186 290 -172 q 402 -193 372 -193 q 409 -200 409 -193 q 408 -214 409 -208 q 405 -227 407 -220 q 392 -241 400 -241 l 370 -241 q 175 -197 258 -241 q 81 -44 81 -145 q 124 113 81 18 q 147 163 136 138 q 170 213 158 189 q 190 260 181 237 q 210 344 210 312 q 204 393 210 376 q 190 423 199 410 q 130 450 168 450 z "},"|":{"ha":394,"x_min":203,"x_max":292,"o":"m 203 1116 l 292 1116 l 292 -24 l 203 -24 l 203 1116 z "},"}":{"ha":581,"x_min":-51,"x_max":561,"o":"m 433 589 q 518 505 433 526 q 533 489 533 505 q 525 462 533 473 q 507 450 516 450 q 400 380 440 450 q 367 239 367 320 q 372 94 367 239 q 140 -216 372 -142 q -22 -241 60 -241 l -44 -241 q -51 -233 -51 -241 q -50 -218 -51 -224 q -46 -206 -48 -212 q -34 -193 -41 -193 q 23 -187 -3 -193 q 84 -168 50 -180 q 151 -133 119 -155 q 248 17 227 -80 q 269 180 262 85 q 280 295 275 274 q 292 333 284 315 q 309 366 300 351 q 342 410 326 395 q 372 436 359 426 q 393 454 384 446 q 410 479 410 469 q 396 506 410 488 q 373 536 382 524 q 351 601 351 567 q 354 654 351 635 q 364 693 358 673 q 377 731 370 712 q 396 787 384 751 q 426 873 409 823 q 442 964 442 924 q 431 1029 442 1005 q 401 1070 420 1053 q 247 1116 350 1116 q 233 1132 233 1116 q 263 1164 233 1164 q 408 1147 357 1164 q 490 1107 458 1131 q 561 970 561 1055 q 518 817 561 907 q 496 769 507 792 q 475 725 486 747 q 454 680 464 703 q 433 589 433 627 z "},"~":{"ha":609,"x_min":92,"x_max":680,"o":"m 680 530 q 635 373 680 432 q 529 316 591 316 q 464 330 494 316 q 401 368 435 345 q 343 406 367 391 q 304 429 320 420 q 256 441 277 441 q 222 435 235 441 q 198 415 209 429 q 172 319 174 384 l 92 319 q 137 476 92 417 q 243 532 180 532 q 309 524 284 532 q 429 454 357 507 q 451 439 439 448 q 475 425 463 431 q 521 408 503 408 q 553 414 539 408 q 576 435 566 420 q 600 530 600 467 l 680 530 z "},"":{"ha":390,"x_min":0,"x_max":0,"o":""},"":{"ha":429,"x_min":45,"x_max":353,"o":"m 226 540 q 245 600 235 585 q 309 630 267 630 q 351 579 342 630 q 353 553 353 566 q 346 527 353 541 q 328 502 339 513 q 277 478 306 478 q 226 540 226 478 m 163 -351 q 143 -373 160 -372 l 70 -370 q 54 -367 62 -369 q 45 -358 45 -365 q 46 -349 45 -352 l 233 355 l 273 355 l 163 -351 z "},"":{"ha":411,"x_min":52,"x_max":461,"o":"m 406 612 q 418 612 406 612 q 445 598 429 612 q 461 545 461 585 q 437 504 461 504 q 386 523 414 504 q 347 545 357 541 l 238 37 l 246 37 q 315 58 283 37 q 366 95 347 80 q 401 121 384 109 l 416 103 q 335 31 362 50 q 227 -15 283 -6 l 178 -244 l 137 -244 l 185 -18 q 52 130 52 -16 q 134 429 52 294 q 315 595 210 551 l 351 760 l 392 760 l 359 608 q 406 612 383 612 m 199 50 l 304 544 q 174 288 221 511 q 156 143 156 207 q 199 50 156 79 z "},"":{"ha":1008,"x_min":68,"x_max":1055,"o":"m 842 -11 q 845 -8 842 -11 q 856 -3 848 -6 q 873 0 864 -1 q 892 -4 882 0 q 913 -18 903 -8 q 934 -82 934 -39 q 915 -171 934 -126 q 863 -250 895 -216 q 692 -323 791 -323 q 538 -269 623 -323 q 474 -228 500 -245 q 429 -199 448 -210 q 396 -181 410 -188 q 368 -172 382 -175 q 311 -168 347 -168 q 259 -179 275 -168 q 229 -207 243 -190 q 200 -244 214 -224 q 172 -281 186 -264 q 114 -320 139 -320 q 78 -311 88 -320 q 68 -280 68 -301 q 80 -242 68 -258 q 111 -210 92 -225 q 202 -160 148 -182 q 254 -119 244 -135 q 354 94 302 -39 l 167 94 l 176 137 l 372 137 l 550 564 q 764 881 643 787 q 979 956 860 956 q 1051 916 1038 956 q 1055 891 1055 905 q 1042 865 1055 878 q 1011 852 1030 852 q 980 861 993 852 q 955 881 967 870 q 896 910 923 910 q 848 903 869 910 q 810 882 827 895 q 755 816 786 864 q 465 137 705 711 l 680 137 l 670 94 l 446 94 q 300 -133 384 -54 q 317 -132 309 -132 q 367 -132 326 -132 q 475 -148 407 -132 q 602 -205 544 -164 q 766 -267 688 -267 q 834 -235 802 -267 q 865 -179 865 -205 q 859 -136 865 -153 q 845 -104 852 -120 q 827 -47 827 -64 q 831 -23 827 -30 q 842 -11 835 -16 z "},"":{"ha":711,"x_min":35,"x_max":676,"o":"m 507 274 q 358 224 441 224 q 208 277 276 224 l 77 148 l 35 190 l 167 321 q 123 464 123 383 q 174 607 123 544 l 41 741 l 84 784 l 218 650 q 361 699 282 699 q 501 653 439 699 l 633 785 l 675 743 l 543 610 q 600 464 600 544 q 549 316 600 385 l 676 189 l 634 146 l 507 274 m 189 463 q 203 395 189 427 q 239 340 216 364 q 360 290 289 290 q 482 340 431 290 q 533 463 533 391 q 482 583 533 534 q 360 633 431 633 q 239 583 288 633 q 189 463 189 532 z "},"":{"ha":1006,"x_min":170,"x_max":1108,"o":"m 254 18 q 268 27 254 27 l 309 27 q 394 64 357 27 q 425 117 421 90 l 444 207 l 261 207 q 247 220 247 207 l 250 241 q 265 257 254 257 l 454 257 q 474 369 462 292 l 296 369 q 281 382 281 369 l 285 403 q 300 420 288 420 l 458 420 q 405 544 435 473 q 265 863 279 839 q 239 900 251 887 q 192 928 213 928 q 170 937 170 928 l 170 946 q 183 956 170 954 l 482 956 q 495 946 495 956 l 495 937 q 484 928 495 928 l 458 928 q 410 901 425 928 q 404 875 404 890 q 419 824 404 859 q 453 748 435 789 q 488 665 471 707 q 551 517 534 557 q 571 473 569 478 q 575 463 573 468 q 587 452 581 452 q 612 469 597 452 q 638 502 626 487 q 662 529 651 516 q 680 551 673 542 q 719 596 688 559 q 803 697 750 633 q 887 797 857 762 q 922 846 917 832 q 926 878 926 859 q 913 912 926 896 q 872 928 899 928 l 847 928 q 833 938 833 928 l 833 947 q 847 956 833 956 l 1098 956 q 1105 953 1103 956 q 1108 948 1108 950 l 1108 939 q 1104 930 1108 932 q 1093 926 1100 928 q 1058 914 1069 921 q 1034 893 1047 907 q 1006 865 1020 880 q 931 778 987 844 q 792 613 876 711 q 629 420 709 514 l 810 420 q 824 406 824 420 l 820 386 q 806 369 817 369 l 595 369 q 584 313 590 340 q 572 257 578 286 l 774 257 q 789 243 789 257 l 785 223 q 770 207 781 207 l 562 207 l 547 136 q 544 109 544 120 q 574 49 544 71 q 659 27 604 27 l 690 27 q 703 18 703 27 l 703 9 q 692 0 703 0 l 268 0 q 254 10 254 0 l 254 18 z "},"":{"ha":387,"x_min":203,"x_max":286,"o":"m 286 1116 l 286 607 l 203 607 l 203 1116 l 286 1116 m 286 486 l 286 -24 l 203 -24 l 203 486 l 286 486 z "},"":{"ha":699,"x_min":-51,"x_max":774,"o":"m 388 974 q 343 882 343 925 q 376 751 343 809 q 438 623 391 709 q 510 485 484 537 q 557 374 536 432 q 606 140 606 241 q 577 -45 606 39 q 491 -199 549 -129 q 127 -387 363 -355 q 26 -366 68 -387 q -33 -325 -15 -345 q -51 -287 -51 -304 q -47 -261 -51 -270 q -35 -244 -44 -252 q 16 -226 -13 -226 q 56 -234 44 -226 q 78 -255 67 -242 q 99 -281 88 -267 q 123 -308 109 -296 q 186 -337 154 -337 q 251 -327 219 -337 q 312 -296 283 -316 q 380 -186 380 -250 q 366 -104 380 -140 q 328 -17 352 -69 q 261 115 303 36 q 186 266 219 194 q 115 555 115 426 q 174 793 115 674 q 452 1057 271 990 q 563 1080 515 1080 q 643 1073 611 1080 q 704 1054 675 1067 q 774 970 774 1022 q 732 924 774 939 q 697 919 717 919 q 667 927 678 919 q 645 948 656 935 q 624 975 635 960 q 600 1001 613 989 q 539 1030 570 1030 q 492 1027 508 1030 q 461 1017 476 1024 q 388 974 439 1008 m 287 881 q 179 593 179 735 q 259 289 179 475 q 337 119 293 210 q 394 -2 380 28 q 413 -53 407 -33 q 424 -95 419 -73 q 436 -188 433 -139 q 534 38 514 -110 q 540 124 540 81 q 528 219 540 167 q 496 324 515 271 q 452 430 476 377 q 403 532 427 482 q 327 698 337 669 q 310 748 317 726 q 298 792 304 769 q 287 881 287 847 z "},"":{"ha":504,"x_min":176,"x_max":555,"o":"m 555 853 q 536 806 555 825 q 495 787 517 787 q 461 792 473 787 q 439 806 448 797 q 420 853 420 825 q 461 916 420 899 q 495 922 473 922 q 536 902 517 922 q 555 853 555 882 m 311 853 q 311 839 311 853 q 292 806 311 825 q 251 787 273 787 q 217 792 229 787 q 195 806 205 797 q 176 853 176 825 q 217 916 176 898 q 243 922 229 922 q 286 907 272 922 q 311 853 311 882 z "},"":{"ha":1164,"x_min":61,"x_max":1093,"o":"m 61 490 q 132 751 61 631 q 317 936 200 867 q 577 1006 437 1006 q 838 936 718 1006 q 1023 751 954 867 q 1093 490 1093 631 q 1023 230 1093 350 q 838 45 954 113 q 577 -26 718 -26 q 317 45 437 -26 q 132 230 200 113 q 61 490 61 350 m 142 610 q 126 491 126 553 q 142 371 126 429 q 188 263 159 313 q 258 172 217 214 q 349 102 299 131 q 576 40 456 40 q 895 172 763 40 q 1011 371 979 256 q 1027 491 1027 429 q 1011 610 1027 553 q 966 718 995 668 q 895 809 937 768 q 804 880 854 850 q 576 941 699 941 q 349 880 456 941 q 142 610 193 789 m 792 205 q 783 203 791 201 q 762 205 774 205 q 729 201 750 205 q 684 191 708 196 q 568 176 618 176 q 456 198 519 176 q 346 263 393 221 q 243 496 243 353 q 345 739 243 643 q 591 832 444 832 q 706 818 650 832 q 776 798 762 804 q 795 792 790 792 q 809 795 795 792 l 823 795 q 828 788 828 795 l 828 650 q 822 646 828 646 q 810 648 812 646 q 800 669 805 658 q 598 802 732 802 q 406 722 475 802 q 339 522 339 645 q 412 301 339 390 q 620 207 490 207 q 841 353 753 207 q 846 355 842 355 l 852 355 q 857 349 857 355 q 854 340 857 345 l 792 205 z "},"":{"ha":378,"x_min":43,"x_max":371,"o":"m 246 464 q 247 468 246 464 q 250 479 248 472 q 252 492 251 485 q 249 499 252 499 q 228 486 244 499 q 198 461 211 472 q 169 437 184 449 q 139 415 154 425 q 91 392 106 392 q 66 404 76 392 q 51 433 56 416 q 43 488 43 461 q 110 650 43 573 q 269 754 175 723 q 364 769 315 769 q 371 758 371 769 l 306 476 q 305 470 306 473 q 305 459 305 464 q 308 449 305 454 q 316 444 311 444 q 326 449 320 444 q 338 459 332 453 q 361 474 356 474 q 367 466 367 474 q 321 425 367 459 q 263 390 275 390 q 244 407 250 390 q 242 427 242 416 q 243 448 242 438 q 246 464 244 457 m 302 716 q 286 723 302 723 q 248 717 270 723 q 206 701 226 712 q 111 576 132 664 q 101 515 102 538 q 101 481 100 492 q 105 460 102 470 q 137 437 114 437 q 203 483 167 452 q 260 531 239 513 l 302 716 z "},"":{"ha":551,"x_min":68,"x_max":557,"o":"m 353 629 l 163 374 l 249 121 l 216 121 l 68 374 l 321 629 l 353 629 m 557 629 l 368 374 l 454 121 l 420 121 l 273 374 l 526 629 l 557 629 z "},"":{"ha":783,"x_min":180,"x_max":766,"o":"m 766 467 l 766 123 l 680 123 l 680 381 l 180 381 l 180 467 l 766 467 z "},"":{"ha":619,"x_min":85,"x_max":584,"o":"m 584 393 l 562 290 l 85 290 l 106 393 l 584 393 z "},"":{"ha":1154,"x_min":61,"x_max":1093,"o":"m 61 490 q 132 751 61 631 q 317 936 200 867 q 577 1006 437 1006 q 838 936 718 1006 q 1023 751 954 867 q 1093 490 1093 631 q 1023 230 1093 350 q 838 45 954 113 q 577 -26 718 -26 q 317 45 437 -26 q 132 230 200 113 q 61 490 61 350 m 142 610 q 126 491 126 553 q 142 371 126 429 q 188 263 159 313 q 258 172 217 214 q 349 102 299 131 q 576 40 456 40 q 895 172 763 40 q 1011 371 979 256 q 1027 491 1027 429 q 1011 610 1027 553 q 966 718 995 668 q 895 809 937 768 q 804 880 854 850 q 576 941 699 941 q 349 880 456 941 q 142 610 193 789 m 309 217 q 305 225 305 217 l 305 230 q 309 233 305 233 l 345 239 q 387 286 387 248 l 387 716 q 358 766 387 750 q 323 774 342 774 l 307 774 q 304 778 304 774 l 304 787 q 309 791 304 791 l 352 792 q 442 795 397 793 q 532 797 487 797 l 573 797 q 693 745 646 791 q 743 627 743 697 q 646 498 743 543 q 690 427 652 492 q 734 354 729 362 q 745 336 739 347 q 759 315 752 326 q 776 288 766 304 q 807 253 786 272 q 844 228 829 233 q 860 220 859 222 q 860 217 860 219 q 846 207 860 207 q 726 250 789 207 q 677 311 707 272 l 573 475 q 571 476 572 476 l 475 481 l 472 481 q 466 475 466 481 l 466 288 q 478 254 466 266 q 509 240 490 243 q 539 236 527 238 q 557 233 551 233 q 562 230 562 233 l 562 220 q 559 217 562 217 l 309 217 m 507 776 q 466 768 466 776 l 466 522 q 468 504 467 507 q 480 499 469 500 q 524 498 490 498 q 584 508 557 498 q 629 536 612 517 q 661 637 661 569 q 620 740 661 703 q 507 776 581 776 z "},"":{"ha":518,"x_min":166,"x_max":610,"o":"m 184 886 l 610 886 l 591 819 l 166 819 l 184 886 z "},"":{"ha":446,"x_min":176,"x_max":487,"o":"m 226 779 q 257 704 226 735 q 332 673 288 673 q 406 704 375 673 q 437 779 437 735 q 406 853 437 822 q 332 884 376 884 q 257 853 288 884 q 226 779 226 822 m 176 780 q 222 890 176 844 q 332 935 267 935 q 441 890 396 935 q 487 780 487 844 q 441 670 487 716 q 332 624 397 624 q 222 670 267 624 q 176 780 176 716 z "},"":{"ha":788,"x_min":180,"x_max":771,"o":"m 180 467 l 431 467 l 431 716 l 523 716 l 523 467 l 771 467 l 771 381 l 523 381 l 523 125 l 431 125 l 431 381 l 180 381 l 180 467 m 180 86 l 771 86 l 771 0 l 180 0 l 180 86 z "},"":{"ha":448,"x_min":-7,"x_max":448,"o":"m 349 374 l -7 374 q -7 380 -7 374 q 19 417 -7 393 q 85 472 45 441 q 164 533 124 503 q 240 594 203 564 q 306 656 277 625 q 369 783 369 726 q 342 854 369 824 q 273 886 315 886 q 188 862 220 886 q 142 824 155 838 q 122 797 129 809 q 111 777 115 785 q 104 768 107 769 q 92 764 99 764 q 85 768 85 764 q 120 833 96 801 q 171 887 143 865 q 309 935 231 935 q 439 861 408 935 q 448 806 448 838 q 434 743 448 774 q 392 684 419 712 q 237 563 351 641 q 124 476 178 521 q 69 429 69 431 l 310 429 q 353 442 341 429 q 388 498 367 456 l 404 498 l 362 388 q 349 374 357 378 z "},"":{"ha":448,"x_min":39,"x_max":448,"o":"m 165 806 q 150 812 149 806 q 151 814 150 813 q 290 926 201 895 q 353 935 315 935 q 419 915 391 935 q 448 869 448 895 q 443 826 448 842 q 427 796 437 810 q 345 726 399 758 q 324 713 324 714 q 339 713 336 713 l 343 713 q 420 677 391 713 q 446 608 446 646 q 434 541 446 571 q 400 483 421 510 q 352 434 380 456 q 296 397 325 412 q 180 363 233 363 q 56 394 93 363 q 39 428 41 407 q 81 455 45 455 q 101 445 90 455 q 127 422 112 435 q 207 389 167 389 q 326 458 275 394 q 373 585 373 519 q 321 665 373 648 q 296 669 307 669 q 278 668 286 669 q 262 663 270 666 q 237 653 245 659 q 225 648 229 648 q 221 653 221 648 q 224 661 221 658 q 232 667 228 664 q 241 673 237 670 q 257 682 245 675 q 293 705 269 689 q 336 741 317 721 q 380 827 380 785 q 365 867 380 853 q 310 890 338 890 q 258 881 281 890 q 217 857 235 871 q 165 806 196 842 z "},"":{"ha":475,"x_min":114,"x_max":361,"o":"m 117 743 q 114 747 114 746 q 117 751 114 749 l 261 951 q 309 985 286 985 q 347 969 333 985 q 361 934 361 954 q 323 871 361 903 l 141 724 q 136 722 138 722 q 132 724 134 722 l 117 743 z "},"":{"ha":699,"x_min":-28,"x_max":688,"o":"m 462 65 q 458 64 462 65 q 415 43 454 63 q 359 13 377 22 q 326 -2 340 4 q 296 -12 311 -8 q 233 -18 271 -18 q 152 -9 195 -18 l 68 -404 q -10 -434 12 -434 q -28 -412 -28 -434 q -20 -366 -28 -400 q 13 -208 -1 -278 l 184 596 q 188 608 186 606 q 195 610 189 610 l 276 610 q 283 607 283 610 q 281 596 283 603 l 187 156 q 186 146 186 151 l 186 138 q 225 69 186 93 q 309 50 258 50 q 494 130 409 50 l 590 583 q 592 590 591 585 q 595 600 593 595 q 612 610 602 610 l 673 610 q 688 591 688 608 l 591 134 q 589 117 589 124 q 641 78 589 78 l 681 81 q 684 75 684 81 q 670 60 684 66 l 474 -14 q 461 -18 466 -18 q 456 -13 456 -18 q 471 63 456 -8 q 462 65 471 66 z "},"":{"ha":740,"x_min":136,"x_max":859,"o":"m 427 -166 l 682 1064 l 569 1064 l 316 -151 q 311 -168 313 -163 q 300 -173 308 -173 l 262 -173 q 255 -164 255 -173 q 414 602 255 -155 q 299 613 332 606 q 237 632 266 621 q 185 663 208 644 q 136 783 136 706 q 155 916 136 861 q 211 1008 175 971 q 298 1067 248 1045 q 412 1099 349 1088 q 699 1116 506 1116 l 843 1116 q 859 1108 859 1116 q 858 1103 859 1107 q 854 1086 857 1099 q 847 1070 851 1072 q 832 1067 844 1067 l 742 1067 l 486 -161 q 472 -173 484 -173 l 435 -173 q 427 -166 427 -173 z "},"":{"ha":441,"x_min":217,"x_max":393,"o":"m 250 390 q 241 399 250 390 q 224 425 231 408 q 217 459 217 441 q 224 493 217 477 q 243 522 231 509 q 305 548 269 548 q 368 522 341 548 q 393 468 393 496 q 387 425 393 441 q 368 397 380 408 q 305 372 341 372 q 250 390 269 372 z "},"":{"ha":508,"x_min":61,"x_max":315,"o":"m 99 -361 q 61 -334 61 -361 q 68 -324 61 -331 q 85 -315 75 -317 q 194 -289 179 -297 q 220 -271 210 -281 q 243 -225 243 -248 q 234 -190 243 -203 q 214 -167 226 -176 q 161 -146 191 -149 l 191 -9 l 234 -9 l 213 -104 q 309 -178 289 -125 q 315 -220 315 -193 q 296 -274 315 -246 q 245 -319 276 -301 q 99 -361 190 -351 z "},"":{"ha":448,"x_min":97,"x_max":387,"o":"m 310 863 q 180 793 202 797 q 176 799 178 793 q 187 811 176 805 q 219 831 198 817 q 263 862 240 845 q 355 935 318 901 l 379 935 q 387 932 387 935 q 386 928 387 929 l 279 440 q 275 411 275 428 q 359 391 275 391 q 362 389 362 391 l 359 378 q 356 374 359 374 l 99 374 q 97 382 96 374 q 102 391 98 391 q 167 394 145 393 q 198 399 189 395 q 216 430 210 405 l 310 863 z "},"":{"ha":404,"x_min":66,"x_max":389,"o":"m 316 769 q 364 727 341 769 q 389 639 389 683 q 378 564 389 594 q 349 508 367 534 q 306 460 331 482 q 253 424 281 439 q 136 392 195 392 q 89 435 113 392 q 66 516 66 478 q 76 586 66 553 q 105 646 86 618 q 147 697 123 674 q 199 736 172 720 q 316 769 258 769 m 146 618 q 142 606 146 618 q 134 569 138 594 q 130 525 130 543 q 133 491 130 507 q 144 458 136 474 q 195 422 163 422 q 291 493 253 422 q 324 631 324 556 q 301 716 324 681 q 264 739 286 739 q 225 729 243 739 q 192 703 207 719 q 165 664 177 686 q 146 618 154 642 z "},"":{"ha":629,"x_min":85,"x_max":575,"o":"m 428 629 l 575 374 l 323 121 l 290 121 l 479 374 l 396 629 l 428 629 m 223 629 l 370 374 l 118 121 l 85 121 l 275 374 l 191 629 l 223 629 z "},"":{"ha":1153,"x_min":182,"x_max":1246,"o":"m 1158 1016 l 1246 1016 l 291 -37 l 203 -37 l 1158 1016 m 395 863 q 265 793 287 797 q 261 799 262 793 q 272 811 260 805 q 304 831 283 817 q 348 862 325 845 q 440 935 403 901 l 464 935 q 471 932 471 935 q 471 928 471 929 l 364 440 q 360 411 360 428 q 444 391 360 391 q 447 389 447 391 l 444 378 q 441 374 444 374 l 184 374 q 182 382 180 374 q 187 391 183 391 q 252 394 230 393 q 283 399 274 395 q 300 430 294 405 l 395 863 m 977 -10 q 1013 158 1013 155 q 997 160 1013 160 l 785 160 q 776 165 776 160 q 780 177 776 173 l 1128 551 q 1145 559 1137 559 q 1162 553 1162 559 l 1086 208 q 1094 205 1086 205 l 1165 205 q 1177 199 1177 205 l 1171 170 q 1160 160 1168 160 l 1082 160 q 1077 159 1078 160 q 1074 152 1076 157 l 1039 -7 q 1030 -16 1039 -16 l 984 -16 q 977 -10 977 -16 m 1015 205 q 1025 213 1022 205 q 1046 309 1038 270 q 1061 374 1055 349 q 1069 414 1066 400 q 1074 435 1073 428 q 1076 444 1076 442 q 1076 446 1076 446 q 1068 454 1076 454 q 1054 446 1062 454 l 842 216 q 836 208 836 210 q 849 205 836 205 l 1015 205 z "},"":{"ha":1153,"x_min":182,"x_max":1246,"o":"m 1158 1016 l 1246 1016 l 291 -37 l 203 -37 l 1158 1016 m 395 863 q 265 793 287 797 q 261 799 262 793 q 272 811 260 805 q 304 831 283 817 q 348 862 325 845 q 440 935 403 901 l 464 935 q 471 932 471 935 q 471 928 471 929 l 364 440 q 360 411 360 428 q 444 391 360 391 q 447 389 447 391 l 444 378 q 441 374 444 374 l 184 374 q 182 382 180 374 q 187 391 183 391 q 252 394 230 393 q 283 399 274 395 q 300 430 294 405 l 395 863 m 1109 1 l 753 1 q 752 6 752 1 q 779 43 752 20 q 844 98 805 67 q 923 159 884 129 q 1000 221 963 190 q 1065 283 1037 252 q 1128 409 1128 352 q 1101 481 1128 450 q 1032 512 1074 512 q 947 488 980 512 q 901 450 914 465 q 881 424 888 435 q 870 404 874 412 q 864 394 867 395 q 852 391 859 391 q 845 394 845 391 q 879 459 856 427 q 930 513 903 491 q 1068 562 990 562 q 1198 488 1167 562 q 1208 432 1208 465 q 1193 369 1208 400 q 1152 310 1179 338 q 996 189 1111 267 q 883 102 938 147 q 829 56 829 58 l 1069 56 q 1113 68 1101 56 q 1147 124 1126 82 l 1164 124 l 1122 14 q 1109 1 1117 5 z "},"":{"ha":1153,"x_min":134,"x_max":1246,"o":"m 1158 1016 l 1246 1016 l 291 -37 l 203 -37 l 1158 1016 m 260 806 q 245 812 243 806 q 245 814 245 813 q 385 926 296 895 q 448 935 410 935 q 514 915 486 935 q 543 869 543 895 q 537 826 543 842 q 522 796 532 810 q 440 726 494 758 q 419 713 419 714 q 434 713 431 713 l 438 713 q 515 677 486 713 q 541 608 541 646 q 529 541 541 571 q 495 483 516 510 q 447 434 475 456 q 391 397 420 412 q 275 363 328 363 q 151 394 188 363 q 134 428 136 407 q 176 455 140 455 q 196 445 184 455 q 222 422 207 435 q 302 389 262 389 q 420 458 370 394 q 468 585 468 519 q 416 665 468 648 q 391 669 401 669 q 373 668 380 669 q 357 663 365 666 q 332 653 340 659 q 320 648 323 648 q 316 653 316 648 q 319 661 316 658 q 327 667 323 664 q 336 673 332 670 q 352 682 340 675 q 388 705 364 689 q 431 741 412 721 q 475 827 475 785 q 460 867 475 853 q 405 890 433 890 q 353 881 376 890 q 312 857 330 871 q 260 806 291 842 m 977 -10 q 1013 158 1013 155 q 997 160 1013 160 l 785 160 q 776 165 776 160 q 780 177 776 173 l 1128 551 q 1145 559 1137 559 q 1162 553 1162 559 l 1086 208 q 1094 205 1086 205 l 1165 205 q 1177 199 1177 205 l 1171 170 q 1160 160 1168 160 l 1082 160 q 1077 159 1078 160 q 1074 152 1076 157 l 1039 -7 q 1030 -16 1039 -16 l 984 -16 q 977 -10 977 -16 m 1015 205 q 1025 213 1022 205 q 1046 309 1038 270 q 1061 374 1055 349 q 1069 414 1066 400 q 1074 435 1073 428 q 1076 444 1076 442 q 1076 446 1076 446 q 1068 454 1076 454 q 1054 446 1062 454 l 842 216 q 836 208 836 210 q 849 205 836 205 l 1015 205 z "},"":{"ha":588,"x_min":94,"x_max":541,"o":"m 391 -224 q 420 -274 420 -224 q 344 -350 420 -342 q 288 -352 322 -352 q 216 -334 254 -352 q 151 -284 178 -315 q 95 -138 95 -219 q 114 -12 95 -56 q 168 64 134 33 q 247 123 201 96 q 345 185 292 150 q 417 331 391 217 q 429 376 422 357 l 456 376 q 402 119 456 190 q 288 23 360 63 q 171 -61 195 -28 q 146 -130 146 -94 q 160 -187 146 -165 q 195 -223 174 -209 q 291 -251 236 -251 q 333 -241 311 -251 q 391 -224 374 -224 m 414 540 q 433 600 423 585 q 497 630 455 630 q 538 579 530 630 q 541 553 541 566 q 534 527 541 541 q 516 502 527 513 q 465 478 494 478 q 414 540 414 478 z "},"":{"ha":1057,"x_min":-14,"x_max":1006,"o":"m -14 8 q 1 27 -14 27 l 16 27 q 55 37 41 27 q 102 91 68 47 q 197 214 136 136 q 319 373 258 293 q 441 532 380 453 q 558 685 502 612 q 663 822 614 758 q 734 915 712 886 q 767 952 757 944 q 793 961 778 961 l 811 961 q 836 950 831 961 q 842 924 842 940 l 862 102 q 932 31 864 45 q 967 27 950 27 l 997 27 q 1006 17 1006 27 l 1006 9 q 996 0 1006 0 l 575 0 q 566 7 566 0 l 566 20 q 583 27 566 27 q 618 28 600 27 q 650 33 637 30 q 713 60 699 41 q 734 98 728 80 q 742 171 742 123 l 737 366 l 737 378 q 701 408 737 408 l 429 408 q 385 385 401 408 q 314 293 350 338 q 257 219 279 248 q 227 178 235 190 q 210 153 218 165 q 193 94 193 123 q 219 46 193 65 q 286 27 244 27 l 319 27 q 328 20 328 27 q 321 1 325 3 q 311 0 317 0 l -1 0 q -14 8 -14 0 m 734 493 l 727 797 q 720 815 727 815 q 700 797 713 814 q 660 743 687 779 q 600 666 633 707 q 498 533 528 574 q 464 489 467 493 q 457 479 460 484 q 448 463 448 467 q 452 459 448 459 l 702 459 q 726 468 717 459 q 734 493 734 477 m 799 1061 q 794 1059 796 1059 q 789 1061 792 1059 l 607 1208 q 570 1266 570 1240 q 584 1307 570 1292 q 614 1322 597 1322 q 669 1289 645 1322 l 814 1089 q 817 1085 817 1086 q 814 1081 817 1084 l 799 1061 z "},"":{"ha":1107,"x_min":-14,"x_max":1057,"o":"m -14 8 q 1 27 -14 27 l 16 27 q 55 37 41 27 q 102 91 68 47 q 197 214 136 136 q 319 373 258 293 q 441 532 380 453 q 558 685 502 612 q 663 822 614 758 q 734 915 712 886 q 767 952 757 944 q 793 961 778 961 l 811 961 q 836 950 831 961 q 842 924 842 940 l 862 102 q 932 31 864 45 q 967 27 950 27 l 997 27 q 1006 17 1006 27 l 1006 9 q 996 0 1006 0 l 575 0 q 566 7 566 0 l 566 20 q 583 27 566 27 q 618 28 600 27 q 650 33 637 30 q 713 60 699 41 q 734 98 728 80 q 742 171 742 123 l 737 366 l 737 378 q 701 408 737 408 l 429 408 q 385 385 401 408 q 314 293 350 338 q 257 219 279 248 q 227 178 235 190 q 210 153 218 165 q 193 94 193 123 q 219 46 193 65 q 286 27 244 27 l 319 27 q 328 20 328 27 q 321 1 325 3 q 311 0 317 0 l -1 0 q -14 8 -14 0 m 734 493 l 727 797 q 720 815 727 815 q 700 797 713 814 q 660 743 687 779 q 600 666 633 707 q 498 533 528 574 q 464 489 467 493 q 457 479 460 484 q 448 463 448 467 q 452 459 448 459 l 702 459 q 726 468 717 459 q 734 493 734 477 m 812 1081 q 810 1085 810 1084 q 812 1089 810 1086 l 957 1289 q 1005 1322 981 1322 q 1043 1307 1029 1322 q 1057 1272 1057 1292 q 1019 1208 1057 1240 l 837 1061 q 831 1059 833 1059 q 827 1061 829 1059 l 812 1081 z "},"":{"ha":1057,"x_min":-14,"x_max":1006,"o":"m -14 8 q 1 27 -14 27 l 16 27 q 55 37 41 27 q 102 91 68 47 q 197 214 136 136 q 319 373 258 293 q 441 532 380 453 q 558 685 502 612 q 663 822 614 758 q 734 915 712 886 q 767 952 757 944 q 793 961 778 961 l 811 961 q 836 950 831 961 q 842 924 842 940 l 862 102 q 932 31 864 45 q 967 27 950 27 l 997 27 q 1006 17 1006 27 l 1006 9 q 996 0 1006 0 l 575 0 q 566 7 566 0 l 566 20 q 583 27 566 27 q 618 28 600 27 q 650 33 637 30 q 713 60 699 41 q 734 98 728 80 q 742 171 742 123 l 737 366 l 737 378 q 701 408 737 408 l 429 408 q 385 385 401 408 q 314 293 350 338 q 257 219 279 248 q 227 178 235 190 q 210 153 218 165 q 193 94 193 123 q 219 46 193 65 q 286 27 244 27 l 319 27 q 328 20 328 27 q 321 1 325 3 q 311 0 317 0 l -1 0 q -14 8 -14 0 m 734 493 l 727 797 q 720 815 727 815 q 700 797 713 814 q 660 743 687 779 q 600 666 633 707 q 498 533 528 574 q 464 489 467 493 q 457 479 460 484 q 448 463 448 467 q 452 459 448 459 l 702 459 q 726 468 717 459 q 734 493 734 477 m 683 1059 l 649 1059 l 839 1321 l 911 1321 l 911 1058 l 877 1058 l 847 1225 l 683 1059 z "},"":{"ha":1057,"x_min":-14,"x_max":1006,"o":"m -14 8 q 1 27 -14 27 l 16 27 q 55 37 41 27 q 102 91 68 47 q 197 214 136 136 q 319 373 258 293 q 441 532 380 453 q 558 685 502 612 q 663 822 614 758 q 734 915 712 886 q 767 952 757 944 q 793 961 778 961 l 811 961 q 836 950 831 961 q 842 924 842 940 l 862 102 q 932 31 864 45 q 967 27 950 27 l 997 27 q 1006 17 1006 27 l 1006 9 q 996 0 1006 0 l 575 0 q 566 7 566 0 l 566 20 q 583 27 566 27 q 618 28 600 27 q 650 33 637 30 q 713 60 699 41 q 734 98 728 80 q 742 171 742 123 l 737 366 l 737 378 q 701 408 737 408 l 429 408 q 385 385 401 408 q 314 293 350 338 q 257 219 279 248 q 227 178 235 190 q 210 153 218 165 q 193 94 193 123 q 219 46 193 65 q 286 27 244 27 l 319 27 q 328 20 328 27 q 321 1 325 3 q 311 0 317 0 l -1 0 q -14 8 -14 0 m 734 493 l 727 797 q 720 815 727 815 q 700 797 713 814 q 660 743 687 779 q 600 666 633 707 q 498 533 528 574 q 464 489 467 493 q 457 479 460 484 q 448 463 448 467 q 452 459 448 459 l 702 459 q 726 468 717 459 q 734 493 734 477 m 933 1248 q 937 1254 933 1248 q 943 1274 940 1260 q 946 1298 946 1288 q 957 1308 946 1308 l 970 1308 q 979 1282 979 1308 q 972 1236 979 1257 q 950 1198 964 1214 q 869 1160 918 1160 q 786 1184 831 1160 q 715 1219 741 1208 q 672 1230 690 1230 q 644 1222 654 1230 q 625 1202 633 1215 q 604 1142 604 1174 q 593 1134 604 1134 l 579 1134 q 574 1155 574 1134 q 581 1203 574 1176 q 602 1249 589 1230 q 680 1290 631 1290 q 766 1265 717 1290 q 843 1230 816 1241 q 889 1219 869 1219 q 918 1227 908 1219 q 933 1248 927 1236 z "},"":{"ha":1057,"x_min":-14,"x_max":1006,"o":"m -14 8 q 1 27 -14 27 l 16 27 q 55 37 41 27 q 102 91 68 47 q 197 214 136 136 q 319 373 258 293 q 441 532 380 453 q 558 685 502 612 q 663 822 614 758 q 734 915 712 886 q 767 952 757 944 q 793 961 778 961 l 811 961 q 836 950 831 961 q 842 924 842 940 l 862 102 q 932 31 864 45 q 967 27 950 27 l 997 27 q 1006 17 1006 27 l 1006 9 q 996 0 1006 0 l 575 0 q 566 7 566 0 l 566 20 q 583 27 566 27 q 618 28 600 27 q 650 33 637 30 q 713 60 699 41 q 734 98 728 80 q 742 171 742 123 l 737 366 l 737 378 q 701 408 737 408 l 429 408 q 385 385 401 408 q 314 293 350 338 q 257 219 279 248 q 227 178 235 190 q 210 153 218 165 q 193 94 193 123 q 219 46 193 65 q 286 27 244 27 l 319 27 q 328 20 328 27 q 321 1 325 3 q 311 0 317 0 l -1 0 q -14 8 -14 0 m 734 493 l 727 797 q 720 815 727 815 q 700 797 713 814 q 660 743 687 779 q 600 666 633 707 q 498 533 528 574 q 464 489 467 493 q 457 479 460 484 q 448 463 448 467 q 452 459 448 459 l 702 459 q 726 468 717 459 q 734 493 734 477 m 979 1240 q 960 1193 979 1212 q 920 1174 941 1174 q 885 1179 898 1174 q 864 1193 873 1184 q 844 1240 844 1213 q 886 1303 844 1286 q 920 1309 898 1309 q 960 1289 941 1309 q 979 1240 979 1269 m 736 1241 q 736 1226 736 1241 q 716 1193 736 1212 q 675 1174 697 1174 q 642 1179 654 1174 q 620 1193 629 1184 q 601 1240 601 1213 q 642 1303 601 1285 q 668 1309 654 1309 q 711 1295 696 1309 q 736 1241 736 1270 z "},"":{"ha":1057,"x_min":-14,"x_max":1006,"o":"m -14 8 q 1 27 -14 27 l 16 27 q 55 37 41 27 q 102 91 68 47 q 197 214 136 136 q 319 373 258 293 q 441 532 380 453 q 558 685 502 612 q 663 822 614 758 q 734 915 712 886 q 767 952 757 944 q 793 961 778 961 l 811 961 q 836 950 831 961 q 842 924 842 940 l 862 102 q 932 31 864 45 q 967 27 950 27 l 997 27 q 1006 17 1006 27 l 1006 9 q 996 0 1006 0 l 575 0 q 566 7 566 0 l 566 20 q 583 27 566 27 q 618 28 600 27 q 650 33 637 30 q 713 60 699 41 q 734 98 728 80 q 742 171 742 123 l 737 366 l 737 378 q 701 408 737 408 l 429 408 q 385 385 401 408 q 314 293 350 338 q 257 219 279 248 q 227 178 235 190 q 210 153 218 165 q 193 94 193 123 q 219 46 193 65 q 286 27 244 27 l 319 27 q 328 20 328 27 q 321 1 325 3 q 311 0 317 0 l -1 0 q -14 8 -14 0 m 734 493 l 727 797 q 720 815 727 815 q 700 797 713 814 q 660 743 687 779 q 600 666 633 707 q 498 533 528 574 q 464 489 467 493 q 457 479 460 484 q 448 463 448 467 q 452 459 448 459 l 702 459 q 726 468 717 459 q 734 493 734 477 m 675 1220 q 685 1269 675 1246 q 712 1308 695 1291 q 801 1345 749 1345 q 889 1308 853 1345 q 926 1221 926 1271 q 889 1133 926 1169 q 801 1096 852 1096 q 712 1133 750 1096 q 675 1220 675 1168 m 749 1276 q 744 1271 749 1276 q 732 1252 739 1265 q 726 1222 726 1238 q 732 1192 726 1206 q 749 1167 739 1177 q 796 1144 772 1144 q 834 1150 820 1144 q 859 1167 848 1156 q 881 1214 881 1190 q 875 1252 881 1238 q 859 1276 869 1265 q 812 1299 836 1299 q 774 1293 788 1299 q 749 1276 760 1286 z "},"":{"ha":1430,"x_min":-14,"x_max":1417,"o":"m 1360 211 q 1343 164 1360 203 q 1315 90 1326 125 q 1296 34 1303 54 q 1280 7 1289 14 q 1252 0 1271 0 l 512 0 q 507 5 507 0 l 511 22 q 527 27 513 27 q 561 30 541 27 q 597 43 581 33 q 642 124 630 65 l 698 385 l 412 385 q 367 361 385 385 q 335 319 350 338 q 307 281 321 300 q 254 213 273 237 q 224 173 235 189 q 206 141 214 157 q 188 77 188 103 q 253 27 188 27 l 294 27 q 302 20 302 27 l 302 9 q 289 0 302 0 l -1 0 q -14 8 -14 0 l -14 15 q -3 27 -14 27 l 16 27 q 57 39 43 27 q 88 72 71 50 q 140 140 105 94 q 217 241 175 186 q 308 360 260 297 q 405 487 356 422 q 503 615 454 551 q 595 735 551 678 q 676 840 639 792 q 739 920 713 887 q 667 929 709 929 q 663 935 663 929 l 666 951 q 673 956 667 956 l 1383 956 q 1408 953 1398 956 q 1417 942 1417 950 q 1416 930 1417 935 q 1413 909 1416 926 q 1391 748 1411 891 q 1381 739 1390 739 q 1358 754 1361 739 q 1356 778 1356 764 q 1354 808 1356 791 q 1342 847 1352 825 q 1317 885 1333 869 q 1231 919 1283 919 l 982 919 q 938 913 945 919 q 922 875 929 907 l 851 536 q 850 528 850 530 q 878 511 850 511 l 1127 511 q 1213 543 1171 511 q 1267 608 1245 568 q 1278 616 1271 616 l 1290 616 q 1296 612 1296 616 q 1296 607 1296 607 q 1295 606 1295 607 l 1241 353 q 1227 338 1238 338 q 1218 341 1220 338 q 1214 352 1215 343 q 1212 372 1213 361 q 1208 400 1212 384 q 1195 429 1204 417 q 1172 448 1185 441 q 1106 460 1149 460 l 861 460 q 846 455 856 460 q 831 437 836 450 q 825 412 827 425 q 814 364 823 399 q 796 277 806 329 q 779 193 786 226 q 768 118 768 146 q 780 75 768 90 q 810 52 791 60 q 1017 44 858 35 q 1142 64 1106 50 q 1199 92 1178 78 q 1260 146 1227 113 q 1300 188 1293 179 q 1315 205 1308 197 q 1347 224 1333 224 q 1360 211 1360 224 m 438 452 q 431 438 431 446 q 445 435 431 435 l 684 435 q 713 454 708 435 l 797 848 q 800 869 800 857 q 798 887 800 882 q 787 893 796 893 q 771 886 778 893 q 749 860 764 879 l 452 472 l 438 452 z "},"":{"ha":1038,"x_min":75,"x_max":1072,"o":"m 881 14 l 825 22 q 728 7 779 22 q 592 -20 633 -20 l 578 -20 l 506 -104 q 581 -155 555 -117 q 601 -207 601 -182 q 375 -361 590 -338 q 337 -332 337 -361 q 347 -315 337 -319 q 373 -309 357 -312 q 407 -303 389 -307 q 443 -294 425 -300 q 477 -279 462 -288 q 511 -220 511 -257 q 472 -167 511 -190 q 409 -146 443 -150 l 513 -16 q 217 95 332 3 q 75 427 75 210 q 174 720 75 586 q 417 914 265 842 q 719 985 564 985 q 882 970 805 985 q 993 945 958 956 q 1072 880 1072 918 q 1052 767 1072 831 q 1024 688 1031 703 q 1010 673 1017 673 q 994 685 996 673 q 990 754 992 720 q 972 817 987 788 q 933 869 958 846 q 879 908 909 892 q 748 943 815 943 q 612 923 680 943 q 482 869 543 904 q 370 785 421 833 q 281 677 318 736 q 201 410 201 551 q 301 134 201 244 q 573 21 406 21 q 777 92 681 21 q 893 238 861 155 q 904 259 898 251 q 921 268 909 268 q 945 256 945 268 q 944 252 944 255 q 942 241 943 249 q 938 217 941 233 q 929 176 935 202 q 915 112 923 151 q 900 45 906 74 q 889 15 893 16 q 881 14 886 14 z "},"":{"ha":922,"x_min":0,"x_max":909,"o":"m 852 211 q 836 164 852 203 q 807 90 819 125 q 788 34 795 54 q 772 7 781 14 q 744 0 763 0 l 5 0 q 0 5 0 0 l 3 22 q 20 27 6 27 q 54 30 34 27 q 90 43 74 33 q 135 124 123 65 q 186 364 164 260 q 225 543 208 467 q 253 671 241 619 q 271 756 264 722 q 283 809 279 790 q 289 838 287 827 q 291 866 291 852 q 278 894 291 881 q 244 916 264 907 q 159 929 209 929 q 155 935 155 929 l 159 951 q 165 956 160 956 l 875 956 q 900 953 890 956 q 909 942 909 950 q 908 930 909 935 q 905 909 908 926 q 883 748 903 891 q 872 739 882 739 q 850 754 853 739 q 848 778 848 764 q 846 808 848 791 q 834 847 844 825 q 809 885 825 869 q 723 919 775 919 l 474 919 q 430 913 437 919 q 414 875 421 907 l 343 536 q 342 528 342 530 q 370 511 342 511 l 619 511 q 705 543 663 511 q 759 608 737 568 q 770 616 764 616 l 782 616 q 788 612 788 616 q 788 607 788 607 q 787 606 787 607 l 733 353 q 720 338 730 338 q 710 341 712 338 q 706 352 707 343 q 704 372 705 361 q 700 400 704 384 q 687 429 696 417 q 665 448 677 441 q 598 460 642 460 l 353 460 q 338 455 348 460 q 323 437 328 450 q 317 412 319 425 q 307 364 315 399 q 288 277 298 329 q 271 193 278 226 q 260 118 260 146 q 272 75 260 90 q 302 52 283 60 q 398 41 331 41 q 510 44 465 41 q 587 53 554 47 q 645 68 621 58 q 691 92 670 78 q 752 146 720 113 q 792 188 785 179 q 807 205 800 197 q 839 224 825 224 q 852 211 852 224 m 766 1061 q 761 1059 763 1059 q 756 1061 759 1059 l 574 1208 q 536 1266 536 1240 q 550 1307 536 1292 q 581 1322 564 1322 q 636 1289 612 1322 l 781 1089 q 783 1085 783 1086 q 781 1081 783 1084 l 766 1061 z "},"":{"ha":922,"x_min":0,"x_max":909,"o":"m 852 211 q 836 164 852 203 q 807 90 819 125 q 788 34 795 54 q 772 7 781 14 q 744 0 763 0 l 5 0 q 0 5 0 0 l 3 22 q 20 27 6 27 q 54 30 34 27 q 90 43 74 33 q 135 124 123 65 q 186 364 164 260 q 225 543 208 467 q 253 671 241 619 q 271 756 264 722 q 283 809 279 790 q 289 838 287 827 q 291 866 291 852 q 278 894 291 881 q 244 916 264 907 q 159 929 209 929 q 155 935 155 929 l 159 951 q 165 956 160 956 l 875 956 q 900 953 890 956 q 909 942 909 950 q 908 930 909 935 q 905 909 908 926 q 883 748 903 891 q 872 739 882 739 q 850 754 853 739 q 848 778 848 764 q 846 808 848 791 q 834 847 844 825 q 809 885 825 869 q 723 919 775 919 l 474 919 q 430 913 437 919 q 414 875 421 907 l 343 536 q 342 528 342 530 q 370 511 342 511 l 619 511 q 705 543 663 511 q 759 608 737 568 q 770 616 764 616 l 782 616 q 788 612 788 616 q 788 607 788 607 q 787 606 787 607 l 733 353 q 720 338 730 338 q 710 341 712 338 q 706 352 707 343 q 704 372 705 361 q 700 400 704 384 q 687 429 696 417 q 665 448 677 441 q 598 460 642 460 l 353 460 q 338 455 348 460 q 323 437 328 450 q 317 412 319 425 q 307 364 315 399 q 288 277 298 329 q 271 193 278 226 q 260 118 260 146 q 272 75 260 90 q 302 52 283 60 q 398 41 331 41 q 510 44 465 41 q 587 53 554 47 q 645 68 621 58 q 691 92 670 78 q 752 146 720 113 q 792 188 785 179 q 807 205 800 197 q 839 224 825 224 q 852 211 852 224 m 528 1081 q 525 1085 525 1084 q 528 1089 525 1086 l 672 1289 q 720 1322 696 1322 q 758 1307 744 1322 q 772 1272 772 1292 q 734 1208 772 1240 l 552 1061 q 547 1059 549 1059 q 543 1061 545 1059 l 528 1081 z "},"":{"ha":922,"x_min":0,"x_max":909,"o":"m 852 211 q 836 164 852 203 q 807 90 819 125 q 788 34 795 54 q 772 7 781 14 q 744 0 763 0 l 5 0 q 0 5 0 0 l 3 22 q 20 27 6 27 q 54 30 34 27 q 90 43 74 33 q 135 124 123 65 q 186 364 164 260 q 225 543 208 467 q 253 671 241 619 q 271 756 264 722 q 283 809 279 790 q 289 838 287 827 q 291 866 291 852 q 278 894 291 881 q 244 916 264 907 q 159 929 209 929 q 155 935 155 929 l 159 951 q 165 956 160 956 l 875 956 q 900 953 890 956 q 909 942 909 950 q 908 930 909 935 q 905 909 908 926 q 883 748 903 891 q 872 739 882 739 q 850 754 853 739 q 848 778 848 764 q 846 808 848 791 q 834 847 844 825 q 809 885 825 869 q 723 919 775 919 l 474 919 q 430 913 437 919 q 414 875 421 907 l 343 536 q 342 528 342 530 q 370 511 342 511 l 619 511 q 705 543 663 511 q 759 608 737 568 q 770 616 764 616 l 782 616 q 788 612 788 616 q 788 607 788 607 q 787 606 787 607 l 733 353 q 720 338 730 338 q 710 341 712 338 q 706 352 707 343 q 704 372 705 361 q 700 400 704 384 q 687 429 696 417 q 665 448 677 441 q 598 460 642 460 l 353 460 q 338 455 348 460 q 323 437 328 450 q 317 412 319 425 q 307 364 315 399 q 288 277 298 329 q 271 193 278 226 q 260 118 260 146 q 272 75 260 90 q 302 52 283 60 q 398 41 331 41 q 510 44 465 41 q 587 53 554 47 q 645 68 621 58 q 691 92 670 78 q 752 146 720 113 q 792 188 785 179 q 807 205 800 197 q 839 224 825 224 q 852 211 852 224 m 516 1076 l 482 1076 l 672 1337 l 744 1337 l 744 1074 l 710 1074 l 680 1242 l 516 1076 z "},"":{"ha":922,"x_min":0,"x_max":909,"o":"m 852 211 q 836 164 852 203 q 807 90 819 125 q 788 34 795 54 q 772 7 781 14 q 744 0 763 0 l 5 0 q 0 5 0 0 l 3 22 q 20 27 6 27 q 54 30 34 27 q 90 43 74 33 q 135 124 123 65 q 186 364 164 260 q 225 543 208 467 q 253 671 241 619 q 271 756 264 722 q 283 809 279 790 q 289 838 287 827 q 291 866 291 852 q 278 894 291 881 q 244 916 264 907 q 159 929 209 929 q 155 935 155 929 l 159 951 q 165 956 160 956 l 875 956 q 900 953 890 956 q 909 942 909 950 q 908 930 909 935 q 905 909 908 926 q 883 748 903 891 q 872 739 882 739 q 850 754 853 739 q 848 778 848 764 q 846 808 848 791 q 834 847 844 825 q 809 885 825 869 q 723 919 775 919 l 474 919 q 430 913 437 919 q 414 875 421 907 l 343 536 q 342 528 342 530 q 370 511 342 511 l 619 511 q 705 543 663 511 q 759 608 737 568 q 770 616 764 616 l 782 616 q 788 612 788 616 q 788 607 788 607 q 787 606 787 607 l 733 353 q 720 338 730 338 q 710 341 712 338 q 706 352 707 343 q 704 372 705 361 q 700 400 704 384 q 687 429 696 417 q 665 448 677 441 q 598 460 642 460 l 353 460 q 338 455 348 460 q 323 437 328 450 q 317 412 319 425 q 307 364 315 399 q 288 277 298 329 q 271 193 278 226 q 260 118 260 146 q 272 75 260 90 q 302 52 283 60 q 398 41 331 41 q 510 44 465 41 q 587 53 554 47 q 645 68 621 58 q 691 92 670 78 q 752 146 720 113 q 792 188 785 179 q 807 205 800 197 q 839 224 825 224 q 852 211 852 224 m 823 1240 q 804 1193 823 1212 q 764 1174 785 1174 q 729 1179 742 1174 q 708 1193 717 1184 q 688 1240 688 1213 q 730 1303 688 1286 q 764 1309 742 1309 q 804 1289 785 1309 q 823 1240 823 1269 m 580 1241 q 580 1226 580 1241 q 561 1193 580 1212 q 519 1174 541 1174 q 486 1179 498 1174 q 464 1193 473 1184 q 445 1240 445 1213 q 486 1303 445 1285 q 512 1309 498 1309 q 555 1295 541 1309 q 580 1241 580 1270 z "},"":{"ha":452,"x_min":14,"x_max":553,"o":"m 305 865 q 190 929 305 929 q 186 935 186 929 l 189 951 q 196 956 191 956 l 549 956 q 553 951 553 956 l 550 935 q 534 929 549 929 q 499 926 519 929 q 464 913 479 923 q 418 832 430 892 l 264 109 q 261 81 261 98 q 273 53 261 65 q 304 35 286 41 q 387 27 330 27 q 391 22 391 27 l 388 5 q 382 0 386 0 l 18 0 q 14 5 14 0 l 17 22 q 34 27 20 27 q 67 30 47 27 q 103 43 87 33 q 149 124 137 64 q 200 365 178 261 q 239 546 222 469 q 267 675 256 623 q 286 762 278 728 q 297 816 293 797 q 302 845 301 835 q 305 865 305 859 m 467 1061 q 463 1059 465 1059 q 458 1061 460 1059 l 275 1208 q 238 1266 238 1240 q 252 1307 238 1292 q 283 1322 266 1322 q 338 1289 313 1322 l 482 1089 q 485 1085 485 1086 q 482 1081 485 1084 l 467 1061 z "},"":{"ha":474,"x_min":20,"x_max":625,"o":"m 311 865 q 196 929 311 929 q 192 935 192 929 l 195 951 q 202 956 197 956 l 555 956 q 559 951 559 956 l 556 935 q 540 929 555 929 q 506 926 526 929 q 470 913 486 923 q 424 832 436 892 l 270 109 q 267 81 267 98 q 279 53 267 65 q 311 35 292 41 q 393 27 336 27 q 397 22 397 27 l 394 5 q 388 0 392 0 l 24 0 q 20 5 20 0 l 23 22 q 40 27 26 27 q 74 30 54 27 q 109 43 94 33 q 155 124 143 64 q 207 365 184 261 q 245 546 229 469 q 273 675 262 623 q 292 762 284 728 q 303 816 299 797 q 309 845 307 835 q 311 865 311 859 m 381 1081 q 378 1085 378 1084 q 381 1089 378 1086 l 526 1289 q 574 1322 550 1322 q 611 1307 597 1322 q 625 1272 625 1292 q 588 1208 625 1240 l 406 1061 q 400 1059 402 1059 q 396 1061 398 1059 l 381 1081 z "},"":{"ha":474,"x_min":20,"x_max":559,"o":"m 311 865 q 196 929 311 929 q 192 935 192 929 l 195 951 q 202 956 197 956 l 555 956 q 559 951 559 956 l 556 935 q 540 929 555 929 q 506 926 526 929 q 470 913 486 923 q 424 832 436 892 l 270 109 q 267 81 267 98 q 279 53 267 65 q 311 35 292 41 q 393 27 336 27 q 397 22 397 27 l 394 5 q 388 0 392 0 l 24 0 q 20 5 20 0 l 23 22 q 40 27 26 27 q 74 30 54 27 q 109 43 94 33 q 155 124 143 64 q 207 365 184 261 q 245 546 229 469 q 273 675 262 623 q 292 762 284 728 q 303 816 299 797 q 309 845 307 835 q 311 865 311 859 m 302 1059 l 268 1059 l 458 1321 l 530 1321 l 530 1058 l 496 1058 l 466 1225 l 302 1059 z "},"":{"ha":474,"x_min":20,"x_max":626,"o":"m 311 865 q 196 929 311 929 q 192 935 192 929 l 195 951 q 202 956 197 956 l 555 956 q 559 951 559 956 l 556 935 q 540 929 555 929 q 506 926 526 929 q 470 913 486 923 q 424 832 436 892 l 270 109 q 267 81 267 98 q 279 53 267 65 q 311 35 292 41 q 393 27 336 27 q 397 22 397 27 l 394 5 q 388 0 392 0 l 24 0 q 20 5 20 0 l 23 22 q 40 27 26 27 q 74 30 54 27 q 109 43 94 33 q 155 124 143 64 q 207 365 184 261 q 245 546 229 469 q 273 675 262 623 q 292 762 284 728 q 303 816 299 797 q 309 845 307 835 q 311 865 311 859 m 626 1240 q 607 1193 626 1212 q 566 1174 588 1174 q 532 1179 545 1174 q 511 1193 519 1184 q 491 1240 491 1213 q 532 1303 491 1286 q 566 1309 545 1309 q 607 1289 588 1309 q 626 1240 626 1269 m 382 1241 q 382 1226 382 1241 q 363 1193 382 1212 q 322 1174 344 1174 q 288 1179 300 1174 q 267 1193 276 1184 q 248 1240 248 1213 q 288 1303 248 1285 q 315 1309 300 1309 q 357 1295 343 1309 q 382 1241 382 1270 z "},"":{"ha":1098,"x_min":0,"x_max":1098,"o":"m 159 949 q 166 956 159 956 l 558 956 q 917 867 766 956 q 1074 689 1029 800 q 1098 560 1098 632 q 1082 419 1098 488 q 1033 288 1067 351 q 946 173 999 226 q 818 82 893 121 q 422 0 658 0 l 5 0 q 0 5 0 0 l 5 28 q 19 34 7 34 q 53 36 31 34 q 94 47 75 39 q 151 119 140 68 l 222 458 l 95 458 q 80 471 80 458 l 84 492 q 99 509 87 509 l 233 509 l 303 835 q 307 869 307 850 q 298 898 307 887 q 276 914 290 909 q 202 922 256 922 l 159 922 q 155 927 155 922 l 159 949 m 277 150 q 276 128 276 143 q 290 94 276 113 q 327 62 304 75 q 436 35 375 35 q 596 60 519 35 q 720 111 672 85 q 812 175 767 136 q 891 269 857 214 q 968 564 968 390 q 724 894 968 814 q 501 926 627 926 q 455 919 471 926 q 435 890 439 911 l 353 509 l 584 509 q 598 495 598 509 l 594 475 q 580 458 591 458 l 342 458 l 277 150 z "},"":{"ha":1164,"x_min":12,"x_max":1265,"o":"m 993 276 q 987 249 993 276 q 971 176 981 222 q 957 105 962 130 q 947 55 951 79 q 940 23 943 31 q 934 8 938 16 q 920 1 930 1 q 900 9 909 1 q 882 29 891 17 q 864 55 873 41 q 802 148 856 69 q 676 333 748 227 q 553 513 604 439 q 471 633 503 587 q 420 708 439 680 q 391 750 401 736 q 376 773 382 764 q 346 805 353 805 q 330 774 336 805 q 277 524 304 647 q 232 318 250 401 q 215 198 215 235 q 220 132 215 161 q 238 79 226 102 q 318 27 265 27 q 348 25 341 27 q 354 16 354 23 l 354 9 q 339 0 354 0 l 33 0 q 17 2 22 0 q 12 14 12 4 q 16 28 12 24 q 26 35 20 32 q 39 39 32 37 q 57 45 46 41 q 83 61 68 49 q 113 88 99 73 q 150 157 142 122 l 293 831 q 297 849 294 839 q 300 871 300 859 q 287 895 300 883 q 256 914 275 907 q 195 929 222 929 q 160 931 168 929 q 153 942 153 932 q 159 954 153 951 q 179 956 165 956 l 349 956 q 399 949 388 956 q 434 911 414 942 l 904 221 q 913 207 908 215 q 923 199 918 199 q 929 209 927 199 q 935 231 931 218 q 942 261 939 245 q 950 305 945 278 q 966 382 955 332 q 989 490 977 433 q 1032 688 1017 619 q 1054 788 1046 757 q 1061 844 1061 820 q 1027 917 1061 890 q 947 929 1011 929 q 934 935 937 929 q 931 945 931 940 q 951 956 931 956 l 1250 956 q 1265 943 1265 956 q 1250 929 1265 929 l 1223 929 q 1133 882 1168 929 q 1102 794 1116 860 q 1081 690 1089 728 q 1062 603 1073 652 q 1040 498 1052 553 q 1017 386 1029 443 q 993 276 1004 329 m 926 1248 q 929 1254 926 1248 q 936 1274 932 1260 q 939 1298 939 1288 q 949 1308 939 1308 l 962 1308 q 972 1282 972 1308 q 964 1236 972 1257 q 943 1198 957 1214 q 862 1160 910 1160 q 778 1184 823 1160 q 708 1219 733 1208 q 665 1230 683 1230 q 636 1222 647 1230 q 617 1202 626 1215 q 597 1142 597 1174 q 586 1134 597 1134 l 572 1134 q 566 1155 566 1134 q 574 1203 566 1176 q 595 1249 581 1230 q 672 1290 623 1290 q 759 1265 709 1290 q 835 1230 808 1241 q 881 1219 862 1219 q 910 1227 901 1219 q 926 1248 920 1236 z "},"":{"ha":1107,"x_min":85,"x_max":1120,"o":"m 706 20 q 560 0 633 0 q 427 16 488 0 q 315 60 367 32 q 220 129 262 89 q 148 218 178 170 q 85 441 85 321 q 159 712 85 585 q 353 909 231 835 q 611 985 477 985 q 839 952 745 985 q 996 863 933 920 q 1120 567 1120 750 q 1044 281 1120 414 q 706 20 930 83 m 548 28 q 683 53 622 28 q 792 120 743 77 q 879 221 842 163 q 941 343 916 278 q 993 612 993 473 q 909 860 993 766 q 649 962 818 962 q 328 791 448 962 q 220 424 220 636 q 308 142 220 252 q 548 28 399 28 m 745 1078 q 740 1076 742 1076 q 735 1078 738 1076 l 553 1225 q 515 1283 515 1257 q 529 1324 515 1309 q 560 1339 543 1339 q 615 1306 591 1339 l 760 1106 q 762 1102 762 1103 q 760 1098 762 1101 l 745 1078 z "},"":{"ha":1107,"x_min":85,"x_max":1120,"o":"m 706 20 q 560 0 633 0 q 427 16 488 0 q 315 60 367 32 q 220 129 262 89 q 148 218 178 170 q 85 441 85 321 q 159 712 85 585 q 353 909 231 835 q 611 985 477 985 q 839 952 745 985 q 996 863 933 920 q 1120 567 1120 750 q 1044 281 1120 414 q 706 20 930 83 m 548 28 q 683 53 622 28 q 792 120 743 77 q 879 221 842 163 q 941 343 916 278 q 993 612 993 473 q 909 860 993 766 q 649 962 818 962 q 328 791 448 962 q 220 424 220 636 q 308 142 220 252 q 548 28 399 28 m 692 1081 q 690 1085 690 1084 q 692 1089 690 1086 l 837 1289 q 885 1322 861 1322 q 923 1307 909 1322 q 937 1272 937 1292 q 899 1208 937 1240 l 717 1061 q 711 1059 713 1059 q 707 1061 709 1059 l 692 1081 z "},"":{"ha":1107,"x_min":85,"x_max":1120,"o":"m 706 20 q 560 0 633 0 q 427 16 488 0 q 315 60 367 32 q 220 129 262 89 q 148 218 178 170 q 85 441 85 321 q 159 712 85 585 q 353 909 231 835 q 611 985 477 985 q 839 952 745 985 q 996 863 933 920 q 1120 567 1120 750 q 1044 281 1120 414 q 706 20 930 83 m 548 28 q 683 53 622 28 q 792 120 743 77 q 879 221 842 163 q 941 343 916 278 q 993 612 993 473 q 909 860 993 766 q 649 962 818 962 q 328 791 448 962 q 220 424 220 636 q 308 142 220 252 q 548 28 399 28 m 593 1076 l 559 1076 l 749 1338 l 821 1338 l 821 1075 l 787 1075 l 758 1242 l 593 1076 z "},"":{"ha":1107,"x_min":85,"x_max":1120,"o":"m 706 20 q 560 0 633 0 q 427 16 488 0 q 315 60 367 32 q 220 129 262 89 q 148 218 178 170 q 85 441 85 321 q 159 712 85 585 q 353 909 231 835 q 611 985 477 985 q 839 952 745 985 q 996 863 933 920 q 1120 567 1120 750 q 1044 281 1120 414 q 706 20 930 83 m 548 28 q 683 53 622 28 q 792 120 743 77 q 879 221 842 163 q 941 343 916 278 q 993 612 993 473 q 909 860 993 766 q 649 962 818 962 q 328 791 448 962 q 220 424 220 636 q 308 142 220 252 q 548 28 399 28 m 879 1200 q 882 1206 879 1200 q 888 1226 885 1212 q 891 1250 891 1240 q 902 1259 891 1259 l 915 1259 q 924 1234 924 1259 q 917 1187 924 1209 q 895 1149 909 1166 q 814 1112 863 1112 q 731 1136 776 1112 q 661 1171 686 1160 q 617 1182 635 1182 q 589 1174 600 1182 q 570 1154 578 1166 q 549 1094 549 1126 q 538 1086 549 1086 l 524 1086 q 519 1107 519 1086 q 526 1155 519 1128 q 547 1201 534 1181 q 625 1242 576 1242 q 711 1217 662 1242 q 788 1182 761 1193 q 834 1171 814 1171 q 863 1179 853 1171 q 879 1200 872 1187 z "},"":{"ha":1107,"x_min":85,"x_max":1120,"o":"m 706 20 q 560 0 633 0 q 427 16 488 0 q 315 60 367 32 q 220 129 262 89 q 148 218 178 170 q 85 441 85 321 q 159 712 85 585 q 353 909 231 835 q 611 985 477 985 q 839 952 745 985 q 996 863 933 920 q 1120 567 1120 750 q 1044 281 1120 414 q 706 20 930 83 m 548 28 q 683 53 622 28 q 792 120 743 77 q 879 221 842 163 q 941 343 916 278 q 993 612 993 473 q 909 860 993 766 q 649 962 818 962 q 328 791 448 962 q 220 424 220 636 q 308 142 220 252 q 548 28 399 28 m 922 1194 q 903 1146 922 1165 q 862 1127 884 1127 q 828 1132 840 1127 q 806 1146 815 1137 q 787 1194 787 1166 q 828 1257 787 1239 q 862 1262 840 1262 q 903 1242 884 1262 q 922 1194 922 1222 m 678 1194 q 678 1180 678 1194 q 659 1146 678 1165 q 618 1127 640 1127 q 584 1132 596 1127 q 562 1146 572 1137 q 543 1194 543 1166 q 584 1257 543 1238 q 610 1262 596 1262 q 653 1248 639 1262 q 678 1194 678 1223 z "},"":{"ha":711,"x_min":80,"x_max":632,"o":"m 142 698 l 355 484 l 570 699 l 631 640 l 415 424 l 632 207 l 572 147 l 355 364 l 140 149 l 80 209 l 296 424 l 81 637 l 142 698 z "},"":{"ha":1114,"x_min":85,"x_max":1127,"o":"m 620 985 q 963 889 831 985 l 1076 1010 l 1127 963 l 1015 844 q 1120 567 1120 733 q 1044 281 1120 414 q 706 20 930 83 q 553 0 633 0 q 295 72 409 0 l 165 -68 l 115 -20 l 239 113 q 126 258 167 174 q 85 429 85 342 q 104 583 85 515 q 159 712 123 652 q 243 823 194 772 q 353 909 293 873 q 620 985 477 985 m 921 844 q 649 962 829 962 q 328 791 448 962 q 220 424 220 636 q 290 168 220 271 l 921 844 m 334 113 q 551 28 422 28 q 792 121 687 28 q 941 343 887 203 q 993 590 993 473 q 958 783 993 706 l 334 113 z "},"":{"ha":1097,"x_min":170,"x_max":1206,"o":"m 1196 956 q 1206 947 1206 956 l 1206 940 q 1186 929 1206 932 q 1157 924 1166 926 q 1134 919 1147 922 q 1112 909 1122 916 q 1083 854 1092 894 l 1062 758 q 1047 686 1057 734 q 1024 578 1037 639 q 970 323 989 410 q 917 179 951 237 q 831 81 882 121 q 574 0 728 0 q 300 71 418 0 q 170 273 170 149 q 219 530 170 304 q 275 789 269 757 l 286 838 q 290 873 290 861 q 279 898 290 885 q 251 917 268 910 q 174 929 220 929 q 170 935 170 929 l 174 951 q 180 956 175 956 l 534 956 q 538 951 538 956 l 534 935 q 518 929 533 929 q 484 926 504 929 q 448 913 464 923 q 404 832 416 892 l 298 345 q 292 275 292 316 q 315 189 292 234 q 374 113 338 144 q 550 47 450 47 q 924 345 861 47 l 1007 733 q 1018 819 1018 781 q 911 929 1018 929 l 892 929 q 878 939 878 929 l 878 946 q 890 956 878 956 l 1196 956 m 804 1061 q 799 1059 801 1059 q 794 1061 797 1059 l 612 1208 q 574 1266 574 1240 q 588 1307 574 1292 q 619 1322 602 1322 q 674 1289 650 1322 l 819 1089 q 821 1085 821 1086 q 819 1081 821 1084 l 804 1061 z "},"":{"ha":1097,"x_min":170,"x_max":1206,"o":"m 1196 956 q 1206 947 1206 956 l 1206 940 q 1186 929 1206 932 q 1157 924 1166 926 q 1134 919 1147 922 q 1112 909 1122 916 q 1083 854 1092 894 l 1062 758 q 1047 686 1057 734 q 1024 578 1037 639 q 970 323 989 410 q 917 179 951 237 q 831 81 882 121 q 574 0 728 0 q 300 71 418 0 q 170 273 170 149 q 219 530 170 304 q 275 789 269 757 l 286 838 q 290 873 290 861 q 279 898 290 885 q 251 917 268 910 q 174 929 220 929 q 170 935 170 929 l 174 951 q 180 956 175 956 l 534 956 q 538 951 538 956 l 534 935 q 518 929 533 929 q 484 926 504 929 q 448 913 464 923 q 404 832 416 892 l 298 345 q 292 275 292 316 q 315 189 292 234 q 374 113 338 144 q 550 47 450 47 q 924 345 861 47 l 1007 733 q 1018 819 1018 781 q 911 929 1018 929 l 892 929 q 878 939 878 929 l 878 946 q 890 956 878 956 l 1196 956 m 732 1081 q 729 1085 729 1084 q 732 1089 729 1086 l 876 1289 q 924 1322 901 1322 q 962 1307 948 1322 q 976 1272 976 1292 q 939 1208 976 1240 l 756 1061 q 751 1059 753 1059 q 747 1061 749 1059 l 732 1081 z "},"":{"ha":1097,"x_min":170,"x_max":1206,"o":"m 1196 956 q 1206 947 1206 956 l 1206 940 q 1186 929 1206 932 q 1157 924 1166 926 q 1134 919 1147 922 q 1112 909 1122 916 q 1083 854 1092 894 l 1062 758 q 1047 686 1057 734 q 1024 578 1037 639 q 970 323 989 410 q 917 179 951 237 q 831 81 882 121 q 574 0 728 0 q 300 71 418 0 q 170 273 170 149 q 219 530 170 304 q 275 789 269 757 l 286 838 q 290 873 290 861 q 279 898 290 885 q 251 917 268 910 q 174 929 220 929 q 170 935 170 929 l 174 951 q 180 956 175 956 l 534 956 q 538 951 538 956 l 534 935 q 518 929 533 929 q 484 926 504 929 q 448 913 464 923 q 404 832 416 892 l 298 345 q 292 275 292 316 q 315 189 292 234 q 374 113 338 144 q 550 47 450 47 q 924 345 861 47 l 1007 733 q 1018 819 1018 781 q 911 929 1018 929 l 892 929 q 878 939 878 929 l 878 946 q 890 956 878 956 l 1196 956 m 659 1059 l 625 1059 l 815 1321 l 887 1321 l 887 1058 l 853 1058 l 823 1225 l 659 1059 z "},"":{"ha":1097,"x_min":170,"x_max":1206,"o":"m 1196 956 q 1206 947 1206 956 l 1206 940 q 1186 929 1206 932 q 1157 924 1166 926 q 1134 919 1147 922 q 1112 909 1122 916 q 1083 854 1092 894 l 1062 758 q 1047 686 1057 734 q 1024 578 1037 639 q 970 323 989 410 q 917 179 951 237 q 831 81 882 121 q 574 0 728 0 q 300 71 418 0 q 170 273 170 149 q 219 530 170 304 q 275 789 269 757 l 286 838 q 290 873 290 861 q 279 898 290 885 q 251 917 268 910 q 174 929 220 929 q 170 935 170 929 l 174 951 q 180 956 175 956 l 534 956 q 538 951 538 956 l 534 935 q 518 929 533 929 q 484 926 504 929 q 448 913 464 923 q 404 832 416 892 l 298 345 q 292 275 292 316 q 315 189 292 234 q 374 113 338 144 q 550 47 450 47 q 924 345 861 47 l 1007 733 q 1018 819 1018 781 q 911 929 1018 929 l 892 929 q 878 939 878 929 l 878 946 q 890 956 878 956 l 1196 956 m 960 1240 q 941 1193 960 1212 q 900 1174 922 1174 q 866 1179 878 1174 q 844 1193 853 1184 q 825 1240 825 1213 q 866 1303 825 1286 q 900 1309 878 1309 q 941 1289 922 1309 q 960 1240 960 1269 m 716 1241 q 716 1226 716 1241 q 697 1193 716 1212 q 656 1174 677 1174 q 622 1179 634 1174 q 600 1193 610 1184 q 581 1240 581 1213 q 622 1303 581 1285 q 648 1309 634 1309 q 691 1295 677 1309 q 716 1241 716 1270 z "},"":{"ha":1006,"x_min":170,"x_max":1108,"o":"m 268 0 q 254 10 254 0 l 254 18 q 268 27 254 27 l 309 27 q 394 64 357 27 q 428 125 421 90 q 441 192 434 160 q 453 252 448 224 q 475 374 465 309 q 471 392 475 385 q 459 419 467 399 q 435 474 450 439 q 399 557 420 509 q 350 672 378 606 q 296 796 321 739 q 261 870 271 852 q 239 900 251 887 q 192 928 213 928 q 170 937 170 928 l 170 946 q 183 956 170 954 l 482 956 q 495 946 495 956 l 495 937 q 484 928 495 928 l 458 928 q 410 901 425 928 q 404 875 404 890 q 419 824 404 859 q 453 748 435 789 q 488 665 471 707 q 551 517 534 557 q 571 473 569 478 q 575 463 573 468 q 587 452 581 452 q 612 469 597 452 q 638 502 626 487 q 662 529 651 516 q 680 551 673 542 q 719 596 688 559 q 803 697 750 633 q 887 797 857 762 q 922 846 917 832 q 926 878 926 859 q 913 912 926 896 q 872 928 899 928 l 847 928 q 833 938 833 928 l 833 947 q 847 956 833 956 l 1098 956 q 1105 953 1103 956 q 1108 948 1108 950 l 1108 939 q 1104 930 1108 932 q 1093 926 1100 928 q 1058 914 1069 921 q 1034 893 1047 907 q 1006 865 1020 880 q 927 773 987 844 q 776 593 868 701 q 598 382 684 484 q 572 259 586 319 q 544 100 544 129 q 574 49 544 71 q 659 27 604 27 l 690 27 q 703 18 703 27 l 703 9 q 692 0 703 0 l 268 0 m 679 1081 q 676 1085 676 1084 q 679 1089 676 1086 l 823 1289 q 871 1322 848 1322 q 909 1307 895 1322 q 923 1272 923 1292 q 886 1208 923 1240 l 703 1061 q 698 1059 700 1059 q 694 1061 696 1059 l 679 1081 z "},"":{"ha":724,"x_min":14,"x_max":745,"o":"m 264 109 q 261 81 261 98 q 273 53 261 65 q 304 35 286 41 q 387 27 330 27 q 391 22 391 27 l 388 5 q 382 0 386 0 l 18 0 q 14 5 14 0 l 17 22 q 34 27 20 27 q 67 30 47 27 q 103 43 87 33 q 149 124 136 65 l 303 848 q 305 871 305 856 q 294 898 305 886 q 266 917 283 910 q 190 929 235 929 q 186 935 186 929 l 189 951 q 196 956 191 956 l 549 956 q 553 951 553 956 l 550 935 q 534 929 549 929 q 499 924 519 929 q 464 907 479 919 q 419 820 432 882 l 412 789 l 420 789 q 635 729 538 789 q 745 541 745 661 q 510 247 745 315 q 294 220 418 220 l 288 220 l 264 109 m 406 758 l 296 258 q 597 414 530 258 q 620 530 620 469 q 605 631 620 592 q 564 699 591 671 q 414 758 507 758 l 406 758 z "},"":{"ha":850,"x_min":-231,"x_max":877,"o":"m 636 1116 q 739 1101 696 1116 q 812 1059 782 1086 q 877 916 877 1002 q 703 661 877 760 q 584 608 648 630 l 583 605 q 795 456 739 573 q 815 356 815 414 q 797 247 815 299 q 750 154 779 195 q 683 80 720 112 q 606 26 645 47 q 464 -18 527 -18 q 415 -6 433 -18 q 397 21 397 6 q 402 46 397 36 q 414 63 406 56 q 444 80 429 80 q 470 74 459 80 q 491 62 480 68 q 579 61 543 28 q 670 245 636 112 q 691 389 691 326 q 637 539 691 490 q 470 587 583 587 l 475 612 q 684 708 602 622 q 764 917 764 792 q 680 1065 764 1029 q 620 1076 652 1076 q 561 1072 589 1076 q 509 1058 533 1069 q 431 975 454 1034 q 372 724 408 891 l 210 -41 q 107 -281 184 -168 q -41 -412 45 -372 q -124 -433 -87 -433 q -178 -427 -161 -433 q -206 -412 -195 -421 q -231 -374 -231 -393 q -195 -329 -231 -329 q -140 -349 -171 -329 q -93 -378 -110 -369 q -57 -387 -75 -387 q -21 -378 -38 -387 q 9 -353 -5 -368 q 54 -281 35 -326 q 118 -42 90 -176 l 278 724 q 432 1040 323 945 q 636 1116 518 1116 z "},"":{"ha":606,"x_min":68,"x_max":589,"o":"m 391 103 q 392 109 391 103 q 396 126 393 115 q 399 149 399 138 q 395 161 400 161 q 361 138 387 161 q 314 96 336 115 q 268 57 292 77 q 221 20 244 37 q 144 -18 169 -18 q 105 2 120 -18 q 81 50 90 22 q 68 142 68 98 q 175 412 68 283 q 427 585 277 534 q 577 610 500 610 q 589 591 589 610 l 486 122 q 485 111 486 117 q 484 93 484 102 q 489 77 484 85 q 501 68 494 68 q 517 76 507 68 q 537 94 527 84 q 572 118 566 118 q 583 106 583 118 q 510 37 583 93 q 417 -21 436 -21 q 388 7 396 -21 q 384 40 384 22 q 386 75 384 59 q 391 103 388 90 m 479 522 q 454 533 479 533 q 393 524 428 533 q 327 498 359 515 q 176 289 210 436 q 160 186 162 225 q 160 130 159 148 q 167 95 161 111 q 217 57 180 57 q 322 133 266 82 q 412 214 379 184 l 479 522 m 545 724 q 540 721 542 721 q 535 724 538 721 l 353 871 q 315 928 315 903 q 329 969 315 954 q 360 985 343 985 q 415 951 391 985 l 559 751 q 562 747 562 749 q 559 743 562 746 l 545 724 z "},"":{"ha":606,"x_min":68,"x_max":654,"o":"m 391 103 q 392 109 391 103 q 396 126 393 115 q 399 149 399 138 q 395 161 400 161 q 361 138 387 161 q 314 96 336 115 q 268 57 292 77 q 221 20 244 37 q 144 -18 169 -18 q 105 2 120 -18 q 81 50 90 22 q 68 142 68 98 q 175 412 68 283 q 427 585 277 534 q 577 610 500 610 q 589 591 589 610 l 486 122 q 485 111 486 117 q 484 93 484 102 q 489 77 484 85 q 501 68 494 68 q 517 76 507 68 q 537 94 527 84 q 572 118 566 118 q 583 106 583 118 q 510 37 583 93 q 417 -21 436 -21 q 388 7 396 -21 q 384 40 384 22 q 386 75 384 59 q 391 103 388 90 m 479 522 q 454 533 479 533 q 393 524 428 533 q 327 498 359 515 q 176 289 210 436 q 160 186 162 225 q 160 130 159 148 q 167 95 161 111 q 217 57 180 57 q 322 133 266 82 q 412 214 379 184 l 479 522 m 410 743 q 408 747 408 746 q 410 751 408 749 l 555 951 q 603 985 579 985 q 641 969 627 985 q 654 934 654 954 q 617 871 654 903 l 435 724 q 429 722 431 722 q 425 724 427 722 l 410 743 z "},"":{"ha":606,"x_min":68,"x_max":589,"o":"m 391 103 q 392 109 391 103 q 396 126 393 115 q 399 149 399 138 q 395 161 400 161 q 361 138 387 161 q 314 96 336 115 q 268 57 292 77 q 221 20 244 37 q 144 -18 169 -18 q 105 2 120 -18 q 81 50 90 22 q 68 142 68 98 q 175 412 68 283 q 427 585 277 534 q 577 610 500 610 q 589 591 589 610 l 486 122 q 485 111 486 117 q 484 93 484 102 q 489 77 484 85 q 501 68 494 68 q 517 76 507 68 q 537 94 527 84 q 572 118 566 118 q 583 106 583 118 q 510 37 583 93 q 417 -21 436 -21 q 388 7 396 -21 q 384 40 384 22 q 386 75 384 59 q 391 103 388 90 m 479 522 q 454 533 479 533 q 393 524 428 533 q 327 498 359 515 q 176 289 210 436 q 160 186 162 225 q 160 130 159 148 q 167 95 161 111 q 217 57 180 57 q 322 133 266 82 q 412 214 379 184 l 479 522 m 338 722 l 304 722 l 494 984 l 566 984 l 566 721 l 532 721 l 502 888 l 338 722 z "},"":{"ha":606,"x_min":68,"x_max":664,"o":"m 391 103 q 392 109 391 103 q 396 126 393 115 q 399 149 399 138 q 395 161 400 161 q 361 138 387 161 q 314 96 336 115 q 268 57 292 77 q 221 20 244 37 q 144 -18 169 -18 q 105 2 120 -18 q 81 50 90 22 q 68 142 68 98 q 175 412 68 283 q 427 585 277 534 q 577 610 500 610 q 589 591 589 610 l 486 122 q 485 111 486 117 q 484 93 484 102 q 489 77 484 85 q 501 68 494 68 q 517 76 507 68 q 537 94 527 84 q 572 118 566 118 q 583 106 583 118 q 510 37 583 93 q 417 -21 436 -21 q 388 7 396 -21 q 384 40 384 22 q 386 75 384 59 q 391 103 388 90 m 479 522 q 454 533 479 533 q 393 524 428 533 q 327 498 359 515 q 176 289 210 436 q 160 186 162 225 q 160 130 159 148 q 167 95 161 111 q 217 57 180 57 q 322 133 266 82 q 412 214 379 184 l 479 522 m 618 868 q 621 874 618 868 q 628 894 625 880 q 631 918 631 908 q 642 928 631 928 l 654 928 q 664 903 664 928 q 656 856 664 878 q 635 818 649 834 q 554 780 602 780 q 470 804 515 780 q 400 839 425 828 q 357 850 375 850 q 329 843 339 850 q 309 823 318 835 q 289 762 289 794 q 278 754 289 754 l 264 754 q 258 775 258 754 q 266 823 258 796 q 287 869 273 850 q 364 910 315 910 q 451 886 401 910 q 527 850 500 861 q 573 839 554 839 q 602 847 593 839 q 618 868 612 856 z "},"":{"ha":606,"x_min":68,"x_max":655,"o":"m 391 103 q 392 109 391 103 q 396 126 393 115 q 399 149 399 138 q 395 161 400 161 q 361 138 387 161 q 314 96 336 115 q 268 57 292 77 q 221 20 244 37 q 144 -18 169 -18 q 105 2 120 -18 q 81 50 90 22 q 68 142 68 98 q 175 412 68 283 q 427 585 277 534 q 577 610 500 610 q 589 591 589 610 l 486 122 q 485 111 486 117 q 484 93 484 102 q 489 77 484 85 q 501 68 494 68 q 517 76 507 68 q 537 94 527 84 q 572 118 566 118 q 583 106 583 118 q 510 37 583 93 q 417 -21 436 -21 q 388 7 396 -21 q 384 40 384 22 q 386 75 384 59 q 391 103 388 90 m 479 522 q 454 533 479 533 q 393 524 428 533 q 327 498 359 515 q 176 289 210 436 q 160 186 162 225 q 160 130 159 148 q 167 95 161 111 q 217 57 180 57 q 322 133 266 82 q 412 214 379 184 l 479 522 m 655 853 q 636 806 655 825 q 595 787 617 787 q 561 792 574 787 q 540 806 549 797 q 520 853 520 825 q 562 916 520 899 q 595 922 574 922 q 636 902 617 922 q 655 853 655 882 m 412 853 q 412 839 412 853 q 392 806 412 825 q 351 787 373 787 q 317 792 330 787 q 296 806 305 797 q 277 853 277 825 q 317 916 277 898 q 344 922 330 922 q 387 907 372 922 q 412 853 412 882 z "},"":{"ha":606,"x_min":68,"x_max":618,"o":"m 391 103 q 392 109 391 103 q 396 126 393 115 q 399 149 399 138 q 395 161 400 161 q 361 138 387 161 q 314 96 336 115 q 268 57 292 77 q 221 20 244 37 q 144 -18 169 -18 q 105 2 120 -18 q 81 50 90 22 q 68 142 68 98 q 175 412 68 283 q 427 585 277 534 q 577 610 500 610 q 589 591 589 610 l 486 122 q 485 111 486 117 q 484 93 484 102 q 489 77 484 85 q 501 68 494 68 q 517 76 507 68 q 537 94 527 84 q 572 118 566 118 q 583 106 583 118 q 510 37 583 93 q 417 -21 436 -21 q 388 7 396 -21 q 384 40 384 22 q 386 75 384 59 q 391 103 388 90 m 479 522 q 454 533 479 533 q 393 524 428 533 q 327 498 359 515 q 176 289 210 436 q 160 186 162 225 q 160 130 159 148 q 167 95 161 111 q 217 57 180 57 q 322 133 266 82 q 412 214 379 184 l 479 522 m 368 856 q 377 904 368 882 q 404 944 387 927 q 493 981 441 981 q 581 944 545 981 q 618 857 618 907 q 581 768 618 805 q 493 732 545 732 q 404 768 442 732 q 368 856 368 804 m 441 912 q 436 907 441 912 q 425 887 431 901 q 418 858 418 873 q 425 827 418 842 q 441 803 431 813 q 488 780 464 780 q 526 786 512 780 q 551 803 540 792 q 573 849 573 825 q 567 887 573 873 q 551 911 561 901 q 504 935 528 935 q 466 928 480 935 q 441 912 452 922 z "},"":{"ha":855,"x_min":54,"x_max":872,"o":"m 623 37 q 781 94 688 37 l 790 77 q 629 -6 719 22 q 549 -18 589 -18 q 434 43 473 -18 q 398 182 399 96 l 366 153 q 339 130 357 146 q 300 96 322 115 q 255 56 279 77 q 208 19 231 36 q 132 -18 157 -18 q 91 2 106 -18 q 68 50 76 22 q 54 142 54 98 q 161 412 54 283 q 413 585 264 534 q 564 610 487 610 q 575 591 575 610 q 562 528 570 563 q 760 610 652 610 q 829 591 806 610 q 872 514 872 557 q 854 441 872 472 q 807 389 836 411 q 741 350 778 366 q 665 321 703 334 q 590 299 627 309 q 525 279 553 290 q 503 176 503 229 q 568 48 503 81 q 623 37 591 37 m 466 522 q 440 533 466 533 q 380 524 414 533 q 313 498 345 515 q 163 289 196 436 q 147 186 149 225 q 146 130 145 148 q 153 95 148 111 q 203 57 167 57 q 309 133 252 82 q 399 214 366 184 l 466 522 m 536 320 q 539 311 536 313 q 553 309 542 309 q 699 369 655 338 q 766 434 743 400 q 789 515 789 468 q 760 578 789 564 q 727 584 749 584 q 680 571 705 584 q 634 535 654 557 q 597 486 614 513 q 569 429 581 458 q 534 320 549 380 l 536 320 z "},"":{"ha":461,"x_min":47,"x_max":461,"o":"m 395 612 q 445 598 429 612 q 461 545 461 585 q 437 504 461 504 q 393 519 418 504 q 355 542 368 534 q 321 549 342 549 q 277 526 300 549 q 234 468 254 503 q 200 388 215 432 q 176 300 186 344 q 156 174 156 212 q 161 114 156 136 q 176 75 165 92 q 246 37 199 37 q 315 58 283 37 q 366 95 347 80 q 401 121 384 109 l 416 103 q 333 29 361 48 q 221 -16 278 -8 l 199 -104 q 296 -178 275 -125 q 302 -220 302 -193 q 282 -274 302 -246 q 231 -319 262 -301 q 85 -361 176 -351 q 47 -334 47 -361 q 54 -324 47 -331 q 72 -315 61 -317 q 181 -289 165 -297 q 206 -271 196 -281 q 229 -225 229 -248 q 221 -190 229 -203 q 200 -167 212 -176 q 147 -146 178 -149 l 178 -18 q 60 73 83 -14 q 52 150 52 100 q 67 263 52 200 q 108 379 82 326 q 168 476 134 433 q 239 549 201 519 q 395 612 318 612 z "},"":{"ha":535,"x_min":68,"x_max":542,"o":"m 293 37 q 450 94 357 37 l 460 77 q 298 -6 389 22 q 218 -18 259 -18 q 149 -1 177 -18 q 102 45 120 16 q 68 189 68 101 q 176 468 81 340 q 331 591 241 555 q 414 610 377 610 q 471 604 451 610 q 507 585 492 597 q 542 514 542 557 q 524 441 542 472 q 477 389 506 411 q 410 350 448 366 q 335 321 373 334 q 259 299 296 309 q 195 279 222 290 q 173 176 173 229 q 237 48 173 81 q 293 37 260 37 m 204 320 q 222 309 204 309 q 369 369 325 338 q 436 434 413 400 q 458 515 458 468 q 429 578 458 564 q 396 584 418 584 q 349 571 374 584 q 304 535 324 557 q 267 486 283 513 q 239 429 251 458 q 204 320 218 380 m 458 724 q 454 721 456 721 q 449 724 452 721 l 267 871 q 229 928 229 903 q 243 969 229 954 q 274 985 257 985 q 329 951 304 985 l 473 751 q 476 747 476 749 q 473 743 476 746 l 458 724 z "},"":{"ha":535,"x_min":68,"x_max":605,"o":"m 293 37 q 450 94 357 37 l 460 77 q 298 -6 389 22 q 218 -18 259 -18 q 149 -1 177 -18 q 102 45 120 16 q 68 189 68 101 q 176 468 81 340 q 331 591 241 555 q 414 610 377 610 q 471 604 451 610 q 507 585 492 597 q 542 514 542 557 q 524 441 542 472 q 477 389 506 411 q 410 350 448 366 q 335 321 373 334 q 259 299 296 309 q 195 279 222 290 q 173 176 173 229 q 237 48 173 81 q 293 37 260 37 m 204 320 q 222 309 204 309 q 369 369 325 338 q 436 434 413 400 q 458 515 458 468 q 429 578 458 564 q 396 584 418 584 q 349 571 374 584 q 304 535 324 557 q 267 486 283 513 q 239 429 251 458 q 204 320 218 380 m 361 743 q 358 747 358 746 q 361 751 358 749 l 505 951 q 553 985 530 985 q 591 969 577 985 q 605 934 605 954 q 568 871 605 903 l 385 724 q 380 722 382 722 q 376 724 378 722 l 361 743 z "},"":{"ha":539,"x_min":68,"x_max":546,"o":"m 293 37 q 450 94 357 37 l 460 77 q 298 -6 389 22 q 218 -18 259 -18 q 149 -1 177 -18 q 102 45 120 16 q 68 189 68 101 q 176 468 81 340 q 331 591 241 555 q 414 610 377 610 q 471 604 451 610 q 507 585 492 597 q 542 514 542 557 q 524 441 542 472 q 477 389 506 411 q 410 350 448 366 q 335 321 373 334 q 259 299 296 309 q 195 279 222 290 q 173 176 173 229 q 237 48 173 81 q 293 37 260 37 m 204 320 q 222 309 204 309 q 369 369 325 338 q 436 434 413 400 q 458 515 458 468 q 429 578 458 564 q 396 584 418 584 q 349 571 374 584 q 304 535 324 557 q 267 486 283 513 q 239 429 251 458 q 204 320 218 380 m 318 722 l 284 722 l 474 984 l 546 984 l 546 721 l 512 721 l 482 888 l 318 722 z "},"":{"ha":535,"x_min":68,"x_max":623,"o":"m 293 37 q 450 94 357 37 l 460 77 q 298 -6 389 22 q 218 -18 259 -18 q 149 -1 177 -18 q 102 45 120 16 q 68 189 68 101 q 176 468 81 340 q 331 591 241 555 q 414 610 377 610 q 471 604 451 610 q 507 585 492 597 q 542 514 542 557 q 524 441 542 472 q 477 389 506 411 q 410 350 448 366 q 335 321 373 334 q 259 299 296 309 q 195 279 222 290 q 173 176 173 229 q 237 48 173 81 q 293 37 260 37 m 204 320 q 222 309 204 309 q 369 369 325 338 q 436 434 413 400 q 458 515 458 468 q 429 578 458 564 q 396 584 418 584 q 349 571 374 584 q 304 535 324 557 q 267 486 283 513 q 239 429 251 458 q 204 320 218 380 m 623 853 q 604 806 623 825 q 564 787 585 787 q 529 792 542 787 q 508 806 517 797 q 488 853 488 825 q 530 916 488 899 q 564 922 542 922 q 604 902 585 922 q 623 853 623 882 m 380 853 q 380 839 380 853 q 360 806 380 825 q 319 787 341 787 q 286 792 298 787 q 264 806 273 797 q 245 853 245 825 q 286 916 245 898 q 312 922 298 922 q 355 907 340 922 q 380 853 380 882 z "},"":{"ha":378,"x_min":78,"x_max":349,"o":"m 214 529 q 197 544 214 544 q 109 479 168 544 q 91 461 96 466 l 78 474 q 155 552 92 500 q 264 610 227 610 q 299 594 284 610 q 315 561 315 578 q 313 534 315 543 l 213 65 l 213 62 q 230 47 213 47 q 326 119 257 47 q 336 130 333 127 l 349 117 q 273 39 336 91 q 163 -19 200 -19 q 128 -3 143 -19 q 113 30 113 13 q 115 57 113 47 l 214 526 l 214 529 m 315 724 q 310 721 312 721 q 305 724 308 721 l 123 871 q 85 928 85 903 q 99 969 85 954 q 130 985 113 985 q 185 951 161 985 l 330 751 q 332 747 332 749 q 330 743 332 746 l 315 724 z "},"":{"ha":378,"x_min":78,"x_max":442,"o":"m 214 529 q 197 544 214 544 q 109 479 168 544 q 91 461 96 466 l 78 474 q 155 552 92 500 q 264 610 227 610 q 299 594 284 610 q 315 561 315 578 q 313 534 315 543 l 213 65 l 213 62 q 230 47 213 47 q 326 119 257 47 q 336 130 333 127 l 349 117 q 273 39 336 91 q 163 -19 200 -19 q 128 -3 143 -19 q 113 30 113 13 q 115 57 113 47 l 214 526 l 214 529 m 198 743 q 195 747 195 746 q 198 751 195 749 l 342 951 q 391 985 367 985 q 428 969 414 985 q 442 934 442 954 q 405 871 442 903 l 222 724 q 217 722 219 722 q 213 724 215 722 l 198 743 z "},"":{"ha":378,"x_min":78,"x_max":374,"o":"m 214 529 q 197 544 214 544 q 109 479 168 544 q 91 461 96 466 l 78 474 q 155 552 92 500 q 264 610 227 610 q 299 594 284 610 q 315 561 315 578 q 313 534 315 543 l 213 65 l 213 62 q 230 47 213 47 q 326 119 257 47 q 336 130 333 127 l 349 117 q 273 39 336 91 q 163 -19 200 -19 q 128 -3 143 -19 q 113 30 113 13 q 115 57 113 47 l 214 526 l 214 529 m 146 722 l 113 722 l 302 984 l 374 984 l 374 721 l 340 721 l 311 888 l 146 722 z "},"":{"ha":378,"x_min":78,"x_max":474,"o":"m 214 529 q 197 544 214 544 q 109 479 168 544 q 91 461 96 466 l 78 474 q 155 552 92 500 q 264 610 227 610 q 299 594 284 610 q 315 561 315 578 q 313 534 315 543 l 213 65 l 213 62 q 230 47 213 47 q 326 119 257 47 q 336 130 333 127 l 349 117 q 273 39 336 91 q 163 -19 200 -19 q 128 -3 143 -19 q 113 30 113 13 q 115 57 113 47 l 214 526 l 214 529 m 474 853 q 455 806 474 825 q 414 787 436 787 q 380 792 393 787 q 359 806 368 797 q 339 853 339 825 q 380 916 339 899 q 414 922 393 922 q 455 902 436 922 q 474 853 474 882 m 231 853 q 231 839 231 853 q 211 806 231 825 q 170 787 192 787 q 136 792 149 787 q 115 806 124 797 q 96 853 96 825 q 136 916 96 898 q 163 922 149 922 q 205 907 191 922 q 231 853 231 882 z "},"":{"ha":624,"x_min":85,"x_max":617,"o":"m 392 917 q 266 1072 324 1025 l 275 1116 q 325 1083 290 1116 q 440 945 389 1022 l 590 1033 l 617 986 l 469 899 q 604 431 604 671 q 492 113 604 240 q 197 -18 378 -18 q 123 53 161 -18 q 85 189 85 125 q 103 310 85 253 q 153 415 121 367 q 315 565 214 511 q 482 610 400 610 q 500 606 491 610 q 420 870 500 718 l 266 781 l 239 827 l 392 917 m 212 359 q 206 339 212 359 q 193 276 199 319 q 186 204 186 234 q 192 146 186 174 q 210 92 197 118 q 290 32 239 32 q 442 150 382 32 q 496 380 496 255 q 458 522 496 463 q 400 560 434 560 q 337 544 366 560 q 285 500 309 528 q 243 436 262 473 q 212 359 224 399 z "},"":{"ha":675,"x_min":75,"x_max":665,"o":"m 288 610 q 312 565 312 610 q 310 534 312 545 q 303 505 307 523 q 292 450 300 486 q 271 347 285 414 q 277 339 271 339 q 288 345 283 339 q 304 363 293 351 q 337 401 315 375 q 386 455 360 427 q 440 511 412 484 q 496 562 469 539 q 601 610 559 610 q 636 594 621 610 q 652 561 652 578 q 650 534 652 543 l 529 65 l 529 62 q 546 47 529 47 q 642 119 573 47 q 652 130 649 127 l 665 117 q 589 39 652 91 q 479 -19 516 -19 q 444 -3 459 -19 q 429 30 429 13 q 431 57 429 47 l 551 526 l 551 529 q 546 539 551 535 q 531 544 540 544 q 500 527 522 543 q 453 486 479 511 q 399 431 427 461 q 345 370 371 400 q 263 271 275 289 q 247 233 251 253 l 198 7 q 126 -20 151 -20 q 101 0 101 -20 q 104 23 101 9 q 112 58 111 50 l 203 488 l 203 490 q 187 509 203 509 q 153 485 177 509 q 91 422 130 461 l 75 439 q 183 548 90 469 q 288 610 258 610 m 614 868 q 617 874 614 868 q 624 894 621 880 q 627 918 627 908 q 637 928 627 928 l 650 928 q 660 903 660 928 q 652 856 660 878 q 631 818 645 834 q 550 780 598 780 q 466 804 511 780 q 396 839 421 828 q 353 850 371 850 q 325 843 335 850 q 305 823 314 835 q 285 762 285 794 q 274 754 285 754 l 260 754 q 254 775 254 754 q 262 823 254 796 q 283 869 269 850 q 360 910 311 910 q 447 886 397 910 q 523 850 496 861 q 569 839 550 839 q 598 847 589 839 q 614 868 608 856 z "},"":{"ha":646,"x_min":105,"x_max":618,"o":"m 503 610 q 579 540 543 610 q 618 393 618 467 q 601 269 618 319 q 555 175 584 218 q 487 96 526 132 q 403 35 448 60 q 218 -18 310 -18 q 143 53 181 -18 q 105 188 105 125 q 122 305 105 250 q 167 406 138 359 q 235 490 196 452 q 317 555 273 528 q 503 610 410 610 m 232 359 q 226 339 232 359 q 213 276 220 319 q 207 204 207 234 q 212 146 207 174 q 230 92 218 118 q 310 32 259 32 q 463 150 402 32 q 516 380 516 255 q 479 522 516 463 q 420 560 454 560 q 358 544 387 560 q 306 500 329 528 q 263 436 282 473 q 232 359 245 399 m 514 724 q 509 721 511 721 q 505 724 507 721 l 322 871 q 285 928 285 903 q 299 969 285 954 q 330 985 313 985 q 385 951 360 985 l 529 751 q 532 747 532 749 q 529 743 532 746 l 514 724 z "},"":{"ha":646,"x_min":105,"x_max":680,"o":"m 503 610 q 579 540 543 610 q 618 393 618 467 q 601 269 618 319 q 555 175 584 218 q 487 96 526 132 q 403 35 448 60 q 218 -18 310 -18 q 143 53 181 -18 q 105 188 105 125 q 122 305 105 250 q 167 406 138 359 q 235 490 196 452 q 317 555 273 528 q 503 610 410 610 m 232 359 q 226 339 232 359 q 213 276 220 319 q 207 204 207 234 q 212 146 207 174 q 230 92 218 118 q 310 32 259 32 q 463 150 402 32 q 516 380 516 255 q 479 522 516 463 q 420 560 454 560 q 358 544 387 560 q 306 500 329 528 q 263 436 282 473 q 232 359 245 399 m 435 743 q 433 747 433 746 q 435 751 433 749 l 580 951 q 628 985 604 985 q 666 969 652 985 q 680 934 680 954 q 642 871 680 903 l 460 724 q 454 722 456 722 q 450 724 452 722 l 435 743 z "},"":{"ha":646,"x_min":105,"x_max":618,"o":"m 503 610 q 579 540 543 610 q 618 393 618 467 q 601 269 618 319 q 555 175 584 218 q 487 96 526 132 q 403 35 448 60 q 218 -18 310 -18 q 143 53 181 -18 q 105 188 105 125 q 122 305 105 250 q 167 406 138 359 q 235 490 196 452 q 317 555 273 528 q 503 610 410 610 m 232 359 q 226 339 232 359 q 213 276 220 319 q 207 204 207 234 q 212 146 207 174 q 230 92 218 118 q 310 32 259 32 q 463 150 402 32 q 516 380 516 255 q 479 522 516 463 q 420 560 454 560 q 358 544 387 560 q 306 500 329 528 q 263 436 282 473 q 232 359 245 399 m 361 722 l 328 722 l 517 984 l 589 984 l 589 721 l 555 721 l 526 888 l 361 722 z "},"":{"ha":646,"x_min":105,"x_max":707,"o":"m 503 610 q 579 540 543 610 q 618 393 618 467 q 601 269 618 319 q 555 175 584 218 q 487 96 526 132 q 403 35 448 60 q 218 -18 310 -18 q 143 53 181 -18 q 105 188 105 125 q 122 305 105 250 q 167 406 138 359 q 235 490 196 452 q 317 555 273 528 q 503 610 410 610 m 232 359 q 226 339 232 359 q 213 276 220 319 q 207 204 207 234 q 212 146 207 174 q 230 92 218 118 q 310 32 259 32 q 463 150 402 32 q 516 380 516 255 q 479 522 516 463 q 420 560 454 560 q 358 544 387 560 q 306 500 329 528 q 263 436 282 473 q 232 359 245 399 m 662 868 q 665 874 662 868 q 671 894 668 880 q 674 918 674 908 q 685 928 674 928 l 698 928 q 707 903 707 928 q 700 856 707 878 q 678 818 692 834 q 597 780 646 780 q 514 804 559 780 q 444 839 469 828 q 400 850 418 850 q 372 843 382 850 q 353 823 361 835 q 332 762 332 794 q 321 754 332 754 l 307 754 q 302 775 302 754 q 309 823 302 796 q 330 869 317 850 q 408 910 359 910 q 494 886 445 910 q 571 850 544 861 q 617 839 597 839 q 646 847 636 839 q 662 868 655 856 z "},"":{"ha":646,"x_min":105,"x_max":677,"o":"m 503 610 q 579 540 543 610 q 618 393 618 467 q 601 269 618 319 q 555 175 584 218 q 487 96 526 132 q 403 35 448 60 q 218 -18 310 -18 q 143 53 181 -18 q 105 188 105 125 q 122 305 105 250 q 167 406 138 359 q 235 490 196 452 q 317 555 273 528 q 503 610 410 610 m 232 359 q 226 339 232 359 q 213 276 220 319 q 207 204 207 234 q 212 146 207 174 q 230 92 218 118 q 310 32 259 32 q 463 150 402 32 q 516 380 516 255 q 479 522 516 463 q 420 560 454 560 q 358 544 387 560 q 306 500 329 528 q 263 436 282 473 q 232 359 245 399 m 677 853 q 658 806 677 825 q 617 787 639 787 q 583 792 595 787 q 562 806 570 797 q 542 853 542 825 q 583 916 542 899 q 617 922 595 922 q 658 902 639 922 q 677 853 677 882 m 433 853 q 433 839 433 853 q 414 806 433 825 q 373 787 395 787 q 339 792 351 787 q 317 806 327 797 q 298 853 298 825 q 339 916 298 898 q 366 922 351 922 q 408 907 394 922 q 433 853 433 882 z "},"":{"ha":711,"x_min":60,"x_max":651,"o":"m 60 468 l 651 468 l 651 382 l 60 382 l 60 468 m 301 128 q 296 133 301 128 q 284 153 290 138 q 278 183 278 167 q 284 215 278 200 q 301 240 290 229 q 349 264 323 264 q 388 257 374 264 q 413 240 402 251 q 436 192 436 217 q 430 153 436 167 q 413 127 424 138 q 365 104 389 104 q 326 111 340 104 q 301 128 311 117 m 301 604 q 296 610 301 604 q 284 630 290 615 q 278 661 278 644 q 284 692 278 677 q 301 718 290 707 q 348 741 323 741 q 388 734 374 741 q 413 718 402 728 q 436 669 436 694 q 430 630 436 644 q 413 604 424 615 q 365 581 389 581 q 326 587 340 581 q 301 604 311 593 z "},"":{"ha":641,"x_min":41,"x_max":681,"o":"m 127 73 q 99 194 99 138 q 116 305 99 250 q 161 406 132 359 q 229 490 190 452 q 311 555 267 528 q 496 610 404 610 q 569 547 534 610 l 646 630 l 681 595 l 591 498 q 612 378 612 437 q 595 269 612 319 q 549 175 578 218 q 481 96 520 132 q 397 35 441 60 q 212 -18 304 -18 q 152 28 182 -18 l 75 -54 l 41 -20 l 127 73 m 496 469 q 414 560 467 560 q 258 436 321 560 q 201 195 201 325 q 204 156 201 183 l 496 469 m 220 101 q 304 32 248 32 q 456 150 396 32 q 510 380 510 255 q 508 410 510 391 l 220 101 z "},"":{"ha":713,"x_min":81,"x_max":693,"o":"m 670 594 l 670 590 q 566 102 670 588 q 582 81 566 81 q 615 105 592 81 q 677 168 638 129 l 693 151 q 640 93 684 134 q 480 -18 520 -18 q 455 24 455 -18 q 460 70 455 45 l 510 298 q 504 305 510 305 q 493 299 498 305 q 478 282 488 294 q 449 251 467 270 q 413 211 431 231 q 349 139 361 154 q 322 108 336 123 q 294 76 309 93 q 261 42 278 59 q 227 12 243 25 q 165 -18 188 -18 q 130 0 142 -18 q 117 31 117 18 l 117 47 q 118 56 117 52 l 218 525 l 218 528 q 201 543 218 543 q 113 478 172 543 q 94 460 100 465 l 81 473 q 159 551 95 499 q 267 609 231 609 q 303 593 288 609 q 318 559 318 577 q 222 90 318 541 l 222 87 q 239 73 222 73 q 323 146 262 73 q 357 184 339 164 q 392 225 374 205 q 460 306 430 270 q 541 448 528 389 l 570 583 q 592 610 575 610 l 654 610 q 670 594 670 610 m 562 724 q 557 721 559 721 q 552 724 555 721 l 370 871 q 332 928 332 903 q 346 969 332 954 q 377 985 360 985 q 432 951 408 985 l 576 751 q 579 747 579 749 q 576 743 579 746 l 562 724 z "},"":{"ha":713,"x_min":81,"x_max":693,"o":"m 670 594 l 670 590 q 566 102 670 588 q 582 81 566 81 q 615 105 592 81 q 677 168 638 129 l 693 151 q 640 93 684 134 q 480 -18 520 -18 q 455 24 455 -18 q 460 70 455 45 l 510 298 q 504 305 510 305 q 493 299 498 305 q 478 282 488 294 q 449 251 467 270 q 413 211 431 231 q 349 139 361 154 q 322 108 336 123 q 294 76 309 93 q 261 42 278 59 q 227 12 243 25 q 165 -18 188 -18 q 130 0 142 -18 q 117 31 117 18 l 117 47 q 118 56 117 52 l 218 525 l 218 528 q 201 543 218 543 q 113 478 172 543 q 94 460 100 465 l 81 473 q 159 551 95 499 q 267 609 231 609 q 303 593 288 609 q 318 559 318 577 q 222 90 318 541 l 222 87 q 239 73 222 73 q 323 146 262 73 q 357 184 339 164 q 392 225 374 205 q 460 306 430 270 q 541 448 528 389 l 570 583 q 592 610 575 610 l 654 610 q 670 594 670 610 m 442 743 q 439 747 439 746 q 442 751 439 749 l 587 951 q 635 985 611 985 q 672 969 659 985 q 686 934 686 954 q 649 871 686 903 l 467 724 q 461 722 463 722 q 457 724 459 722 l 442 743 z "},"":{"ha":713,"x_min":81,"x_max":693,"o":"m 670 594 l 670 590 q 566 102 670 588 q 582 81 566 81 q 615 105 592 81 q 677 168 638 129 l 693 151 q 640 93 684 134 q 480 -18 520 -18 q 455 24 455 -18 q 460 70 455 45 l 510 298 q 504 305 510 305 q 493 299 498 305 q 478 282 488 294 q 449 251 467 270 q 413 211 431 231 q 349 139 361 154 q 322 108 336 123 q 294 76 309 93 q 261 42 278 59 q 227 12 243 25 q 165 -18 188 -18 q 130 0 142 -18 q 117 31 117 18 l 117 47 q 118 56 117 52 l 218 525 l 218 528 q 201 543 218 543 q 113 478 172 543 q 94 460 100 465 l 81 473 q 159 551 95 499 q 267 609 231 609 q 303 593 288 609 q 318 559 318 577 q 222 90 318 541 l 222 87 q 239 73 222 73 q 323 146 262 73 q 357 184 339 164 q 392 225 374 205 q 460 306 430 270 q 541 448 528 389 l 570 583 q 592 610 575 610 l 654 610 q 670 594 670 610 m 378 722 l 345 722 l 534 984 l 606 984 l 606 721 l 572 721 l 543 888 l 378 722 z "},"":{"ha":713,"x_min":81,"x_max":693,"o":"m 670 594 l 670 590 q 566 102 670 588 q 582 81 566 81 q 615 105 592 81 q 677 168 638 129 l 693 151 q 640 93 684 134 q 480 -18 520 -18 q 455 24 455 -18 q 460 70 455 45 l 510 298 q 504 305 510 305 q 493 299 498 305 q 478 282 488 294 q 449 251 467 270 q 413 211 431 231 q 349 139 361 154 q 322 108 336 123 q 294 76 309 93 q 261 42 278 59 q 227 12 243 25 q 165 -18 188 -18 q 130 0 142 -18 q 117 31 117 18 l 117 47 q 118 56 117 52 l 218 525 l 218 528 q 201 543 218 543 q 113 478 172 543 q 94 460 100 465 l 81 473 q 159 551 95 499 q 267 609 231 609 q 303 593 288 609 q 318 559 318 577 q 222 90 318 541 l 222 87 q 239 73 222 73 q 323 146 262 73 q 357 184 339 164 q 392 225 374 205 q 460 306 430 270 q 541 448 528 389 l 570 583 q 592 610 575 610 l 654 610 q 670 594 670 610 m 684 853 q 665 806 684 825 q 624 787 646 787 q 590 792 602 787 q 568 806 577 797 q 549 853 549 825 q 590 916 549 899 q 624 922 602 922 q 665 902 646 922 q 684 853 684 882 m 440 853 q 440 839 440 853 q 421 806 440 825 q 380 787 401 787 q 346 792 358 787 q 324 806 334 797 q 305 853 305 825 q 346 916 305 898 q 372 922 358 922 q 415 907 401 922 q 440 853 440 882 z "},"":{"ha":707,"x_min":27,"x_max":707,"o":"m 97 -392 q 106 -389 97 -392 q 132 -368 115 -385 q 181 -282 149 -351 q 227 -183 213 -214 q 252 -122 240 -153 q 310 96 310 22 q 300 292 310 236 q 257 483 269 458 q 238 519 246 509 q 219 531 230 530 q 182 496 206 529 q 126 434 135 434 q 118 437 122 434 q 114 450 114 441 q 128 480 114 460 q 161 521 142 500 q 197 559 180 542 q 219 582 215 576 q 229 591 223 587 q 242 600 235 595 q 271 610 260 610 q 302 597 296 610 q 401 126 401 429 q 414 93 401 102 l 467 186 q 581 421 546 321 q 593 476 593 458 q 590 503 593 494 q 582 518 587 511 q 571 548 571 536 q 575 570 571 559 q 587 590 579 581 q 628 610 605 610 q 663 604 650 610 q 684 586 676 597 q 697 532 697 565 q 681 462 697 498 q 638 381 664 425 q 579 287 612 336 q 515 190 547 238 q 410 22 434 68 q 357 -105 387 -31 q 286 -273 328 -180 l 260 -330 q 258 -337 259 -332 q 255 -347 256 -342 q 251 -369 251 -358 q 256 -387 251 -379 q 302 -399 264 -399 q 320 -398 309 -398 q 350 -399 331 -398 l 345 -420 l 27 -420 l 32 -399 q 97 -392 80 -399 m 463 743 q 460 747 460 746 q 463 751 460 749 l 607 951 q 655 985 631 985 q 693 969 679 985 q 707 934 707 954 q 669 871 707 903 l 487 724 q 481 722 484 722 q 477 724 479 722 l 463 743 z "},"":{"ha":652,"x_min":-92,"x_max":629,"o":"m 476 50 q 458 34 476 50 q 393 0 439 18 q 297 -18 347 -18 q 199 7 247 -18 l 128 -330 q 125 -347 125 -340 q 156 -389 125 -378 q 245 -399 187 -399 l 240 -420 l -92 -420 l -87 -399 q 9 -361 -20 -399 q 49 -245 31 -331 l 312 988 q 315 1006 315 999 q 300 1023 315 1023 q 266 1013 287 1023 q 220 991 244 1002 l 211 1012 q 291 1055 258 1037 q 346 1084 324 1072 q 380 1102 368 1095 q 399 1111 393 1108 q 414 1116 409 1116 q 429 1100 429 1116 q 419 1038 429 1084 q 393 919 409 992 q 361 769 377 845 q 327 612 345 694 q 299 481 310 530 q 289 429 289 433 q 296 417 289 417 q 315 425 307 417 q 341 449 324 432 q 380 487 359 466 q 425 529 401 507 q 472 570 449 551 q 548 610 524 610 q 589 590 573 610 q 614 541 605 570 q 629 437 629 494 q 619 325 629 380 q 590 219 609 269 q 542 125 570 168 q 476 50 513 81 m 495 229 q 504 252 495 229 q 524 327 513 275 q 534 411 534 378 q 533 463 534 444 q 526 497 532 481 q 476 535 513 535 q 400 476 440 517 q 333 407 361 436 q 271 345 304 377 l 222 114 q 220 91 220 103 q 223 64 220 79 q 236 38 227 50 q 292 9 258 9 q 353 26 326 9 q 405 72 379 43 q 454 142 431 102 q 495 229 477 182 z "},"":{"ha":697,"x_min":27,"x_max":697,"o":"m 97 -392 q 106 -389 97 -392 q 132 -368 115 -385 q 181 -282 149 -351 q 227 -183 213 -214 q 252 -122 240 -153 q 310 96 310 22 q 300 292 310 236 q 257 483 269 458 q 238 519 246 509 q 219 531 230 530 q 182 496 206 529 q 126 434 135 434 q 118 437 122 434 q 114 450 114 441 q 128 480 114 460 q 161 521 142 500 q 197 559 180 542 q 219 582 215 576 q 229 591 223 587 q 242 600 235 595 q 271 610 260 610 q 302 597 296 610 q 401 126 401 429 q 414 93 401 102 l 467 186 q 581 421 546 321 q 593 476 593 458 q 590 503 593 494 q 582 518 587 511 q 571 548 571 536 q 575 570 571 559 q 587 590 579 581 q 628 610 605 610 q 663 604 650 610 q 684 586 676 597 q 697 532 697 565 q 681 462 697 498 q 638 381 664 425 q 579 287 612 336 q 515 190 547 238 q 410 22 434 68 q 357 -105 387 -31 q 286 -273 328 -180 l 260 -330 q 258 -337 259 -332 q 255 -347 256 -342 q 251 -369 251 -358 q 256 -387 251 -379 q 302 -399 264 -399 q 320 -398 309 -398 q 350 -399 331 -398 l 345 -420 l 27 -420 l 32 -399 q 97 -392 80 -399 m 663 853 q 644 806 663 825 q 604 787 625 787 q 569 792 582 787 q 548 806 557 797 q 528 853 528 825 q 570 916 528 899 q 604 922 582 922 q 644 902 625 922 q 663 853 663 882 m 420 853 q 420 839 420 853 q 400 806 420 825 q 359 787 381 787 q 326 792 338 787 q 304 806 313 797 q 285 853 285 825 q 326 916 285 898 q 352 922 338 922 q 395 907 380 922 q 420 853 420 882 z "},"":{"ha":1058,"x_min":-14,"x_max":1007,"o":"m -14 8 q 1 27 -14 27 l 16 27 q 55 37 41 27 q 102 91 68 47 q 197 214 136 136 q 319 373 258 293 q 441 532 380 453 q 558 685 502 612 q 663 822 614 758 q 734 915 712 886 q 767 952 757 944 q 793 961 778 961 l 811 961 q 836 950 831 961 q 842 924 842 940 l 862 102 q 932 31 864 45 q 967 27 950 27 l 997 27 q 1006 17 1006 27 l 1006 9 q 996 0 1006 0 l 575 0 q 566 7 566 0 l 566 20 q 583 27 566 27 q 618 28 600 27 q 650 33 637 30 q 713 60 699 41 q 734 98 728 80 q 742 171 742 123 l 737 366 l 737 378 q 701 408 737 408 l 429 408 q 385 385 401 408 q 314 293 350 338 q 257 219 279 248 q 227 178 235 190 q 210 153 218 165 q 193 94 193 123 q 219 46 193 65 q 286 27 244 27 l 319 27 q 328 20 328 27 q 321 1 325 3 q 311 0 317 0 l -1 0 q -14 8 -14 0 m 734 493 l 727 797 q 720 815 727 815 q 700 797 713 814 q 660 743 687 779 q 600 666 633 707 q 498 533 528 574 q 464 489 467 493 q 457 479 460 484 q 448 463 448 467 q 452 459 448 459 l 702 459 q 726 468 717 459 q 734 493 734 477 m 582 1254 l 1007 1254 l 989 1187 l 564 1187 l 582 1254 z "},"":{"ha":606,"x_min":68,"x_max":660,"o":"m 391 103 q 392 109 391 103 q 396 126 393 115 q 399 149 399 138 q 395 161 400 161 q 361 138 387 161 q 314 96 336 115 q 268 57 292 77 q 221 20 244 37 q 144 -18 169 -18 q 105 2 120 -18 q 81 50 90 22 q 68 142 68 98 q 175 412 68 283 q 427 585 277 534 q 577 610 500 610 q 589 591 589 610 l 486 122 q 485 111 486 117 q 484 93 484 102 q 489 77 484 85 q 501 68 494 68 q 517 76 507 68 q 537 94 527 84 q 572 118 566 118 q 583 106 583 118 q 510 37 583 93 q 417 -21 436 -21 q 388 7 396 -21 q 384 40 384 22 q 386 75 384 59 q 391 103 388 90 m 479 522 q 454 533 479 533 q 393 524 428 533 q 327 498 359 515 q 176 289 210 436 q 160 186 162 225 q 160 130 159 148 q 167 95 161 111 q 217 57 180 57 q 322 133 266 82 q 412 214 379 184 l 479 522 m 235 886 l 660 886 l 642 819 l 216 819 l 235 886 z "},"":{"ha":1057,"x_min":-14,"x_max":1006,"o":"m -14 8 q 1 27 -14 27 l 16 27 q 55 37 41 27 q 102 91 68 47 q 197 214 136 136 q 319 373 258 293 q 441 532 380 453 q 558 685 502 612 q 663 822 614 758 q 734 915 712 886 q 767 952 757 944 q 793 961 778 961 l 811 961 q 836 950 831 961 q 842 924 842 940 l 862 102 q 932 31 864 45 q 967 27 950 27 l 997 27 q 1006 17 1006 27 l 1006 9 q 996 0 1006 0 l 575 0 q 566 7 566 0 l 566 20 q 583 27 566 27 q 618 28 600 27 q 650 33 637 30 q 713 60 699 41 q 734 98 728 80 q 742 171 742 123 l 737 366 l 737 378 q 701 408 737 408 l 429 408 q 385 385 401 408 q 314 293 350 338 q 257 219 279 248 q 227 178 235 190 q 210 153 218 165 q 193 94 193 123 q 219 46 193 65 q 286 27 244 27 l 319 27 q 328 20 328 27 q 321 1 325 3 q 311 0 317 0 l -1 0 q -14 8 -14 0 m 734 493 l 727 797 q 720 815 727 815 q 700 797 713 814 q 660 743 687 779 q 600 666 633 707 q 498 533 528 574 q 464 489 467 493 q 457 479 460 484 q 448 463 448 467 q 452 459 448 459 l 702 459 q 726 468 717 459 q 734 493 734 477 m 785 1111 q 717 1128 747 1111 q 665 1176 686 1146 q 621 1322 621 1236 l 642 1322 q 689 1227 642 1263 q 797 1192 733 1192 q 907 1237 848 1192 q 966 1322 966 1282 l 988 1322 q 924 1179 988 1246 q 785 1111 860 1111 z "},"":{"ha":606,"x_min":68,"x_max":654,"o":"m 391 103 q 392 109 391 103 q 396 126 393 115 q 399 149 399 138 q 395 161 400 161 q 361 138 387 161 q 314 96 336 115 q 268 57 292 77 q 221 20 244 37 q 144 -18 169 -18 q 105 2 120 -18 q 81 50 90 22 q 68 142 68 98 q 175 412 68 283 q 427 585 277 534 q 577 610 500 610 q 589 591 589 610 l 486 122 q 485 111 486 117 q 484 93 484 102 q 489 77 484 85 q 501 68 494 68 q 517 76 507 68 q 537 94 527 84 q 572 118 566 118 q 583 106 583 118 q 510 37 583 93 q 417 -21 436 -21 q 388 7 396 -21 q 384 40 384 22 q 386 75 384 59 q 391 103 388 90 m 479 522 q 454 533 479 533 q 393 524 428 533 q 327 498 359 515 q 176 289 210 436 q 160 186 162 225 q 160 130 159 148 q 167 95 161 111 q 217 57 180 57 q 322 133 266 82 q 412 214 379 184 l 479 522 m 451 743 q 382 761 413 743 q 330 808 352 779 q 287 955 287 869 l 308 955 q 355 859 308 896 q 463 824 399 824 q 572 869 514 824 q 631 955 631 915 l 654 955 q 590 811 654 879 q 451 743 526 743 z "},"":{"ha":1057,"x_min":-14,"x_max":1006,"o":"m -14 8 q 1 27 -14 27 l 16 27 q 55 37 41 27 q 102 91 68 47 q 197 214 136 136 q 319 373 258 293 q 441 532 380 453 q 558 685 502 612 q 663 822 614 758 q 734 915 712 886 q 767 952 757 944 q 793 961 778 961 l 811 961 q 836 950 831 961 q 842 924 842 940 l 862 102 q 932 31 864 45 q 967 27 950 27 l 997 27 q 1006 17 1006 27 l 1006 9 q 996 0 1006 0 l 575 0 q 566 7 566 0 l 566 20 q 583 27 566 27 q 618 28 600 27 q 650 33 637 30 q 713 60 699 41 q 734 98 728 80 q 742 171 742 123 l 737 366 l 737 378 q 701 408 737 408 l 429 408 q 385 385 401 408 q 314 293 350 338 q 257 219 279 248 q 227 178 235 190 q 210 153 218 165 q 193 94 193 123 q 219 46 193 65 q 286 27 244 27 l 319 27 q 328 20 328 27 q 321 1 325 3 q 311 0 317 0 l -1 0 q -14 8 -14 0 m 734 493 l 727 797 q 720 815 727 815 q 700 797 713 814 q 660 743 687 779 q 600 666 633 707 q 498 533 528 574 q 464 489 467 493 q 457 479 460 484 q 448 463 448 467 q 452 459 448 459 l 702 459 q 726 468 717 459 q 734 493 734 477 m 855 0 q 745 -207 745 -123 q 765 -275 745 -252 q 852 -315 800 -315 q 906 -308 888 -315 q 930 -301 924 -301 q 935 -309 935 -301 q 926 -329 935 -317 q 902 -350 917 -341 q 834 -370 871 -370 q 767 -361 798 -370 q 713 -335 736 -353 q 665 -232 665 -298 q 717 -102 665 -172 q 820 0 759 -43 l 855 0 z "},"":{"ha":606,"x_min":68,"x_max":589,"o":"m 391 103 q 392 109 391 103 q 396 126 393 115 q 399 149 399 138 q 395 161 400 161 q 361 138 387 161 q 314 96 336 115 q 268 57 292 77 q 221 20 244 37 q 144 -18 169 -18 q 105 2 120 -18 q 81 50 90 22 q 68 142 68 98 q 175 412 68 283 q 427 585 277 534 q 577 610 500 610 q 589 591 589 610 l 486 122 q 485 111 486 117 q 484 93 484 102 q 489 77 484 85 q 501 68 494 68 q 517 76 507 68 q 537 94 527 84 q 572 118 566 118 q 583 106 583 118 q 510 37 583 93 q 417 -21 436 -21 q 388 7 396 -21 q 384 40 384 22 q 386 75 384 59 q 391 103 388 90 m 479 522 q 454 533 479 533 q 393 524 428 533 q 327 498 359 515 q 176 289 210 436 q 160 186 162 225 q 160 130 159 148 q 167 95 161 111 q 217 57 180 57 q 322 133 266 82 q 412 214 379 184 l 479 522 m 458 0 q 348 -207 348 -123 q 368 -275 348 -252 q 455 -315 403 -315 q 509 -308 491 -315 q 532 -301 527 -301 q 538 -309 538 -301 q 529 -329 538 -317 q 505 -350 519 -341 q 437 -370 473 -370 q 370 -361 400 -370 q 316 -335 339 -353 q 268 -232 268 -298 q 319 -102 268 -172 q 422 0 361 -43 l 458 0 z "},"":{"ha":1038,"x_min":75,"x_max":1072,"o":"m 881 14 l 825 22 q 728 7 779 22 q 585 -20 633 -20 q 478 -12 537 -20 q 361 17 418 -3 q 251 70 303 37 q 160 153 199 103 q 75 427 75 260 q 174 720 75 586 q 417 914 265 842 q 719 985 564 985 q 882 970 805 985 q 993 945 958 956 q 1072 880 1072 918 q 1052 767 1072 831 q 1024 688 1031 703 q 1010 673 1017 673 q 994 685 996 673 q 990 754 992 720 q 972 817 987 788 q 933 869 958 846 q 879 908 909 892 q 748 943 815 943 q 612 923 680 943 q 482 869 543 904 q 370 785 421 833 q 281 677 318 736 q 201 410 201 551 q 301 134 201 244 q 573 21 406 21 q 777 92 681 21 q 893 238 861 155 q 904 259 898 251 q 921 268 909 268 q 945 256 945 268 q 944 252 944 255 q 942 241 943 249 q 938 217 941 233 q 929 176 935 202 q 915 112 923 151 q 900 45 906 74 q 889 15 893 16 q 881 14 886 14 m 753 1081 q 751 1085 751 1084 q 753 1089 751 1086 l 898 1289 q 946 1322 922 1322 q 984 1307 970 1322 q 998 1272 998 1292 q 960 1208 998 1240 l 778 1061 q 772 1059 774 1059 q 768 1061 770 1059 l 753 1081 z "},"":{"ha":411,"x_min":52,"x_max":608,"o":"m 393 612 q 411 612 393 612 q 445 598 429 612 q 461 545 461 585 q 437 504 461 504 q 393 519 418 504 q 355 542 368 534 q 321 549 342 549 q 277 526 300 549 q 234 468 254 503 q 200 388 215 432 q 176 300 186 344 q 156 174 156 212 q 161 114 156 136 q 176 75 165 92 q 246 37 199 37 q 315 58 283 37 q 366 95 347 80 q 401 121 384 109 l 416 103 q 321 21 353 41 q 187 -18 256 -18 q 52 130 52 -18 q 168 476 52 330 q 317 595 235 562 q 393 612 357 612 m 363 743 q 361 747 361 746 q 363 751 361 749 l 508 951 q 556 985 532 985 q 594 969 580 985 q 608 934 608 954 q 570 871 608 903 l 388 724 q 382 722 385 722 q 378 724 380 722 l 363 743 z "},"":{"ha":1038,"x_min":75,"x_max":1072,"o":"m 881 14 l 825 22 q 728 7 779 22 q 585 -20 633 -20 q 478 -12 537 -20 q 361 17 418 -3 q 251 70 303 37 q 160 153 199 103 q 75 427 75 260 q 174 720 75 586 q 417 914 265 842 q 719 985 564 985 q 882 970 805 985 q 993 945 958 956 q 1072 880 1072 918 q 1052 767 1072 831 q 1024 688 1031 703 q 1010 673 1017 673 q 994 685 996 673 q 990 754 992 720 q 972 817 987 788 q 933 869 958 846 q 879 908 909 892 q 748 943 815 943 q 612 923 680 943 q 482 869 543 904 q 370 785 421 833 q 281 677 318 736 q 201 410 201 551 q 301 134 201 244 q 573 21 406 21 q 777 92 681 21 q 893 238 861 155 q 904 259 898 251 q 921 268 909 268 q 945 256 945 268 q 944 252 944 255 q 942 241 943 249 q 938 217 941 233 q 929 176 935 202 q 915 112 923 151 q 900 45 906 74 q 889 15 893 16 q 881 14 886 14 m 647 1059 l 613 1059 l 803 1321 l 875 1321 l 875 1058 l 841 1058 l 811 1225 l 647 1059 z "},"":{"ha":411,"x_min":52,"x_max":516,"o":"m 393 612 q 411 612 393 612 q 445 598 429 612 q 461 545 461 585 q 437 504 461 504 q 393 519 418 504 q 355 542 368 534 q 321 549 342 549 q 277 526 300 549 q 234 468 254 503 q 200 388 215 432 q 176 300 186 344 q 156 174 156 212 q 161 114 156 136 q 176 75 165 92 q 246 37 199 37 q 315 58 283 37 q 366 95 347 80 q 401 121 384 109 l 416 103 q 321 21 353 41 q 187 -18 256 -18 q 52 130 52 -18 q 168 476 52 330 q 317 595 235 562 q 393 612 357 612 m 288 722 l 254 722 l 444 984 l 516 984 l 516 721 l 482 721 l 452 888 l 288 722 z "},"":{"ha":1038,"x_min":75,"x_max":1072,"o":"m 881 14 l 825 22 q 728 7 779 22 q 585 -20 633 -20 q 478 -12 537 -20 q 361 17 418 -3 q 251 70 303 37 q 160 153 199 103 q 75 427 75 260 q 174 720 75 586 q 417 914 265 842 q 719 985 564 985 q 882 970 805 985 q 993 945 958 956 q 1072 880 1072 918 q 1052 767 1072 831 q 1024 688 1031 703 q 1010 673 1017 673 q 994 685 996 673 q 990 754 992 720 q 972 817 987 788 q 933 869 958 846 q 879 908 909 892 q 748 943 815 943 q 612 923 680 943 q 482 869 543 904 q 370 785 421 833 q 281 677 318 736 q 201 410 201 551 q 301 134 201 244 q 573 21 406 21 q 777 92 681 21 q 893 238 861 155 q 904 259 898 251 q 921 268 909 268 q 945 256 945 268 q 944 252 944 255 q 942 241 943 249 q 938 217 941 233 q 929 176 935 202 q 915 112 923 151 q 900 45 906 74 q 889 15 893 16 q 881 14 886 14 m 787 1164 q 781 1159 787 1164 q 761 1147 776 1154 q 730 1141 747 1141 q 699 1147 713 1141 q 673 1164 684 1154 q 650 1211 650 1186 q 656 1251 650 1236 q 673 1276 663 1265 q 722 1300 697 1300 q 761 1294 747 1300 q 787 1276 776 1287 q 809 1229 809 1254 q 803 1189 809 1203 q 787 1164 798 1175 z "},"":{"ha":411,"x_min":52,"x_max":461,"o":"m 393 612 q 411 612 393 612 q 445 598 429 612 q 461 545 461 585 q 437 504 461 504 q 393 519 418 504 q 355 542 368 534 q 321 549 342 549 q 277 526 300 549 q 234 468 254 503 q 200 388 215 432 q 176 300 186 344 q 156 174 156 212 q 161 114 156 136 q 176 75 165 92 q 246 37 199 37 q 315 58 283 37 q 366 95 347 80 q 401 121 384 109 l 416 103 q 321 21 353 41 q 187 -18 256 -18 q 52 130 52 -18 q 168 476 52 330 q 317 595 235 562 q 393 612 357 612 m 429 777 q 423 772 429 777 q 403 760 418 766 q 372 754 389 754 q 341 760 355 754 q 315 777 326 766 q 292 824 292 799 q 298 864 292 849 q 315 889 304 878 q 364 913 339 913 q 403 906 389 913 q 429 889 418 900 q 451 841 451 867 q 445 802 451 816 q 429 777 439 787 z "},"":{"ha":1038,"x_min":75,"x_max":1072,"o":"m 881 14 l 825 22 q 728 7 779 22 q 585 -20 633 -20 q 478 -12 537 -20 q 361 17 418 -3 q 251 70 303 37 q 160 153 199 103 q 75 427 75 260 q 174 720 75 586 q 417 914 265 842 q 719 985 564 985 q 882 970 805 985 q 993 945 958 956 q 1072 880 1072 918 q 1052 767 1072 831 q 1024 688 1031 703 q 1010 673 1017 673 q 994 685 996 673 q 990 754 992 720 q 972 817 987 788 q 933 869 958 846 q 879 908 909 892 q 748 943 815 943 q 612 923 680 943 q 482 869 543 904 q 370 785 421 833 q 281 677 318 736 q 201 410 201 551 q 301 134 201 244 q 573 21 406 21 q 777 92 681 21 q 893 238 861 155 q 904 259 898 251 q 921 268 909 268 q 945 256 945 268 q 944 252 944 255 q 942 241 943 249 q 938 217 941 233 q 929 176 935 202 q 915 112 923 151 q 900 45 906 74 q 889 15 893 16 q 881 14 886 14 m 922 1320 l 956 1320 l 766 1058 l 694 1058 l 694 1321 l 728 1321 l 758 1154 l 922 1320 z "},"":{"ha":411,"x_min":52,"x_max":606,"o":"m 393 612 q 411 612 393 612 q 445 598 429 612 q 461 545 461 585 q 437 504 461 504 q 393 519 418 504 q 355 542 368 534 q 321 549 342 549 q 277 526 300 549 q 234 468 254 503 q 200 388 215 432 q 176 300 186 344 q 156 174 156 212 q 161 114 156 136 q 176 75 165 92 q 246 37 199 37 q 315 58 283 37 q 366 95 347 80 q 401 121 384 109 l 416 103 q 321 21 353 41 q 187 -18 256 -18 q 52 130 52 -18 q 168 476 52 330 q 317 595 235 562 q 393 612 357 612 m 572 983 l 606 983 l 416 721 l 345 721 l 345 984 l 378 984 l 408 817 l 572 983 z "},"":{"ha":1098,"x_min":0,"x_max":1098,"o":"m 916 1320 l 950 1320 l 760 1058 l 688 1058 l 688 1321 l 722 1321 l 752 1154 l 916 1320 m 159 949 q 166 956 159 956 l 558 956 q 917 867 766 956 q 1074 689 1029 800 q 1098 560 1098 632 q 1082 419 1098 488 q 1033 288 1067 351 q 946 173 999 226 q 818 82 893 121 q 422 0 658 0 l 5 0 q 0 5 0 0 l 5 28 q 19 34 7 34 q 53 36 31 34 q 94 47 75 39 q 151 119 140 68 l 303 835 q 307 869 307 850 q 298 898 307 887 q 276 914 290 909 q 202 922 256 922 l 159 922 q 155 927 155 922 l 159 949 m 277 150 q 276 128 276 143 q 290 94 276 113 q 327 62 304 75 q 436 35 375 35 q 596 60 519 35 q 720 111 672 85 q 812 175 767 136 q 891 269 857 214 q 968 564 968 390 q 724 894 968 814 q 501 926 627 926 q 455 919 471 926 q 435 890 439 911 l 277 150 z "},"":{"ha":880,"x_min":88,"x_max":992,"o":"m 497 1012 q 702 1116 688 1116 q 715 1093 715 1116 q 713 1072 715 1086 l 507 122 q 505 111 506 117 q 504 93 504 102 q 509 77 504 85 q 521 68 515 68 q 537 76 528 68 q 557 94 547 84 q 593 118 586 118 q 604 106 604 118 q 530 37 604 93 q 437 -21 456 -21 q 408 7 416 -21 q 404 40 404 22 q 406 75 404 59 q 411 103 408 90 q 416 126 414 115 q 420 149 419 138 q 415 161 420 161 q 382 138 408 161 q 334 96 356 115 q 289 57 313 77 q 241 20 264 37 q 165 -18 189 -18 q 125 2 140 -18 q 102 50 110 22 q 88 146 88 98 q 101 244 88 195 q 136 343 113 293 q 190 442 159 394 q 260 527 222 490 q 435 610 346 610 q 471 600 458 610 q 504 581 495 581 q 514 589 513 581 l 598 988 q 601 1006 601 999 q 586 1023 601 1023 q 552 1013 573 1023 q 506 991 530 1002 l 497 1012 m 245 406 q 180 130 172 247 q 200 73 184 88 q 237 57 216 57 q 343 133 286 82 q 433 214 399 184 l 490 475 q 492 494 492 486 q 487 515 492 503 q 470 540 481 528 q 405 568 444 568 q 339 543 367 568 q 245 406 286 494 m 774 760 q 756 781 756 760 q 775 803 756 791 q 817 831 794 815 q 859 867 840 847 q 900 968 900 912 q 886 1019 900 992 q 860 1091 860 1067 q 869 1121 860 1105 q 909 1154 888 1154 q 944 1146 930 1154 q 969 1126 958 1139 q 992 1058 992 1099 q 976 971 992 1017 q 932 886 960 925 q 781 762 877 809 q 774 760 777 760 z "},"":{"ha":688,"x_min":88,"x_max":755,"o":"m 411 103 q 412 109 411 103 q 416 126 414 115 q 420 149 419 138 q 415 161 420 161 q 382 138 408 161 q 334 96 356 115 q 289 57 313 77 q 241 20 264 37 q 165 -18 189 -18 q 125 2 140 -18 q 102 50 110 22 q 88 146 88 98 q 101 244 88 195 q 136 343 113 293 q 190 442 159 394 q 260 527 222 490 q 435 610 346 610 q 471 600 458 610 q 504 581 495 581 q 514 589 513 581 l 555 783 l 340 783 q 329 788 333 783 q 326 800 324 793 l 329 817 q 344 834 332 834 l 566 834 l 598 988 q 601 1006 601 999 q 586 1023 601 1023 q 552 1013 573 1023 q 506 991 530 1002 l 497 1012 q 702 1116 688 1116 q 715 1093 715 1116 q 713 1072 715 1086 l 662 834 l 741 834 q 751 829 747 834 q 755 817 756 825 l 751 800 q 736 783 747 783 l 650 783 l 507 122 q 505 111 506 117 q 504 93 504 102 q 509 77 504 85 q 521 68 515 68 q 537 76 528 68 q 557 94 547 84 q 593 118 586 118 q 604 106 604 118 q 530 37 604 93 q 437 -21 456 -21 q 408 7 416 -21 q 404 40 404 22 q 406 75 404 59 q 411 103 408 90 m 245 406 q 180 130 172 247 q 200 73 184 88 q 237 57 216 57 q 343 133 286 82 q 433 214 399 184 l 490 475 q 492 494 492 486 q 487 515 492 503 q 470 540 481 528 q 405 568 444 568 q 339 543 367 568 q 245 406 286 494 z "},"":{"ha":922,"x_min":0,"x_max":909,"o":"m 852 211 q 836 164 852 203 q 807 90 819 125 q 788 34 795 54 q 772 7 781 14 q 744 0 763 0 l 5 0 q 0 5 0 0 l 3 22 q 20 27 6 27 q 54 30 34 27 q 90 43 74 33 q 135 124 123 65 q 186 364 164 260 q 225 543 208 467 q 253 671 241 619 q 271 756 264 722 q 283 809 279 790 q 289 838 287 827 q 291 866 291 852 q 278 894 291 881 q 244 916 264 907 q 159 929 209 929 q 155 935 155 929 l 159 951 q 165 956 160 956 l 875 956 q 900 953 890 956 q 909 942 909 950 q 908 930 909 935 q 905 909 908 926 q 883 748 903 891 q 872 739 882 739 q 850 754 853 739 q 848 778 848 764 q 846 808 848 791 q 834 847 844 825 q 809 885 825 869 q 723 919 775 919 l 474 919 q 430 913 437 919 q 414 875 421 907 l 343 536 q 342 528 342 530 q 370 511 342 511 l 619 511 q 705 543 663 511 q 759 608 737 568 q 770 616 764 616 l 782 616 q 788 612 788 616 q 788 607 788 607 q 787 606 787 607 l 733 353 q 720 338 730 338 q 710 341 712 338 q 706 352 707 343 q 704 372 705 361 q 700 400 704 384 q 687 429 696 417 q 665 448 677 441 q 598 460 642 460 l 353 460 q 338 455 348 460 q 323 437 328 450 q 317 412 319 425 q 307 364 315 399 q 288 277 298 329 q 271 193 278 226 q 260 118 260 146 q 272 75 260 90 q 302 52 283 60 q 398 41 331 41 q 510 44 465 41 q 587 53 554 47 q 645 68 621 58 q 691 92 670 78 q 752 146 720 113 q 792 188 785 179 q 807 205 800 197 q 839 224 825 224 q 852 211 852 224 m 419 1254 l 844 1254 l 826 1187 l 401 1187 l 419 1254 z "},"":{"ha":535,"x_min":68,"x_max":642,"o":"m 293 37 q 450 94 357 37 l 460 77 q 298 -6 389 22 q 218 -18 259 -18 q 149 -1 177 -18 q 102 45 120 16 q 68 189 68 101 q 176 468 81 340 q 331 591 241 555 q 414 610 377 610 q 471 604 451 610 q 507 585 492 597 q 542 514 542 557 q 524 441 542 472 q 477 389 506 411 q 410 350 448 366 q 335 321 373 334 q 259 299 296 309 q 195 279 222 290 q 173 176 173 229 q 237 48 173 81 q 293 37 260 37 m 204 320 q 222 309 204 309 q 369 369 325 338 q 436 434 413 400 q 458 515 458 468 q 429 578 458 564 q 396 584 418 584 q 349 571 374 584 q 304 535 324 557 q 267 486 283 513 q 239 429 251 458 q 204 320 218 380 m 216 886 l 642 886 l 623 819 l 198 819 l 216 886 z "},"":{"ha":922,"x_min":0,"x_max":909,"o":"m 852 211 q 836 164 852 203 q 807 90 819 125 q 788 34 795 54 q 772 7 781 14 q 744 0 763 0 l 5 0 q 0 5 0 0 l 3 22 q 20 27 6 27 q 54 30 34 27 q 90 43 74 33 q 135 124 123 65 q 186 364 164 260 q 225 543 208 467 q 253 671 241 619 q 271 756 264 722 q 283 809 279 790 q 289 838 287 827 q 291 866 291 852 q 278 894 291 881 q 244 916 264 907 q 159 929 209 929 q 155 935 155 929 l 159 951 q 165 956 160 956 l 875 956 q 900 953 890 956 q 909 942 909 950 q 908 930 909 935 q 905 909 908 926 q 883 748 903 891 q 872 739 882 739 q 850 754 853 739 q 848 778 848 764 q 846 808 848 791 q 834 847 844 825 q 809 885 825 869 q 723 919 775 919 l 474 919 q 430 913 437 919 q 414 875 421 907 l 343 536 q 342 528 342 530 q 370 511 342 511 l 619 511 q 705 543 663 511 q 759 608 737 568 q 770 616 764 616 l 782 616 q 788 612 788 616 q 788 607 788 607 q 787 606 787 607 l 733 353 q 720 338 730 338 q 710 341 712 338 q 706 352 707 343 q 704 372 705 361 q 700 400 704 384 q 687 429 696 417 q 665 448 677 441 q 598 460 642 460 l 353 460 q 338 455 348 460 q 323 437 328 450 q 317 412 319 425 q 307 364 315 399 q 288 277 298 329 q 271 193 278 226 q 260 118 260 146 q 272 75 260 90 q 302 52 283 60 q 398 41 331 41 q 510 44 465 41 q 587 53 554 47 q 645 68 621 58 q 691 92 670 78 q 752 146 720 113 q 792 188 785 179 q 807 205 800 197 q 839 224 825 224 q 852 211 852 224 m 616 1111 q 547 1128 578 1111 q 495 1176 517 1146 q 452 1322 452 1236 l 473 1322 q 519 1227 473 1263 q 627 1192 564 1192 q 737 1237 679 1192 q 796 1322 796 1282 l 819 1322 q 755 1179 819 1246 q 616 1111 690 1111 z "},"":{"ha":535,"x_min":68,"x_max":591,"o":"m 293 37 q 450 94 357 37 l 460 77 q 298 -6 389 22 q 218 -18 259 -18 q 149 -1 177 -18 q 102 45 120 16 q 68 189 68 101 q 176 468 81 340 q 331 591 241 555 q 414 610 377 610 q 471 604 451 610 q 507 585 492 597 q 542 514 542 557 q 524 441 542 472 q 477 389 506 411 q 410 350 448 366 q 335 321 373 334 q 259 299 296 309 q 195 279 222 290 q 173 176 173 229 q 237 48 173 81 q 293 37 260 37 m 204 320 q 222 309 204 309 q 369 369 325 338 q 436 434 413 400 q 458 515 458 468 q 429 578 458 564 q 396 584 418 584 q 349 571 374 584 q 304 535 324 557 q 267 486 283 513 q 239 429 251 458 q 204 320 218 380 m 388 743 q 319 761 350 743 q 267 808 289 779 q 224 955 224 869 l 245 955 q 292 859 245 896 q 399 824 336 824 q 509 869 451 824 q 568 955 568 915 l 591 955 q 527 811 591 879 q 388 743 463 743 z "},"":{"ha":922,"x_min":0,"x_max":909,"o":"m 852 211 q 836 164 852 203 q 807 90 819 125 q 788 34 795 54 q 772 7 781 14 q 744 0 763 0 l 5 0 q 0 5 0 0 l 3 22 q 20 27 6 27 q 54 30 34 27 q 90 43 74 33 q 135 124 123 65 q 186 364 164 260 q 225 543 208 467 q 253 671 241 619 q 271 756 264 722 q 283 809 279 790 q 289 838 287 827 q 291 866 291 852 q 278 894 291 881 q 244 916 264 907 q 159 929 209 929 q 155 935 155 929 l 159 951 q 165 956 160 956 l 875 956 q 900 953 890 956 q 909 942 909 950 q 908 930 909 935 q 905 909 908 926 q 883 748 903 891 q 872 739 882 739 q 850 754 853 739 q 848 778 848 764 q 846 808 848 791 q 834 847 844 825 q 809 885 825 869 q 723 919 775 919 l 474 919 q 430 913 437 919 q 414 875 421 907 l 343 536 q 342 528 342 530 q 370 511 342 511 l 619 511 q 705 543 663 511 q 759 608 737 568 q 770 616 764 616 l 782 616 q 788 612 788 616 q 788 607 788 607 q 787 606 787 607 l 733 353 q 720 338 730 338 q 710 341 712 338 q 706 352 707 343 q 704 372 705 361 q 700 400 704 384 q 687 429 696 417 q 665 448 677 441 q 598 460 642 460 l 353 460 q 338 455 348 460 q 323 437 328 450 q 317 412 319 425 q 307 364 315 399 q 288 277 298 329 q 271 193 278 226 q 260 118 260 146 q 272 75 260 90 q 302 52 283 60 q 398 41 331 41 q 510 44 465 41 q 587 53 554 47 q 645 68 621 58 q 691 92 670 78 q 752 146 720 113 q 792 188 785 179 q 807 205 800 197 q 839 224 825 224 q 852 211 852 224 m 656 1164 q 650 1159 656 1164 q 630 1147 645 1154 q 599 1141 616 1141 q 568 1147 583 1141 q 543 1164 553 1154 q 519 1211 519 1186 q 526 1251 519 1236 q 543 1276 532 1265 q 591 1300 566 1300 q 630 1294 616 1300 q 656 1276 645 1287 q 678 1229 678 1254 q 672 1189 678 1203 q 656 1164 667 1175 z "},"":{"ha":535,"x_min":68,"x_max":542,"o":"m 293 37 q 450 94 357 37 l 460 77 q 298 -6 389 22 q 218 -18 259 -18 q 149 -1 177 -18 q 102 45 120 16 q 68 189 68 101 q 176 468 81 340 q 331 591 241 555 q 414 610 377 610 q 471 604 451 610 q 507 585 492 597 q 542 514 542 557 q 524 441 542 472 q 477 389 506 411 q 410 350 448 366 q 335 321 373 334 q 259 299 296 309 q 195 279 222 290 q 173 176 173 229 q 237 48 173 81 q 293 37 260 37 m 204 320 q 222 309 204 309 q 369 369 325 338 q 436 434 413 400 q 458 515 458 468 q 429 578 458 564 q 396 584 418 584 q 349 571 374 584 q 304 535 324 557 q 267 486 283 513 q 239 429 251 458 q 204 320 218 380 m 509 777 q 504 772 509 777 q 484 760 498 766 q 453 754 469 754 q 421 760 436 754 q 396 777 407 766 q 373 824 373 799 q 379 864 373 849 q 396 889 385 878 q 445 913 420 913 q 484 906 469 913 q 509 889 498 900 q 532 841 532 867 q 526 802 532 816 q 509 777 520 787 z "},"":{"ha":922,"x_min":0,"x_max":909,"o":"m 852 211 q 836 164 852 203 q 807 90 819 125 q 788 34 795 54 q 772 7 781 14 q 744 0 763 0 l 5 0 q 0 5 0 0 l 3 22 q 20 27 6 27 q 54 30 34 27 q 90 43 74 33 q 135 124 123 65 q 186 364 164 260 q 225 543 208 467 q 253 671 241 619 q 271 756 264 722 q 283 809 279 790 q 289 838 287 827 q 291 866 291 852 q 278 894 291 881 q 244 916 264 907 q 159 929 209 929 q 155 935 155 929 l 159 951 q 165 956 160 956 l 875 956 q 900 953 890 956 q 909 942 909 950 q 908 930 909 935 q 905 909 908 926 q 883 748 903 891 q 872 739 882 739 q 850 754 853 739 q 848 778 848 764 q 846 808 848 791 q 834 847 844 825 q 809 885 825 869 q 723 919 775 919 l 474 919 q 430 913 437 919 q 414 875 421 907 l 343 536 q 342 528 342 530 q 370 511 342 511 l 619 511 q 705 543 663 511 q 759 608 737 568 q 770 616 764 616 l 782 616 q 788 612 788 616 q 788 607 788 607 q 787 606 787 607 l 733 353 q 720 338 730 338 q 710 341 712 338 q 706 352 707 343 q 704 372 705 361 q 700 400 704 384 q 687 429 696 417 q 665 448 677 441 q 598 460 642 460 l 353 460 q 338 455 348 460 q 323 437 328 450 q 317 412 319 425 q 307 364 315 399 q 288 277 298 329 q 271 193 278 226 q 260 118 260 146 q 272 75 260 90 q 302 52 283 60 q 398 41 331 41 q 510 44 465 41 q 587 53 554 47 q 645 68 621 58 q 691 92 670 78 q 752 146 720 113 q 792 188 785 179 q 807 205 800 197 q 839 224 825 224 q 852 211 852 224 m 597 0 q 488 -207 488 -123 q 507 -275 488 -252 q 595 -315 543 -315 q 649 -308 631 -315 q 672 -301 667 -301 q 677 -309 677 -301 q 668 -329 677 -317 q 644 -350 659 -341 q 576 -370 613 -370 q 509 -361 540 -370 q 456 -335 479 -353 q 408 -232 408 -298 q 459 -102 408 -172 q 562 0 501 -43 l 597 0 z "},"":{"ha":535,"x_min":68,"x_max":542,"o":"m 293 37 q 450 94 357 37 l 460 77 q 298 -6 389 22 q 218 -18 259 -18 q 149 -1 177 -18 q 102 45 120 16 q 68 189 68 101 q 176 468 81 340 q 331 591 241 555 q 414 610 377 610 q 471 604 451 610 q 507 585 492 597 q 542 514 542 557 q 524 441 542 472 q 477 389 506 411 q 410 350 448 366 q 335 321 373 334 q 259 299 296 309 q 195 279 222 290 q 173 176 173 229 q 237 48 173 81 q 293 37 260 37 m 204 320 q 222 309 204 309 q 369 369 325 338 q 436 434 413 400 q 458 515 458 468 q 429 578 458 564 q 396 584 418 584 q 349 571 374 584 q 304 535 324 557 q 267 486 283 513 q 239 429 251 458 q 204 320 218 380 m 282 0 q 172 -207 172 -123 q 192 -275 172 -252 q 279 -315 227 -315 q 333 -308 315 -315 q 357 -301 351 -301 q 362 -309 362 -301 q 353 -329 362 -317 q 329 -350 344 -341 q 261 -370 298 -370 q 194 -361 224 -370 q 140 -335 163 -353 q 92 -232 92 -298 q 144 -102 92 -172 q 247 0 186 -43 l 282 0 z "},"":{"ha":922,"x_min":0,"x_max":909,"o":"m 852 211 q 836 164 852 203 q 807 90 819 125 q 788 34 795 54 q 772 7 781 14 q 744 0 763 0 l 5 0 q 0 5 0 0 l 3 22 q 20 27 6 27 q 54 30 34 27 q 90 43 74 33 q 135 124 123 65 q 186 364 164 260 q 225 543 208 467 q 253 671 241 619 q 271 756 264 722 q 283 809 279 790 q 289 838 287 827 q 291 866 291 852 q 278 894 291 881 q 244 916 264 907 q 159 929 209 929 q 155 935 155 929 l 159 951 q 165 956 160 956 l 875 956 q 900 953 890 956 q 909 942 909 950 q 908 930 909 935 q 905 909 908 926 q 883 748 903 891 q 872 739 882 739 q 850 754 853 739 q 848 778 848 764 q 846 808 848 791 q 834 847 844 825 q 809 885 825 869 q 723 919 775 919 l 474 919 q 430 913 437 919 q 414 875 421 907 l 343 536 q 342 528 342 530 q 370 511 342 511 l 619 511 q 705 543 663 511 q 759 608 737 568 q 770 616 764 616 l 782 616 q 788 612 788 616 q 788 607 788 607 q 787 606 787 607 l 733 353 q 720 338 730 338 q 710 341 712 338 q 706 352 707 343 q 704 372 705 361 q 700 400 704 384 q 687 429 696 417 q 665 448 677 441 q 598 460 642 460 l 353 460 q 338 455 348 460 q 323 437 328 450 q 317 412 319 425 q 307 364 315 399 q 288 277 298 329 q 271 193 278 226 q 260 118 260 146 q 272 75 260 90 q 302 52 283 60 q 398 41 331 41 q 510 44 465 41 q 587 53 554 47 q 645 68 621 58 q 691 92 670 78 q 752 146 720 113 q 792 188 785 179 q 807 205 800 197 q 839 224 825 224 q 852 211 852 224 m 805 1320 l 839 1320 l 649 1058 l 577 1058 l 577 1321 l 611 1321 l 641 1154 l 805 1320 z "},"":{"ha":535,"x_min":68,"x_max":665,"o":"m 293 37 q 450 94 357 37 l 460 77 q 298 -6 389 22 q 218 -18 259 -18 q 149 -1 177 -18 q 102 45 120 16 q 68 189 68 101 q 176 468 81 340 q 331 591 241 555 q 414 610 377 610 q 471 604 451 610 q 507 585 492 597 q 542 514 542 557 q 524 441 542 472 q 477 389 506 411 q 410 350 448 366 q 335 321 373 334 q 259 299 296 309 q 195 279 222 290 q 173 176 173 229 q 237 48 173 81 q 293 37 260 37 m 204 320 q 222 309 204 309 q 369 369 325 338 q 436 434 413 400 q 458 515 458 468 q 429 578 458 564 q 396 584 418 584 q 349 571 374 584 q 304 535 324 557 q 267 486 283 513 q 239 429 251 458 q 204 320 218 380 m 631 983 l 665 983 l 475 721 l 404 721 l 404 984 l 437 984 l 467 817 l 631 983 z "},"":{"ha":1102,"x_min":68,"x_max":1095,"o":"m 1002 83 q 1014 75 1014 83 q 970 38 1014 52 q 690 -11 892 12 q 596 -18 621 -18 q 220 103 364 -18 q 68 457 68 231 q 164 725 68 598 q 393 913 254 842 q 659 985 531 985 q 843 978 798 985 q 914 964 889 970 q 1017 934 985 947 q 1053 917 1049 921 q 1067 836 1063 903 q 1072 736 1072 769 q 1061 703 1072 703 q 1045 706 1050 703 q 1036 714 1039 709 q 1031 728 1033 720 q 1017 763 1029 735 q 978 830 1004 791 q 916 897 951 869 q 717 953 842 953 q 469 880 590 953 q 279 692 353 808 q 204 439 204 572 q 294 144 204 256 q 568 24 391 24 q 797 72 724 24 q 833 122 827 91 l 867 272 q 869 291 869 280 q 861 313 869 302 q 841 331 853 324 q 789 346 816 346 q 762 358 762 346 q 782 370 762 370 q 863 370 823 370 l 996 370 q 1064 370 1034 370 q 1095 356 1095 370 q 1069 346 1095 346 q 1024 328 1044 346 q 999 289 1004 310 q 989 246 994 269 q 980 200 985 223 q 970 154 975 176 q 963 120 965 131 q 960 106 960 110 q 1002 83 960 83 m 641 1059 l 607 1059 l 797 1321 l 869 1321 l 869 1058 l 835 1058 l 805 1225 l 641 1059 z "},"":{"ha":620,"x_min":-112,"x_max":610,"o":"m 610 557 q 597 547 610 547 l 517 547 q 525 521 520 535 q 533 490 529 507 q 543 404 543 450 q 529 318 543 358 q 492 244 515 278 q 376 125 454 189 q 297 81 350 104 q 227 47 245 58 q 210 17 210 36 q 230 -26 210 -3 q 281 -73 250 -50 q 348 -120 312 -96 q 414 -170 383 -144 q 486 -286 486 -229 q 317 -420 486 -384 q 195 -434 257 -434 q 77 -429 132 -434 q -20 -411 21 -425 q -112 -311 -112 -382 q -26 -196 -112 -255 q 58 -143 20 -164 q 110 -114 97 -122 q 154 -85 148 -91 q 145 -59 151 -72 q 140 -31 140 -45 q 144 -6 140 -17 q 157 14 149 5 q 175 34 165 24 q 200 62 200 58 q 193 74 200 66 q 176 91 186 81 q 143 123 156 109 q 119 158 130 138 q 102 201 109 178 q 90 289 90 246 q 104 370 90 332 q 145 444 119 408 q 204 509 171 479 q 276 562 238 540 q 431 610 357 610 q 606 595 581 610 q 610 588 610 593 l 610 557 m 15 -212 q 5 -221 15 -212 q -16 -251 -4 -231 q -28 -302 -28 -272 q -11 -355 -28 -332 q 37 -392 5 -378 q 208 -414 90 -414 q 372 -375 307 -414 q 414 -310 414 -349 q 326 -205 414 -265 q 275 -171 301 -188 l 175 -103 q 145 -122 164 -111 q 103 -147 125 -133 q 57 -177 81 -161 q 15 -212 34 -193 m 454 437 q 363 577 454 577 q 269 522 313 577 q 191 321 211 448 q 185 257 185 284 q 190 204 185 229 q 205 157 194 178 q 279 107 230 107 q 346 143 311 107 q 400 212 381 178 q 431 281 418 245 q 454 437 454 353 m 342 722 l 309 722 l 498 984 l 570 984 l 570 721 l 536 721 l 507 888 l 342 722 z "},"":{"ha":1102,"x_min":68,"x_max":1095,"o":"m 1002 83 q 1014 75 1014 83 q 970 38 1014 52 q 690 -11 892 12 q 596 -18 621 -18 q 220 103 364 -18 q 68 457 68 231 q 164 725 68 598 q 393 913 254 842 q 659 985 531 985 q 843 978 798 985 q 914 964 889 970 q 1017 934 985 947 q 1053 917 1049 921 q 1067 836 1063 903 q 1072 736 1072 769 q 1061 703 1072 703 q 1045 706 1050 703 q 1036 714 1039 709 q 1031 728 1033 720 q 1017 763 1029 735 q 978 830 1004 791 q 916 897 951 869 q 717 953 842 953 q 469 880 590 953 q 279 692 353 808 q 204 439 204 572 q 294 144 204 256 q 568 24 391 24 q 797 72 724 24 q 833 122 827 91 l 867 272 q 869 291 869 280 q 861 313 869 302 q 841 331 853 324 q 789 346 816 346 q 762 358 762 346 q 782 370 762 370 q 863 370 823 370 l 996 370 q 1064 370 1034 370 q 1095 356 1095 370 q 1069 346 1095 346 q 1024 328 1044 346 q 999 289 1004 310 q 989 246 994 269 q 980 200 985 223 q 970 154 975 176 q 963 120 965 131 q 960 106 960 110 q 1002 83 960 83 m 761 1112 q 692 1129 723 1112 q 640 1177 662 1147 q 597 1323 597 1237 l 618 1323 q 665 1227 618 1264 q 772 1192 709 1192 q 882 1238 824 1192 q 941 1323 941 1283 l 964 1323 q 900 1179 964 1247 q 761 1112 836 1112 z "},"":{"ha":663,"x_min":-112,"x_max":652,"o":"m 610 557 q 597 547 610 547 l 517 547 q 525 521 520 535 q 533 490 529 507 q 543 404 543 450 q 529 318 543 358 q 492 244 515 278 q 376 125 454 189 q 297 81 350 104 q 227 47 245 58 q 210 17 210 36 q 230 -26 210 -3 q 281 -73 250 -50 q 348 -120 312 -96 q 414 -170 383 -144 q 486 -286 486 -229 q 317 -420 486 -384 q 195 -434 257 -434 q 77 -429 132 -434 q -20 -411 21 -425 q -112 -311 -112 -382 q -26 -196 -112 -255 q 58 -143 20 -164 q 110 -114 97 -122 q 154 -85 148 -91 q 145 -59 151 -72 q 140 -31 140 -45 q 144 -6 140 -17 q 157 14 149 5 q 175 34 165 24 q 200 62 200 58 q 193 74 200 66 q 176 91 186 81 q 143 123 156 109 q 119 158 130 138 q 102 201 109 178 q 90 289 90 246 q 104 370 90 332 q 145 444 119 408 q 204 509 171 479 q 276 562 238 540 q 431 610 357 610 q 606 595 581 610 q 610 588 610 593 l 610 557 m 15 -212 q 5 -221 15 -212 q -16 -251 -4 -231 q -28 -302 -28 -272 q -11 -355 -28 -332 q 37 -392 5 -378 q 208 -414 90 -414 q 372 -375 307 -414 q 414 -310 414 -349 q 326 -205 414 -265 q 275 -171 301 -188 l 175 -103 q 145 -122 164 -111 q 103 -147 125 -133 q 57 -177 81 -161 q 15 -212 34 -193 m 454 437 q 363 577 454 577 q 269 522 313 577 q 191 321 211 448 q 185 257 185 284 q 190 204 185 229 q 205 157 194 178 q 279 107 230 107 q 346 143 311 107 q 400 212 381 178 q 431 281 418 245 q 454 437 454 353 m 450 743 q 381 761 412 743 q 329 808 351 779 q 286 955 286 869 l 307 955 q 353 859 307 896 q 461 824 397 824 q 571 869 513 824 q 630 955 630 915 l 652 955 q 589 811 652 879 q 450 743 524 743 z "},"":{"ha":1102,"x_min":68,"x_max":1095,"o":"m 1002 83 q 1014 75 1014 83 q 970 38 1014 52 q 690 -11 892 12 q 596 -18 621 -18 q 220 103 364 -18 q 68 457 68 231 q 164 725 68 598 q 393 913 254 842 q 659 985 531 985 q 843 978 798 985 q 914 964 889 970 q 1017 934 985 947 q 1053 917 1049 921 q 1067 836 1063 903 q 1072 736 1072 769 q 1061 703 1072 703 q 1045 706 1050 703 q 1036 714 1039 709 q 1031 728 1033 720 q 1017 763 1029 735 q 978 830 1004 791 q 916 897 951 869 q 717 953 842 953 q 469 880 590 953 q 279 692 353 808 q 204 439 204 572 q 294 144 204 256 q 568 24 391 24 q 797 72 724 24 q 833 122 827 91 l 867 272 q 869 291 869 280 q 861 313 869 302 q 841 331 853 324 q 789 346 816 346 q 762 358 762 346 q 782 370 762 370 q 863 370 823 370 l 996 370 q 1064 370 1034 370 q 1095 356 1095 370 q 1069 346 1095 346 q 1024 328 1044 346 q 999 289 1004 310 q 989 246 994 269 q 980 200 985 223 q 970 154 975 176 q 963 120 965 131 q 960 106 960 110 q 1002 83 960 83 m 821 1164 q 816 1159 821 1164 q 796 1147 810 1154 q 765 1141 781 1141 q 733 1147 748 1141 q 708 1164 719 1154 q 685 1211 685 1186 q 691 1251 685 1236 q 708 1276 697 1265 q 756 1300 732 1300 q 796 1294 781 1300 q 821 1276 810 1287 q 844 1229 844 1254 q 838 1189 844 1203 q 821 1164 832 1175 z "},"":{"ha":620,"x_min":-112,"x_max":610,"o":"m 610 557 q 597 547 610 547 l 517 547 q 525 521 520 535 q 533 490 529 507 q 543 404 543 450 q 529 318 543 358 q 492 244 515 278 q 376 125 454 189 q 297 81 350 104 q 227 47 245 58 q 210 17 210 36 q 230 -26 210 -3 q 281 -73 250 -50 q 348 -120 312 -96 q 414 -170 383 -144 q 486 -286 486 -229 q 317 -420 486 -384 q 195 -434 257 -434 q 77 -429 132 -434 q -20 -411 21 -425 q -112 -311 -112 -382 q -26 -196 -112 -255 q 58 -143 20 -164 q 110 -114 97 -122 q 154 -85 148 -91 q 145 -59 151 -72 q 140 -31 140 -45 q 144 -6 140 -17 q 157 14 149 5 q 175 34 165 24 q 200 62 200 58 q 193 74 200 66 q 176 91 186 81 q 143 123 156 109 q 119 158 130 138 q 102 201 109 178 q 90 289 90 246 q 104 370 90 332 q 145 444 119 408 q 204 509 171 479 q 276 562 238 540 q 431 610 357 610 q 606 595 581 610 q 610 588 610 593 l 610 557 m 15 -212 q 5 -221 15 -212 q -16 -251 -4 -231 q -28 -302 -28 -272 q -11 -355 -28 -332 q 37 -392 5 -378 q 208 -414 90 -414 q 372 -375 307 -414 q 414 -310 414 -349 q 326 -205 414 -265 q 275 -171 301 -188 l 175 -103 q 145 -122 164 -111 q 103 -147 125 -133 q 57 -177 81 -161 q 15 -212 34 -193 m 454 437 q 363 577 454 577 q 269 522 313 577 q 191 321 211 448 q 185 257 185 284 q 190 204 185 229 q 205 157 194 178 q 279 107 230 107 q 346 143 311 107 q 400 212 381 178 q 431 281 418 245 q 454 437 454 353 m 530 777 q 524 772 530 777 q 504 760 519 766 q 473 754 490 754 q 442 760 456 754 q 416 777 427 766 q 393 824 393 799 q 399 864 393 849 q 416 889 406 878 q 465 913 440 913 q 504 906 490 913 q 530 889 519 900 q 552 841 552 867 q 546 802 552 816 q 530 777 541 787 z "},"":{"ha":1102,"x_min":68,"x_max":1095,"o":"m 1002 83 q 1014 75 1014 83 q 970 38 1014 52 q 690 -11 892 12 q 596 -18 621 -18 q 220 103 364 -18 q 68 457 68 231 q 164 725 68 598 q 393 913 254 842 q 659 985 531 985 q 843 978 798 985 q 914 964 889 970 q 1017 934 985 947 q 1053 917 1049 921 q 1067 836 1063 903 q 1072 736 1072 769 q 1061 703 1072 703 q 1045 706 1050 703 q 1036 714 1039 709 q 1031 728 1033 720 q 1017 763 1029 735 q 978 830 1004 791 q 916 897 951 869 q 717 953 842 953 q 469 880 590 953 q 279 692 353 808 q 204 439 204 572 q 294 144 204 256 q 568 24 391 24 q 797 72 724 24 q 833 122 827 91 l 867 272 q 869 291 869 280 q 861 313 869 302 q 841 331 853 324 q 789 346 816 346 q 762 358 762 346 q 782 370 762 370 q 863 370 823 370 l 996 370 q 1064 370 1034 370 q 1095 356 1095 370 q 1069 346 1095 346 q 1024 328 1044 346 q 999 289 1004 310 q 989 246 994 269 q 980 200 985 223 q 970 154 975 176 q 963 120 965 131 q 960 106 960 110 q 1002 83 960 83 m 705 -327 q 697 -339 705 -327 q 668 -374 690 -352 q 620 -415 647 -395 q 579 -434 593 -434 q 569 -416 569 -434 q 584 -395 569 -405 q 605 -379 598 -385 q 625 -359 612 -372 q 648 -332 638 -347 q 673 -267 673 -296 q 666 -243 673 -248 q 643 -239 658 -239 q 611 -235 629 -239 q 580 -221 593 -231 q 550 -156 550 -200 q 568 -108 550 -124 q 628 -79 600 -79 q 677 -92 657 -79 q 711 -123 698 -104 q 739 -204 739 -163 q 730 -274 739 -245 q 705 -327 721 -302 z "},"":{"ha":620,"x_min":-112,"x_max":610,"o":"m 610 557 q 597 547 610 547 l 517 547 q 525 521 520 535 q 533 490 529 507 q 543 404 543 450 q 529 318 543 358 q 492 244 515 278 q 376 125 454 189 q 297 81 350 104 q 227 47 245 58 q 210 17 210 36 q 230 -26 210 -3 q 281 -73 250 -50 q 348 -120 312 -96 q 414 -170 383 -144 q 486 -286 486 -229 q 317 -420 486 -384 q 195 -434 257 -434 q 77 -429 132 -434 q -20 -411 21 -425 q -112 -311 -112 -382 q -26 -196 -112 -255 q 58 -143 20 -164 q 110 -114 97 -122 q 154 -85 148 -91 q 145 -59 151 -72 q 140 -31 140 -45 q 144 -6 140 -17 q 157 14 149 5 q 175 34 165 24 q 200 62 200 58 q 193 74 200 66 q 176 91 186 81 q 143 123 156 109 q 119 158 130 138 q 102 201 109 178 q 90 289 90 246 q 104 370 90 332 q 145 444 119 408 q 204 509 171 479 q 276 562 238 540 q 431 610 357 610 q 606 595 581 610 q 610 588 610 593 l 610 557 m 15 -212 q 5 -221 15 -212 q -16 -251 -4 -231 q -28 -302 -28 -272 q -11 -355 -28 -332 q 37 -392 5 -378 q 208 -414 90 -414 q 372 -375 307 -414 q 414 -310 414 -349 q 326 -205 414 -265 q 275 -171 301 -188 l 175 -103 q 145 -122 164 -111 q 103 -147 125 -133 q 57 -177 81 -161 q 15 -212 34 -193 m 454 437 q 363 577 454 577 q 269 522 313 577 q 191 321 211 448 q 185 257 185 284 q 190 204 185 229 q 205 157 194 178 q 279 107 230 107 q 346 143 311 107 q 400 212 381 178 q 431 281 418 245 q 454 437 454 353 m 465 1127 q 484 1105 484 1127 q 465 1083 484 1095 q 422 1056 446 1072 q 381 1020 399 1040 q 340 919 340 975 q 353 868 340 895 q 380 795 380 819 q 371 766 380 782 q 330 732 351 732 q 295 740 309 732 q 271 761 281 748 q 248 829 248 787 q 263 916 248 870 q 307 1001 279 962 q 458 1125 363 1078 q 465 1127 463 1127 z "},"":{"ha":1103,"x_min":14,"x_max":1204,"o":"m 956 864 q 840 929 956 929 q 836 935 836 929 l 840 951 q 846 956 841 956 l 1200 956 q 1204 951 1204 956 l 1200 935 q 1184 929 1199 929 q 1149 926 1170 929 q 1114 913 1129 923 q 1067 832 1080 892 l 914 109 q 911 81 911 98 q 924 53 911 65 q 955 35 936 41 q 1038 27 981 27 q 1042 22 1042 27 l 1038 5 q 1032 0 1036 0 l 669 0 q 664 5 664 0 l 667 22 q 684 27 670 27 q 718 30 698 27 q 753 43 738 33 q 801 131 787 65 q 825 245 814 196 q 843 328 836 295 q 853 379 850 361 q 859 408 857 398 q 861 425 861 422 q 826 467 861 467 l 376 467 q 330 415 342 467 q 304 298 322 382 q 280 182 287 214 q 270 132 273 151 q 264 104 266 114 q 262 79 262 92 q 274 54 262 66 q 305 35 286 41 q 387 27 330 27 q 391 22 391 27 l 388 5 q 382 0 386 0 l 18 0 q 14 5 14 0 l 17 22 q 34 27 20 27 q 67 30 47 27 q 103 43 87 33 q 149 124 136 65 l 302 848 q 305 866 305 859 q 193 929 305 929 q 186 936 186 929 l 189 951 q 196 956 191 956 l 549 956 q 553 951 553 956 l 550 935 q 534 929 549 929 q 499 926 519 929 q 463 913 479 923 q 417 827 430 891 q 393 714 404 762 q 376 634 382 666 q 365 584 369 602 q 359 557 361 566 q 357 545 357 548 q 355 533 355 537 q 376 518 355 518 l 859 518 q 898 589 883 518 q 923 705 913 660 q 939 779 932 749 q 948 825 945 808 q 954 849 951 841 q 956 864 956 861 m 640 1059 l 606 1059 l 795 1321 l 867 1321 l 867 1058 l 833 1058 l 804 1225 l 640 1059 z "},"":{"ha":666,"x_min":68,"x_max":692,"o":"m 68 0 q 71 23 68 9 q 79 58 77 50 l 277 988 q 279 1006 279 999 q 264 1023 279 1023 q 232 1013 253 1023 q 186 991 210 1002 l 177 1012 q 381 1116 368 1116 q 395 1093 395 1116 q 391 1073 395 1091 l 237 346 q 243 339 237 339 q 266 357 250 339 q 305 401 281 375 q 357 455 329 427 q 416 511 385 484 q 476 562 446 539 q 585 610 544 610 q 620 594 605 610 q 635 561 635 578 q 633 534 635 543 l 513 65 l 513 62 q 530 47 513 47 q 625 119 557 47 q 636 130 633 127 l 649 117 q 594 58 636 92 q 533 10 553 23 q 466 -20 488 -20 q 428 -3 443 -20 q 412 30 412 13 q 414 57 412 47 l 535 526 l 535 529 q 529 539 535 535 q 514 544 524 544 q 483 527 505 543 q 433 486 460 511 q 374 431 405 461 q 316 370 344 400 q 233 276 250 299 q 213 233 217 253 l 165 7 q 93 -20 118 -20 q 68 0 68 -20 m 465 1168 l 431 1168 l 621 1430 l 692 1430 l 692 1166 l 659 1166 l 629 1334 l 465 1168 z "},"":{"ha":1103,"x_min":14,"x_max":1204,"o":"m 956 864 q 840 929 956 929 q 836 935 836 929 l 840 951 q 846 956 841 956 l 1200 956 q 1204 951 1204 956 l 1200 935 q 1184 929 1199 929 q 1149 926 1170 929 q 1114 913 1129 923 q 1067 832 1080 892 l 1055 772 l 1166 772 q 1181 758 1181 772 l 1177 738 q 1162 721 1173 721 l 1044 721 l 914 109 q 911 81 911 98 q 924 53 911 65 q 955 35 936 41 q 1038 27 981 27 q 1042 22 1042 27 l 1038 5 q 1032 0 1036 0 l 669 0 q 664 5 664 0 l 667 22 q 684 27 670 27 q 718 30 698 27 q 753 43 738 33 q 801 131 787 65 q 825 245 814 196 q 843 328 836 295 q 853 379 850 361 q 859 408 857 398 q 861 425 861 422 q 826 467 861 467 l 376 467 q 330 415 342 467 q 304 298 322 382 q 280 182 287 214 q 270 132 273 151 q 264 104 266 114 q 262 79 262 92 q 274 54 262 66 q 305 35 286 41 q 387 27 330 27 q 391 22 391 27 l 388 5 q 382 0 386 0 l 18 0 q 14 5 14 0 l 17 22 q 34 27 20 27 q 67 30 47 27 q 103 43 87 33 q 149 124 136 65 l 275 721 l 143 721 q 129 734 129 721 l 132 755 q 147 772 136 772 l 286 772 l 302 848 q 305 866 305 859 q 193 929 305 929 q 186 936 186 929 l 189 951 q 196 956 191 956 l 549 956 q 553 951 553 956 l 550 935 q 534 929 549 929 q 499 926 519 929 q 463 913 479 923 q 418 832 430 891 l 405 772 l 937 772 q 956 864 956 856 m 355 533 q 376 518 355 518 l 859 518 q 899 595 883 518 l 926 721 l 394 721 l 355 533 z "},"":{"ha":666,"x_min":68,"x_max":649,"o":"m 68 0 q 71 23 68 9 q 79 58 77 50 l 233 783 l 137 783 q 126 788 130 783 q 123 800 121 793 l 126 817 q 141 834 130 834 l 243 834 l 277 988 q 279 1006 279 999 q 264 1023 279 1023 q 232 1013 253 1023 q 186 991 210 1002 l 177 1012 q 381 1116 368 1116 q 395 1093 395 1116 q 391 1073 395 1091 l 340 834 l 551 834 q 562 829 557 834 q 565 817 566 825 l 561 800 q 547 783 557 783 l 329 783 l 237 346 q 243 339 237 339 q 266 357 250 339 q 305 401 281 375 q 357 455 329 427 q 416 511 385 484 q 476 562 446 539 q 585 610 544 610 q 620 594 605 610 q 635 561 635 578 q 633 534 635 543 l 513 65 l 513 62 q 530 47 513 47 q 625 119 557 47 q 636 130 633 127 l 649 117 q 594 58 636 92 q 533 10 553 23 q 466 -20 488 -20 q 428 -3 443 -20 q 412 30 412 13 q 414 57 412 47 l 535 526 l 535 529 q 529 539 535 535 q 514 544 524 544 q 483 527 505 543 q 433 486 460 511 q 374 431 405 461 q 316 370 344 400 q 233 276 250 299 q 213 233 217 253 l 165 7 q 93 -20 118 -20 q 68 0 68 -20 z "},"":{"ha":452,"x_min":14,"x_max":613,"o":"m 305 865 q 190 929 305 929 q 186 935 186 929 l 189 951 q 196 956 191 956 l 549 956 q 553 951 553 956 l 550 935 q 534 929 549 929 q 499 926 519 929 q 464 913 479 923 q 418 832 430 892 l 264 109 q 261 81 261 98 q 273 53 261 65 q 304 35 286 41 q 387 27 330 27 q 391 22 391 27 l 388 5 q 382 0 386 0 l 18 0 q 14 5 14 0 l 17 22 q 34 27 20 27 q 67 30 47 27 q 103 43 87 33 q 149 124 137 64 q 200 365 178 261 q 239 546 222 469 q 267 675 256 623 q 286 762 278 728 q 297 816 293 797 q 302 845 301 835 q 305 865 305 859 m 567 1248 q 571 1254 567 1248 q 577 1274 574 1260 q 580 1298 580 1288 q 591 1308 580 1308 l 604 1308 q 613 1282 613 1308 q 606 1236 613 1257 q 584 1198 598 1214 q 503 1160 551 1160 q 419 1184 465 1160 q 349 1219 374 1208 q 306 1230 324 1230 q 278 1222 288 1230 q 258 1202 267 1215 q 238 1142 238 1174 q 227 1134 238 1134 l 213 1134 q 208 1155 208 1134 q 215 1203 208 1176 q 236 1249 222 1230 q 313 1290 264 1290 q 400 1265 351 1290 q 476 1230 450 1241 q 523 1219 503 1219 q 551 1227 542 1219 q 567 1248 561 1236 z "},"":{"ha":378,"x_min":65,"x_max":471,"o":"m 425 868 q 428 874 425 868 q 434 894 431 880 q 437 918 437 908 q 448 928 437 928 l 461 928 q 471 903 471 928 q 463 856 471 878 q 441 818 456 834 q 361 780 409 780 q 277 804 322 780 q 207 839 232 828 q 164 850 182 850 q 135 843 146 850 q 116 823 125 835 q 96 762 96 794 q 85 754 96 754 l 71 754 q 65 775 65 754 q 73 823 65 796 q 94 869 80 850 q 171 910 122 910 q 258 886 208 910 q 334 850 307 861 q 380 839 361 839 q 409 847 399 839 q 425 868 418 856 m 214 529 q 197 544 214 544 q 109 479 168 544 q 91 461 96 466 l 78 474 q 155 552 92 500 q 264 610 227 610 q 299 594 284 610 q 315 561 315 578 q 313 534 315 543 l 213 65 l 213 62 q 230 47 213 47 q 326 119 257 47 q 336 130 333 127 l 349 117 q 273 39 336 91 q 163 -19 200 -19 q 128 -3 143 -19 q 113 30 113 13 q 115 57 113 47 l 214 526 l 214 529 z "},"":{"ha":452,"x_min":14,"x_max":637,"o":"m 305 865 q 190 929 305 929 q 186 935 186 929 l 189 951 q 196 956 191 956 l 549 956 q 553 951 553 956 l 550 935 q 534 929 549 929 q 499 926 519 929 q 464 913 479 923 q 418 832 430 892 l 264 109 q 261 81 261 98 q 273 53 261 65 q 304 35 286 41 q 387 27 330 27 q 391 22 391 27 l 388 5 q 382 0 386 0 l 18 0 q 14 5 14 0 l 17 22 q 34 27 20 27 q 67 30 47 27 q 103 43 87 33 q 149 124 137 64 q 200 365 178 261 q 239 546 222 469 q 267 675 256 623 q 286 762 278 728 q 297 816 293 797 q 302 845 301 835 q 305 865 305 859 m 212 1254 l 637 1254 l 619 1187 l 194 1187 l 212 1254 z "},"":{"ha":378,"x_min":78,"x_max":481,"o":"m 137 886 l 481 886 l 463 819 l 119 819 l 137 886 m 214 529 q 197 544 214 544 q 109 479 168 544 q 91 461 96 466 l 78 474 q 155 552 92 500 q 264 610 227 610 q 299 594 284 610 q 315 561 315 578 q 313 534 315 543 l 213 65 l 213 62 q 230 47 213 47 q 326 119 257 47 q 336 130 333 127 l 349 117 q 273 39 336 91 q 163 -19 200 -19 q 128 -3 143 -19 q 113 30 113 13 q 115 57 113 47 l 214 526 l 214 529 z "}}}
